<svg width="600" height="448" viewBox="0 0 600 448" fill="none"
  xmlns="http://www.w3.org/2000/svg">
  <path d="M600 392.88H0V393.18H600V392.88Z" fill="#EBEBEB"/>
  <path d="M539.88 412.188H500.136V412.488H539.88V412.188Z" fill="#EBEBEB"/>
  <path d="M397.464 415.452H387.036V415.752H397.464V415.452Z" fill="#EBEBEB"/>
  <path d="M498.936 401.052H475.908V401.352H498.936V401.052Z" fill="#EBEBEB"/>
  <path d="M114.78 403.068H62.952V403.368H114.78V403.068Z" fill="#EBEBEB"/>
  <path d="M133.068 403.068H125.472V403.368H133.068V403.068Z" fill="#EBEBEB"/>
  <path d="M270.18 408.132H157.764V408.432H270.18V408.132Z" fill="#EBEBEB"/>
  <path d="M284.4 339.36H52.692C50.8768 339.357 49.1371 338.634 47.8547 337.349C46.5723 336.064 45.852 334.323 45.852 332.508V6.792C45.8678 4.98723 46.595 3.26157 47.8757 1.98986C49.1564 0.71815 50.8872 0.00309167 52.692 0H284.4C286.217 0 287.96 0.721905 289.245 2.0069C290.53 3.2919 291.252 5.03474 291.252 6.852V332.508C291.252 334.325 290.53 336.068 289.245 337.353C287.96 338.638 286.217 339.36 284.4 339.36ZM52.692 0.240001C50.9564 0.24318 49.2929 0.934878 48.0668 2.16327C46.8407 3.39167 46.152 5.05638 46.152 6.792V332.508C46.152 334.244 46.8407 335.908 48.0668 337.137C49.2929 338.365 50.9564 339.057 52.692 339.06H284.4C286.137 339.057 287.801 338.366 289.029 337.137C290.258 335.909 290.949 334.245 290.952 332.508V6.792C290.949 5.05528 290.258 3.39059 289.029 2.16254C287.801 0.934488 286.137 0.243173 284.4 0.240001H52.692Z" fill="#EBEBEB"/>
  <path d="M543.972 339.36H312.252C310.436 339.357 308.695 338.634 307.41 337.35C306.126 336.065 305.403 334.324 305.4 332.508V6.792C305.419 4.98614 306.149 3.26049 307.431 1.98911C308.714 0.71773 310.446 0.00305795 312.252 0H543.972C545.775 0.0062454 547.502 0.722699 548.78 1.99407C550.059 3.26545 550.784 4.9893 550.8 6.792V332.508C550.8 334.321 550.081 336.06 548.802 337.345C547.522 338.629 545.785 339.354 543.972 339.36ZM312.252 0.240001C310.515 0.243173 308.851 0.934488 307.622 2.16254C306.394 3.39059 305.703 5.05528 305.7 6.792V332.508C305.703 334.245 306.394 335.909 307.622 337.137C308.851 338.366 310.515 339.057 312.252 339.06H543.972C545.709 339.057 547.373 338.366 548.601 337.137C549.829 335.909 550.521 334.245 550.524 332.508V6.792C550.521 5.05528 549.829 3.39059 548.601 2.16254C547.373 0.934488 545.709 0.243173 543.972 0.240001H312.252Z" fill="#EBEBEB"/>
  <path d="M506.04 385.476L505.5 264.144L493.704 248.928L488.244 208.8L481.2 196.188L477.396 168.108L470.952 180.9L467.352 257.7L463.752 248.904L460.848 219.024L455.016 228.624L447.6 231.408L443.352 294.876L335.16 314.604L312.612 285.132L303.444 227.7L294 212.712L291.108 185.028L282.024 189.828V219.036L274.296 225.828L270.996 285.12L261.3 305.616L258.54 268.98C258.54 268.98 251.112 259.908 249.48 257.712C247.848 255.516 238.464 215.712 239.88 212.7C241.296 209.688 237.852 183.9 237.852 183.9L228.492 192.468V235.296L218.724 239.076L217.2 257.724L192.288 263.88L188.28 235.272H177.168L173.688 251.568L163.572 251.472L147.6 268.992L134.4 229.548L121.02 239.052L111.42 204.888L101.292 224.916L97.548 289.86L92.352 290.784L89.952 276.792L80.22 290.784V385.476H506.04Z" fill="#F5F5F5"/>
  <path d="M285.6 102.768H225.9C223.373 102.731 220.964 101.692 219.203 99.8797C217.442 98.067 216.473 95.629 216.51 93.102C216.547 90.575 217.586 88.1661 219.398 86.4051C221.211 84.6441 223.649 83.6754 226.176 83.712C227.102 83.7139 228.023 83.8473 228.912 84.108C228.767 83.1387 228.695 82.16 228.696 81.18C228.699 75.8247 230.828 70.6896 234.615 66.9028C238.402 63.116 243.537 60.9872 248.892 60.984C250.14 60.9894 251.385 61.1058 252.612 61.332C254.599 58.0545 257.598 55.5131 261.158 54.0923C264.717 52.6716 268.643 52.4487 272.34 53.4575C276.038 54.4662 279.306 56.6517 281.651 59.6833C283.996 62.7149 285.289 66.4277 285.336 70.26H285.6C287.773 70.201 289.936 70.578 291.961 71.3689C293.986 72.1598 295.833 73.3485 297.391 74.8648C298.949 76.3811 300.187 78.1942 301.033 80.1971C301.878 82.1999 302.314 84.3519 302.314 86.526C302.314 88.7001 301.878 90.8521 301.033 92.8549C300.187 94.8578 298.949 96.6709 297.391 98.1872C295.833 99.7035 293.986 100.892 291.961 101.683C289.936 102.474 287.773 102.851 285.6 102.792V102.768Z" fill="#F5F5F5"/>
  <path d="M468.564 94.2721H446.1C445.145 94.2593 444.235 93.8678 443.568 93.1837C442.902 92.4996 442.535 91.5789 442.548 90.6241C442.561 89.6693 442.952 88.7587 443.636 88.0926C444.32 87.4264 445.241 87.0593 446.196 87.0721C446.545 87.0698 446.893 87.1183 447.228 87.2161C447.175 86.8504 447.147 86.4815 447.144 86.1121C447.147 84.0985 447.948 82.1682 449.372 80.7444C450.796 79.3206 452.726 78.5192 454.74 78.5161C455.211 78.5173 455.681 78.5614 456.144 78.6481C456.891 77.4143 458.02 76.4575 459.359 75.9226C460.699 75.3876 462.176 75.3037 463.568 75.6834C464.959 76.0631 466.189 76.8859 467.071 78.0271C467.953 79.1683 468.439 80.5658 468.456 82.0081H468.564C469.39 81.9715 470.214 82.1025 470.988 82.3933C471.762 82.684 472.468 83.1285 473.066 83.6998C473.663 84.2712 474.138 84.9576 474.463 85.7176C474.788 86.4776 474.955 87.2956 474.955 88.1221C474.955 88.9486 474.788 89.7665 474.463 90.5266C474.138 91.2866 473.663 91.973 473.066 92.5443C472.468 93.1157 471.762 93.5601 470.988 93.8509C470.214 94.1416 469.39 94.2727 468.564 94.2361V94.2721Z" fill="#F5F5F5"/>
  <path d="M153.108 128.4H120.612C119.931 128.39 119.259 128.247 118.634 127.978C118.008 127.708 117.442 127.319 116.967 126.831C116.493 126.343 116.119 125.766 115.867 125.133C115.615 124.501 115.491 123.825 115.5 123.144C115.509 122.463 115.653 121.791 115.922 121.166C116.191 120.54 116.581 119.974 117.069 119.499C117.557 119.025 118.134 118.651 118.767 118.399C119.399 118.147 120.075 118.022 120.756 118.032C121.26 118.03 121.761 118.102 122.244 118.248C122.167 117.719 122.127 117.186 122.124 116.652C122.127 113.739 123.287 110.946 125.348 108.887C127.409 106.828 130.203 105.672 133.116 105.672C133.797 105.669 134.476 105.733 135.144 105.864C136.225 104.09 137.852 102.715 139.781 101.944C141.71 101.174 143.836 101.05 145.842 101.59C147.847 102.131 149.623 103.308 150.903 104.944C152.183 106.58 152.898 108.587 152.94 110.664H153.108C155.399 110.748 157.568 111.718 159.158 113.368C160.749 115.019 161.638 117.222 161.638 119.514C161.638 121.806 160.749 124.009 159.158 125.66C157.568 127.31 155.399 128.28 153.108 128.364V128.4Z" fill="#F5F5F5"/>
  <path d="M363.948 114.972H331.452C330.077 114.953 328.766 114.388 327.807 113.403C326.849 112.417 326.321 111.091 326.34 109.716C326.359 108.341 326.924 107.03 327.909 106.071C328.895 105.113 330.221 104.585 331.596 104.604C332.101 104.606 332.602 104.682 333.084 104.832C333.008 104.303 332.968 103.77 332.964 103.236C332.964 100.321 334.122 97.5249 336.183 95.4635C338.245 93.4021 341.041 92.244 343.956 92.244C344.636 92.2467 345.315 92.311 345.984 92.436C347.065 90.6622 348.692 89.2868 350.621 88.5163C352.55 87.7457 354.677 87.6216 356.682 88.1625C358.687 88.7035 360.463 89.8803 361.743 91.5163C363.023 93.1523 363.738 95.1593 363.78 97.236H363.948C366.239 97.3204 368.408 98.2897 369.998 99.9402C371.589 101.591 372.478 103.794 372.478 106.086C372.478 108.378 371.589 110.581 369.998 112.232C368.408 113.882 366.239 114.852 363.948 114.936V114.972Z" fill="#F5F5F5"/>
  <path d="M88.8 352.488L107.832 346.692L112.116 267.228L125.1 253.488L129.6 185.352L141.264 165.288L146.688 180.888L155.544 205.584L158.496 229.8L163.524 251.4L174.324 277.308L184.068 264.024C184.068 264.024 189.372 250.824 191.904 249.156C194.436 247.488 204.84 245.988 204.84 245.988L219.24 267.156V283.62L234.012 295.62L243.096 309.576C247.08 315.672 250.812 326.544 257.496 326.772C266.628 327.084 278.34 301.944 282.696 291.552C286.152 283.428 288.96 274.62 293.028 267.192C302.568 249.78 318.96 239.7 322.68 217.716C326.528 223.14 330.372 228.568 334.212 234C335.208 235.404 336.372 236.904 337.728 236.808C339.084 236.712 339.888 235.452 340.764 234.228C346.572 226.212 352.548 217.836 355.632 206.844C356.604 203.412 357.276 199.752 358.512 196.512C360.288 191.844 363.096 188.352 365.616 184.512C375.288 169.944 380.844 150.336 386.172 131.256C397.2 150.12 415.884 132.168 420.84 162.612C422.784 174.612 425.064 186.348 427.884 197.916C437.66 238.217 452.63 277.078 472.416 313.524C479.852 327.179 488.008 340.429 496.848 353.22C501.688 360.14 506.604 366.8 511.596 373.2C514.644 377.1 524.004 392.688 527.868 392.688H68.04L88.8 352.488Z" fill="#EBEBEB"/>
  <path d="M103.584 393.144L123.288 351.84C123.288 351.84 132.396 351.696 134.328 348.756C136.26 345.816 141.528 338.688 147.66 328.836C153.792 318.984 163.8 300.132 163.8 300.132L176.616 306.648C176.616 306.648 184.212 333.492 186.12 340.02C188.028 346.548 194.232 361.044 194.232 361.044L212.568 369.744C212.568 369.744 214.308 354.516 219.672 344.364C225.036 334.212 233.136 316.08 233.136 316.08L240.696 280.98L250.62 268.308L260.4 288C260.4 288 266.736 298.272 267.744 303.924C268.752 309.576 271.344 325.656 272.868 328.848C274.392 332.04 282.108 351.036 282.108 351.036L286.908 361.836L306.504 362.556C306.504 362.556 308.376 358.476 311.58 351.084C314.784 343.692 316.824 334.848 318.42 332.388C320.016 329.928 325.62 303.972 325.62 303.972L332.82 295.116L361.38 363.276C361.38 363.276 389.328 376.02 394.98 373.272C400.632 370.524 403.5 372.708 408.732 366.912C413.964 361.116 429.804 297.312 430.428 293.712C431.052 290.112 432.96 290.664 439.608 284.568C446.256 278.472 449.628 273.132 449.832 276.9C450.036 280.668 457.836 304.62 458.448 311.496C459.06 318.372 461.064 328.896 461.724 336.324C462.342 342.792 464.012 349.115 466.668 355.044C468.564 358.98 482.028 393.252 482.028 393.252L103.584 393.144Z" fill="#E0E0E0"/>
  <path d="M300 447.072C428.499 447.072 532.668 440.99 532.668 433.488C532.668 425.986 428.499 419.904 300 419.904C171.501 419.904 67.332 425.986 67.332 433.488C67.332 440.99 171.501 447.072 300 447.072Z" fill="#F5F5F5"/>
  <path d="M357.3 248.016L345.912 249.132C344.605 248.381 343.181 247.854 341.7 247.572C340.152 247.512 334.668 248.076 334.836 248.544C335.004 249.012 336.792 254.544 338.244 255.504C339.696 256.464 345.948 255.912 346.092 255.324C346.209 254.848 346.353 254.379 346.524 253.92L357.648 252.552L357.3 248.016Z" fill="#EEC1BB"/>
  <path d="M397.2 237.66C397.2 237.66 393.876 240.384 389.616 243.54C383.976 247.728 376.728 252.684 373.476 253.14C367.776 253.86 350.916 254.04 350.916 254.04L349.62 248.04C349.62 248.04 373.008 242.472 374.664 241.692C376.32 240.912 384.504 227.868 384.504 227.868L388.344 230.844L397.2 237.66Z" fill="#263238"/>
  <path opacity="0.2" d="M397.2 237.66C397.2 237.66 393.876 240.384 389.616 243.54C387.66 239.088 387.216 233.472 388.344 230.784L397.2 237.66Z" fill="black"/>
  <path d="M480.876 405.48L489.348 405.612C489.487 405.615 489.622 405.665 489.729 405.755C489.836 405.844 489.909 405.967 489.936 406.104L491.208 412.32C491.257 412.587 491.199 412.863 491.047 413.088C490.894 413.312 490.659 413.468 490.392 413.52C490.317 413.532 490.24 413.532 490.164 413.52C487.428 413.436 485.436 413.232 482.004 413.184C479.88 413.184 473.484 413.268 470.568 413.184C467.652 413.1 467.304 410.244 468.504 410.004C473.892 408.912 477.96 407.352 479.7 405.84C480.03 405.571 480.452 405.442 480.876 405.48Z" fill="#263238"/>
  <path d="M491.232 405.912H479.7C479.7 405.912 455.04 356.628 451.2 344.064C447.36 331.5 440.58 300 440.58 300C440.352 300 437.868 300.288 434.064 300.756C420.192 302.46 388.716 306.888 384.972 312.312C380.172 319.284 366.12 369.912 366.12 369.912L356.244 363.732C356.244 363.732 363.372 321.324 370.236 303.06C376.536 286.32 419.88 281.556 420.564 279.48C421.44 276.828 419.028 267.396 419.028 267.396L450.912 252.564C450.912 252.564 459.6 267.6 461.412 272.748C466.44 287.424 469.932 326.748 470.796 333.828C472.428 347.34 491.232 405.912 491.232 405.912Z" fill="#7749F8"/>
  <path d="M357.408 365.268L364.896 369.228C365.017 369.293 365.112 369.398 365.167 369.524C365.221 369.65 365.231 369.791 365.196 369.924L363.516 376.056C363.441 376.318 363.264 376.54 363.026 376.673C362.788 376.805 362.507 376.838 362.244 376.764L362.028 376.68C359.628 375.36 357.948 374.28 354.9 372.672C353.028 371.688 347.28 368.892 344.688 367.524C342.096 366.156 343.116 363.432 344.292 363.756C349.596 365.232 353.892 365.676 356.172 365.124C356.587 365.01 357.03 365.061 357.408 365.268Z" fill="#263238"/>
  <path opacity="0.2" d="M434.052 300.756C434.592 298.248 434.868 296.652 434.868 296.652C425.82 289.644 426.84 281.46 426.84 281.46C430.812 286.14 439.8 288 439.8 288L440.568 300C440.4 300 437.856 300.288 434.052 300.756Z" fill="black"/>
  <path d="M452.028 256.488L450.312 252.84L419.952 267.96L422.028 271.128L452.028 256.488Z" fill="#263238"/>
  <path opacity="0.2" d="M452.028 256.488L450.312 252.84L419.952 267.96L422.028 271.128L452.028 256.488Z" fill="white"/>
  <path d="M428.7 263.7L430.26 266.976C430.291 267.034 430.31 267.098 430.316 267.163C430.322 267.229 430.314 267.295 430.294 267.358C430.274 267.42 430.241 267.478 430.198 267.528C430.156 267.578 430.103 267.619 430.044 267.648L425.244 269.772C425.137 269.813 425.018 269.813 424.911 269.771C424.805 269.729 424.718 269.648 424.668 269.544L422.964 266.4C422.929 266.341 422.906 266.275 422.897 266.206C422.888 266.138 422.893 266.068 422.912 266.002C422.931 265.935 422.964 265.874 423.008 265.82C423.052 265.767 423.106 265.723 423.168 265.692L428.112 263.484C428.219 263.438 428.34 263.435 428.449 263.475C428.558 263.515 428.648 263.596 428.7 263.7Z" fill="white"/>
  <path d="M434.868 260.532L436.776 264.972L438.348 264.516L436.248 259.836L434.868 260.532Z" fill="#7749F8"/>
  <path d="M447.012 254.484L449.268 258.732L450.372 258.408L447.984 253.992L447.012 254.484Z" fill="#7749F8"/>
  <path d="M421.08 267.396L423.228 271.596L422.496 272.28L419.952 267.96L421.08 267.396Z" fill="#7749F8"/>
  <path d="M449.04 252.24L418.872 266.244C418.62 266.365 418.347 266.434 418.068 266.448C417.704 266.466 417.341 266.389 417.015 266.225C416.689 266.061 416.411 265.815 416.208 265.512C414.78 263.412 411.288 258.576 406.92 252.924C400.14 244.152 391.224 233.412 384.48 227.808C389.661 222.391 396.194 218.456 403.404 216.408C425.736 210.576 437.904 219.552 450.3 248.964C450.554 249.567 450.565 250.245 450.33 250.856C450.095 251.466 449.633 251.963 449.04 252.24Z" fill="#263238"/>
  <path d="M417.684 266.424L418.884 268.368L451.8 253.488L450.372 250.716L417.684 266.424Z" fill="#263238"/>
  <path opacity="0.2" d="M417.684 266.424L418.884 268.368L451.8 253.488L450.372 250.716L417.684 266.424Z" fill="black"/>
  <path opacity="0.2" d="M438.336 252.564C437.58 255.492 425.736 262.296 418.068 266.448C417.704 266.466 417.341 266.389 417.015 266.225C416.689 266.061 416.411 265.815 416.208 265.512C414.78 263.412 411.288 258.576 406.92 252.924C412.356 248.4 420 240.672 420 240.672L418.296 226.86L431.496 224.064C431.496 224.064 439.476 248.22 438.336 252.564Z" fill="black"/>
  <path d="M409.596 214.8C409.025 217.104 407.943 219.249 406.428 221.076L402.9 221.484L401.316 224.076L399.204 221.916H396.672C397.25 221.317 397.684 220.594 397.94 219.801C398.196 219.009 398.267 218.168 398.148 217.344C398.099 217.055 398.026 216.77 397.932 216.492C397.296 214.875 396.308 213.42 395.04 212.232L397.212 206.112L397.356 205.704L399.312 200.172C400.323 203.168 401.625 206.058 403.2 208.8L403.632 209.496C405.36 212.1 407.364 214.236 409.596 214.8Z" fill="#EEC1BB"/>
  <path d="M408.408 260.256L399.228 267.072C397.723 267.101 396.234 267.385 394.824 267.912C393.456 268.656 389.04 271.956 389.436 272.28C389.832 272.604 394.236 276.432 395.94 276.48C397.644 276.528 402.756 272.88 402.564 272.292C402.372 271.704 402.216 270.864 402.216 270.864L411.048 263.952L408.408 260.256Z" fill="#EEC1BB"/>
  <path d="M423.228 215.856C434.028 215.508 435.228 245.52 432.672 248.688C430.116 251.856 406.92 268.584 406.92 268.584L401.568 263.916C401.568 263.916 424.608 244.056 423.732 241.62C422.856 239.184 417.6 229.2 418.044 224.052C418.488 218.904 420.804 216 423.228 215.856Z" fill="#263238"/>
  <path opacity="0.2" d="M403.716 209.028C403.716 209.028 403.716 209.184 403.716 209.46C403.536 210.948 402.588 215.88 398.196 217.284C398.147 216.995 398.074 216.71 397.98 216.432C397.344 214.815 396.356 213.36 395.088 212.172L397.26 206.052C399.344 206.757 401.354 207.666 403.26 208.764L403.716 209.028Z" fill="black"/>
  <path d="M395.592 184.08C394.446 183.448 393.117 183.231 391.83 183.465C390.542 183.699 389.375 184.37 388.524 185.364C385.404 188.964 384.024 194.364 388.212 197.364C392.4 200.364 402.192 189.288 402.192 189.288L395.592 184.08Z" fill="#263238"/>
  <path d="M407.472 199.2C405.24 205.74 404.244 209.676 399.936 212.136C393.456 215.88 386.088 210.552 386.316 203.46C386.544 197.088 390.204 187.464 397.44 186.66C399.037 186.467 400.657 186.685 402.146 187.293C403.635 187.902 404.944 188.88 405.948 190.136C406.953 191.392 407.621 192.884 407.887 194.47C408.154 196.056 408.011 197.685 407.472 199.2Z" fill="#EEC1BB"/>
  <path d="M396.864 198.216C396.756 198.768 396.312 199.116 395.952 199.02C395.592 198.924 395.436 198.396 395.58 197.82C395.724 197.244 396.144 196.92 396.492 197.016C396.84 197.112 397.02 197.664 396.864 198.216Z" fill="#263238"/>
  <path d="M390.744 196.524C390.636 197.064 390.18 197.412 389.832 197.316C389.484 197.22 389.316 196.704 389.46 196.116C389.604 195.528 390.024 195.216 390.372 195.312C390.72 195.408 390.888 196.008 390.744 196.524Z" fill="#263238"/>
  <path d="M392.616 197.328C391.529 198.801 390.245 200.117 388.8 201.24C389.102 201.605 389.479 201.901 389.906 202.108C390.332 202.315 390.798 202.429 391.272 202.44L392.616 197.328Z" fill="#D4827D"/>
  <path d="M396 195.468C396.044 195.427 396.099 195.399 396.158 195.386C396.217 195.373 396.279 195.377 396.336 195.396C396.732 195.537 397.156 195.583 397.573 195.528C397.991 195.474 398.389 195.322 398.736 195.084C398.797 195.024 398.879 194.99 398.964 194.99C399.049 194.99 399.131 195.024 399.192 195.084C399.224 195.114 399.249 195.151 399.266 195.191C399.283 195.231 399.292 195.274 399.292 195.318C399.292 195.362 399.283 195.405 399.266 195.445C399.249 195.485 399.224 195.522 399.192 195.552C398.765 195.854 398.272 196.049 397.755 196.122C397.237 196.195 396.71 196.144 396.216 195.972C396.175 195.96 396.137 195.939 396.103 195.912C396.07 195.885 396.043 195.851 396.023 195.813C396.003 195.775 395.99 195.734 395.986 195.691C395.982 195.648 395.987 195.605 396 195.564C395.998 195.532 395.998 195.5 396 195.468Z" fill="#263238"/>
  <path d="M397.548 204.456C396.799 204.137 395.984 204.002 395.172 204.063C394.36 204.123 393.574 204.378 392.88 204.804C392.85 204.839 392.833 204.884 392.833 204.93C392.833 204.976 392.85 205.021 392.88 205.056C392.911 205.085 392.952 205.101 392.994 205.101C393.036 205.101 393.077 205.085 393.108 205.056C393.756 204.669 394.485 204.44 395.238 204.388C395.991 204.336 396.745 204.462 397.44 204.756C397.48 204.772 397.525 204.773 397.565 204.757C397.605 204.742 397.638 204.711 397.656 204.672C397.672 204.632 397.673 204.587 397.657 204.547C397.642 204.507 397.611 204.474 397.572 204.456H397.548Z" fill="#263238"/>
  <path d="M391.704 194.496C391.722 194.559 391.722 194.625 391.704 194.688C391.679 194.77 391.625 194.839 391.552 194.883C391.479 194.928 391.392 194.944 391.308 194.928C390.798 194.801 390.326 194.554 389.932 194.208C389.537 193.861 389.231 193.425 389.04 192.936C389.025 192.895 389.019 192.852 389.022 192.808C389.025 192.765 389.037 192.723 389.058 192.684C389.078 192.646 389.106 192.612 389.14 192.585C389.175 192.558 389.214 192.539 389.256 192.528C389.337 192.501 389.426 192.508 389.502 192.546C389.578 192.584 389.637 192.651 389.664 192.732C389.828 193.113 390.078 193.452 390.394 193.72C390.711 193.989 391.085 194.18 391.488 194.28C391.538 194.298 391.583 194.327 391.62 194.364C391.657 194.401 391.686 194.446 391.704 194.496Z" fill="#263238"/>
  <path d="M413.4 190.428C411.192 186.276 397.884 181.536 395.592 184.08C395.275 183.914 394.926 183.814 394.569 183.789C394.211 183.763 393.852 183.811 393.515 183.931C393.177 184.05 392.867 184.238 392.605 184.482C392.343 184.727 392.134 185.023 391.992 185.352C391.482 186.701 391.382 188.17 391.704 189.576C392.224 189.472 392.748 189.395 393.276 189.348C395.544 192.948 399.612 195.852 402.024 197.556C402.004 199.995 402.855 202.361 404.424 204.228C402.888 210.036 403.224 212.208 403.224 212.208C414.576 210 415.452 194.292 413.4 190.428Z" fill="#263238"/>
  <path d="M408.444 207.324C407.158 208.489 405.462 209.098 403.728 209.016C401.424 208.896 401.004 206.616 402.264 204.864C403.392 203.292 405.96 201.384 407.964 202.464C408.392 202.69 408.757 203.019 409.027 203.42C409.296 203.822 409.462 204.284 409.51 204.765C409.557 205.246 409.485 205.732 409.299 206.179C409.113 206.625 408.819 207.019 408.444 207.324Z" fill="#EEC1BB"/>
  <path d="M395.232 184.44C395.232 184.44 397.788 177 406.92 180.72C406.92 180.72 400.308 178.908 398.652 184.44H395.232Z" fill="#263238"/>
  <path d="M395.88 186.804C395.826 186.803 395.774 186.788 395.728 186.761C395.681 186.733 395.643 186.695 395.616 186.648C395.532 186.504 393.42 182.82 394.776 180.36C395.472 179.076 396.972 178.38 399.204 178.296C399.243 178.294 399.283 178.301 399.32 178.314C399.357 178.328 399.391 178.349 399.42 178.375C399.449 178.402 399.472 178.434 399.489 178.47C399.505 178.506 399.514 178.545 399.516 178.584C399.516 178.663 399.487 178.739 399.433 178.797C399.38 178.854 399.307 178.89 399.228 178.896C397.212 178.968 395.892 179.568 395.304 180.648C394.104 182.82 396.12 186.312 396.132 186.348C396.172 186.418 396.183 186.502 396.163 186.58C396.143 186.658 396.093 186.726 396.024 186.768C395.979 186.791 395.93 186.803 395.88 186.804Z" fill="#263238"/>
  <path d="M416.22 201.276C416.143 201.273 416.069 201.24 416.016 201.184C415.962 201.128 415.932 201.054 415.932 200.976C416.004 192.804 410.76 189.792 410.7 189.768C410.632 189.728 410.582 189.663 410.56 189.588C410.537 189.512 410.545 189.431 410.58 189.36C410.599 189.325 410.624 189.295 410.655 189.27C410.686 189.245 410.721 189.226 410.759 189.215C410.797 189.204 410.837 189.201 410.876 189.205C410.915 189.209 410.953 189.221 410.988 189.24C410.988 189.24 416.604 192.432 416.532 200.976C416.532 201.016 416.524 201.056 416.508 201.094C416.492 201.131 416.469 201.165 416.44 201.193C416.411 201.221 416.376 201.242 416.338 201.257C416.301 201.271 416.26 201.278 416.22 201.276Z" fill="#263238"/>
  <path d="M397.656 224.064L402.324 228.624C402.324 228.624 402.612 234.912 411.048 235.98C419.484 237.048 438.012 222.084 445.356 225.768L447.012 222.096L442.86 219.12C442.86 219.12 437.292 217.464 430.524 222.324C423.756 227.184 411.576 238.944 403.716 228.324L406.116 224.004L405.6 222.744L403.752 224.64L400.272 225.36L399.252 223.104L397.656 224.064Z" fill="#7749F8"/>
  <path d="M406.872 213.432C407.196 214.836 407.1 217.728 402.588 221.172L401.268 223.572L400.068 221.508C397.668 220.5 398.616 216.372 397.74 216.648L393.6 221.82C394.198 224.391 395.021 226.905 396.06 229.332L400.032 223.464L401.304 224.58L402.768 222.768L407.568 225.768C407.568 225.768 413.448 219.828 412.812 214.056L407.46 212.784C407.374 212.772 407.287 212.781 407.206 212.81C407.125 212.839 407.052 212.888 406.994 212.952C406.936 213.016 406.894 213.093 406.873 213.177C406.852 213.26 406.851 213.348 406.872 213.432Z" fill="#263238"/>
  <path opacity="0.2" d="M406.872 213.432C407.196 214.836 407.1 217.728 402.588 221.172L401.268 223.572L400.068 221.508C397.668 220.5 398.616 216.372 397.74 216.648L393.6 221.82C394.198 224.391 395.021 226.905 396.06 229.332L400.032 223.464L401.304 224.58L402.768 222.768L407.568 225.768C407.568 225.768 413.448 219.828 412.812 214.056L407.46 212.784C407.374 212.772 407.287 212.781 407.206 212.81C407.125 212.839 407.052 212.888 406.994 212.952C406.936 213.016 406.894 213.093 406.873 213.177C406.852 213.26 406.851 213.348 406.872 213.432Z" fill="white"/>
  <path d="M402.324 261.984L408.924 268.368L406.92 269.352L400.224 263.868L402.324 261.984Z" fill="#263238"/>
  <path opacity="0.2" d="M402.324 261.984L408.924 268.368L406.92 269.352L400.224 263.868L402.324 261.984Z" fill="white"/>
  <path d="M351.408 246.66L352.416 255.132L350.22 254.7L348.216 247.488L351.408 246.66Z" fill="#263238"/>
  <path opacity="0.2" d="M351.408 246.66L352.416 255.132L350.22 254.7L348.216 247.488L351.408 246.66Z" fill="white"/>
  <path d="M380.796 89.1719V158.004C379.096 159.407 377.263 160.641 375.324 161.688C362.124 168.828 348.924 163.56 335.724 158.16C320.46 151.92 305.184 145.512 289.92 158.004V89.1719C303.12 78.3719 316.188 81.6599 329.328 86.7719C344.22 92.5439 359.124 100.704 374.016 93.5159C376.444 92.3488 378.721 90.8901 380.796 89.1719Z" fill="#7749F8"/>
  <path d="M290.124 200.964C289.621 200.964 289.139 200.764 288.783 200.409C288.428 200.053 288.228 199.571 288.228 199.068V85.872C288.228 85.368 288.427 84.8845 288.783 84.5271C289.138 84.1696 289.62 83.9672 290.124 83.964C290.628 83.9672 291.11 84.1696 291.465 84.5271C291.821 84.8845 292.02 85.368 292.02 85.872V199.068C292.02 199.571 291.82 200.053 291.465 200.409C291.109 200.764 290.627 200.964 290.124 200.964Z" fill="#2E353A"/>
  <path opacity="0.2" d="M375.324 161.688C362.124 168.828 348.924 163.56 335.724 158.16C330.984 151.128 337.044 138.804 335.328 123.588C333.504 107.28 325.728 95.4359 329.328 86.7599C344.22 92.5319 359.124 100.692 374.016 93.5039C367.752 121.2 378.264 120.9 375.324 161.688Z" fill="black"/>
  <path d="M468 408.084C468 408.084 463.584 407.844 463.14 395.772C462.696 383.7 470.484 380.472 476.472 381.948C476.472 381.948 475.596 373.356 479.472 373.668C483.348 373.98 483.072 379.728 483.072 379.728C483.072 379.728 484.392 367.536 489.684 367.536C494.976 367.536 489.684 381.936 489.684 381.936C489.684 381.936 497.016 378.42 499.704 381.936C502.392 385.452 496.332 389.58 496.332 389.58C496.332 389.58 505.836 392.676 501.864 402.528C501.864 402.528 508.488 403.56 510.336 407.964C510.336 407.964 509.808 399.072 512.184 399.672C514.56 400.272 514.044 408.072 514.044 408.072C514.044 408.072 518.016 399.492 521.46 402.528C524.904 405.564 519.864 412.812 519.864 412.812C519.864 412.812 526.488 409.608 527.544 413.856C528.6 418.104 523.836 419.712 523.836 419.712C523.836 419.712 530.724 418.116 530.724 426.012C530.724 426.012 543.924 424.812 547.14 431.844H468.252L468 408.084Z" fill="#263238"/>
  <path opacity="0.3" d="M468 408.084C468 408.084 463.584 407.844 463.14 395.772C462.696 383.7 470.484 380.472 476.472 381.948C476.472 381.948 475.596 373.356 479.472 373.668C483.348 373.98 483.072 379.728 483.072 379.728C483.072 379.728 484.392 367.536 489.684 367.536C494.976 367.536 489.684 381.936 489.684 381.936C489.684 381.936 497.016 378.42 499.704 381.936C502.392 385.452 496.332 389.58 496.332 389.58C496.332 389.58 505.836 392.676 501.864 402.528C501.864 402.528 508.488 403.56 510.336 407.964C510.336 407.964 509.808 399.072 512.184 399.672C514.56 400.272 514.044 408.072 514.044 408.072C514.044 408.072 518.016 399.492 521.46 402.528C524.904 405.564 519.864 412.812 519.864 412.812C519.864 412.812 526.488 409.608 527.544 413.856C528.6 418.104 523.836 419.712 523.836 419.712C523.836 419.712 530.724 418.116 530.724 426.012C530.724 426.012 543.924 424.812 547.14 431.844H468.252L468 408.084Z" fill="white"/>
  <path d="M500.136 431.856L461.34 336.816H436.188L416.376 299.652L367.752 289.62L346.128 254.136H320.916L310.104 178.296L274.98 180.036L263.28 226.608L239.856 228.504L208.284 319.272L174.264 329.664L150.696 369.96L118.008 372.78L92.16 431.856H500.136Z" fill="#2E353A"/>
  <path opacity="0.4" d="M500.136 431.856L461.34 336.816H436.188L416.376 299.652L367.752 289.62L346.128 254.136H320.916L310.104 178.296L274.98 180.036L263.28 226.608L239.856 228.504L208.284 319.272L174.264 329.664L150.696 369.96L118.008 372.78L92.16 431.856H500.136Z" fill="white"/>
  <path opacity="0.2" d="M239.856 228.504L274.98 237.36L283.392 332.592L312.816 340.26L324.072 431.856H282.192L264.18 332.592L208.284 319.272L239.856 228.504Z" fill="white"/>
  <path opacity="0.2" d="M174.264 329.664L249.768 334.956L253.368 431.856H213.228L203.34 376.26L178.32 373.416L163.908 412.488V373.416L150.696 369.96L174.264 329.664Z" fill="white"/>
  <path opacity="0.2" d="M118.008 372.78L150.696 379.116L153.708 431.856H92.16L118.008 372.78Z" fill="white"/>
  <path opacity="0.2" d="M274.98 180.036V228.504L287.592 234L291.792 325.98L312.816 329.664L308.004 254.856L320.916 254.136L310.104 178.296L274.98 180.036Z" fill="white"/>
  <path opacity="0.2" d="M346.128 254.136L320.916 264.576L324.072 329.664L365.64 338.004L354.84 296.076L367.752 289.62L346.128 254.136Z" fill="white"/>
  <path opacity="0.2" d="M416.376 299.652L367.752 305.076L377.388 338.004L413.076 348.384L430.704 431.856L420.468 356.94L436.188 336.816L416.376 299.652Z" fill="white"/>
  <path opacity="0.2" d="M402 351.24C401.1 350.664 359.676 345.54 359.676 345.54L329.052 349.98V431.856H420.504L402 351.24Z" fill="white"/>
  <path opacity="0.2" d="M197.532 381.96L178.62 379.74L166.008 431.856H202.032L197.532 381.96Z" fill="white"/>
  <path opacity="0.2" d="M461.34 336.816L430.704 356.94L440.1 431.856H500.136L461.34 336.816Z" fill="white"/>
  <path d="M83.724 431.856H111.396C112.238 431.003 113.005 430.08 113.688 429.096C113.688 429.096 104.004 393.588 96.132 382.296C88.26 371.004 100.932 407.712 100.932 407.712C100.932 407.712 89.856 384.384 86.4 385.128C83.424 385.764 94.008 404.544 97.008 409.752C94.368 405.3 85.692 391.416 81.528 394.152C76.572 397.452 95.928 418.212 95.928 418.212C95.928 418.212 78.528 405.168 76.728 408.804C74.928 412.44 93.528 424.02 93.528 424.02C93.528 424.02 75.828 420.42 73.98 426.672C73.104 430.176 78.612 431.424 83.724 431.856Z" fill="#7749F8"/>
  <path opacity="0.2" d="M83.724 431.856H111.396C112.238 431.003 113.005 430.08 113.688 429.096C113.688 429.096 104.004 393.588 96.132 382.296C88.26 371.004 100.932 407.712 100.932 407.712C100.932 407.712 89.856 384.384 86.4 385.128C83.424 385.764 94.008 404.544 97.008 409.752C94.368 405.3 85.692 391.416 81.528 394.152C76.572 397.452 95.928 418.212 95.928 418.212C95.928 418.212 78.528 405.168 76.728 408.804C74.928 412.44 93.528 424.02 93.528 424.02C93.528 424.02 75.828 420.42 73.98 426.672C73.104 430.176 78.612 431.424 83.724 431.856Z" fill="white"/>
  <path d="M113.256 426.504C113.149 426.505 113.044 426.478 112.951 426.426C112.858 426.373 112.781 426.296 112.728 426.204C112.536 425.844 92.832 390.372 70.884 379.716C70.813 379.681 70.7495 379.633 70.6972 379.574C70.6448 379.515 70.6047 379.446 70.5791 379.371C70.5534 379.297 70.5428 379.218 70.5477 379.139C70.5527 379.06 70.5732 378.983 70.608 378.912C70.6802 378.771 70.8043 378.663 70.9543 378.612C71.1042 378.56 71.2683 378.569 71.412 378.636C93.696 389.436 113.58 425.256 113.784 425.616C113.858 425.757 113.874 425.92 113.829 426.072C113.784 426.225 113.682 426.354 113.544 426.432C113.455 426.478 113.356 426.503 113.256 426.504Z" fill="#7749F8"/>
  <path d="M68.94 379.92C69.0873 380.356 69.3606 380.739 69.7253 381.019C70.09 381.3 70.5298 381.467 70.989 381.498C71.4482 381.528 71.9063 381.423 72.3054 381.193C72.7045 380.964 73.0266 380.621 73.2311 380.209C73.4356 379.797 73.5133 379.333 73.4543 378.877C73.3954 378.42 73.2024 377.991 72.8999 377.645C72.5973 377.298 72.1987 377.048 71.7545 376.928C71.3103 376.807 70.8403 376.821 70.404 376.968C70.1139 377.066 69.8458 377.219 69.6152 377.42C69.3846 377.622 69.1959 377.866 69.0599 378.14C68.9239 378.415 68.8433 378.713 68.8228 379.018C68.8022 379.324 68.842 379.63 68.94 379.92Z" fill="#7749F8"/>
  <path d="M82.032 395.34C82.1155 395.588 82.2471 395.818 82.4192 396.015C82.5914 396.212 82.8007 396.374 83.0353 396.49C83.2698 396.607 83.525 396.676 83.7863 396.694C84.0476 396.711 84.3098 396.677 84.558 396.594C84.8062 396.51 85.0355 396.379 85.2329 396.207C85.4302 396.035 85.5917 395.825 85.7082 395.591C85.8246 395.356 85.8937 395.101 85.9115 394.84C85.9293 394.578 85.8955 394.316 85.812 394.068C85.6433 393.567 85.2824 393.153 84.8087 392.918C84.335 392.683 83.7873 392.645 83.286 392.814C82.7847 392.983 82.371 393.344 82.1358 393.817C81.9007 394.291 81.8633 394.839 82.032 395.34Z" fill="#7749F8"/>
  <path d="M88.56 387.036C88.6888 387.41 88.9261 387.737 89.2415 387.976C89.557 388.214 89.9363 388.354 90.3312 388.376C90.7261 388.398 91.1187 388.302 91.459 388.101C91.7993 387.899 92.0718 387.601 92.2419 387.243C92.4119 386.886 92.4718 386.487 92.4139 386.095C92.356 385.704 92.1829 385.339 91.9167 385.046C91.6505 384.754 91.3032 384.547 90.9191 384.453C90.5351 384.358 90.1315 384.38 89.76 384.516C89.2697 384.695 88.8693 385.059 88.6449 385.531C88.4204 386.002 88.39 386.542 88.56 387.036Z" fill="#7749F8"/>
  <path d="M86.856 401.34C86.9825 401.712 87.2165 402.039 87.5284 402.279C87.8403 402.518 88.2161 402.66 88.6085 402.687C89.001 402.713 89.3924 402.623 89.7335 402.427C90.0747 402.231 90.3502 401.939 90.5254 401.586C90.7007 401.234 90.7677 400.838 90.7182 400.448C90.6686 400.058 90.5047 399.691 90.247 399.394C89.9893 399.097 89.6495 398.883 89.2702 398.778C88.891 398.674 88.4894 398.684 88.116 398.808C87.6157 398.98 87.2032 399.342 86.9675 399.816C86.7318 400.29 86.6917 400.837 86.856 401.34Z" fill="#7749F8"/>
  <path d="M97.3018 396.906C98.2917 396.426 98.7051 395.235 98.225 394.245C97.745 393.255 96.5534 392.842 95.5635 393.322C94.5736 393.802 94.1602 394.993 94.6403 395.983C95.1203 396.973 96.3119 397.386 97.3018 396.906Z" fill="#7749F8"/>
  <path d="M78.516 379.2C78.6449 379.574 78.8821 379.901 79.1976 380.14C79.513 380.378 79.8923 380.518 80.2872 380.54C80.6822 380.562 81.0748 380.466 81.415 380.265C81.7553 380.063 82.0278 379.765 82.1979 379.407C82.3679 379.05 82.4278 378.651 82.3699 378.259C82.312 377.868 82.1389 377.503 81.8727 377.21C81.6065 376.918 81.2592 376.711 80.8752 376.617C80.4911 376.522 80.0875 376.544 79.716 376.68C79.2276 376.862 78.8292 377.226 78.6052 377.697C78.3812 378.167 78.3492 378.706 78.516 379.2Z" fill="#7749F8"/>
  <path d="M74.256 389.016C74.1069 389.014 73.9641 388.956 73.8554 388.854C73.7467 388.752 73.6799 388.613 73.668 388.464C73.6597 388.386 73.6673 388.307 73.6901 388.232C73.713 388.156 73.7507 388.086 73.801 388.026C73.8514 387.965 73.9133 387.916 73.9832 387.88C74.0532 387.844 74.1296 387.822 74.208 387.816L82.608 387.12L79.776 378.72C79.7508 378.641 79.7413 378.558 79.7482 378.476C79.7551 378.393 79.7781 378.313 79.816 378.24C79.8925 378.091 80.0249 377.979 80.184 377.928C80.3431 377.877 80.516 377.891 80.6645 377.968C80.813 378.045 80.9251 378.177 80.976 378.336L84.3 388.2L74.316 389.028L74.256 389.016Z" fill="#7749F8"/>
  <path d="M84 395.676C83.8409 395.684 83.6851 395.628 83.5669 395.521C83.4488 395.415 83.378 395.265 83.37 395.106C83.362 394.947 83.4176 394.791 83.5245 394.673C83.6314 394.555 83.7809 394.484 83.94 394.476L89.784 393.864V386.4C89.784 386.241 89.8472 386.088 89.9597 385.976C90.0723 385.863 90.2249 385.8 90.384 385.8C90.4637 385.797 90.5432 385.81 90.6176 385.839C90.6919 385.868 90.7594 385.912 90.8158 385.968C90.8722 386.025 90.9163 386.092 90.9452 386.166C90.9742 386.241 90.9874 386.32 90.984 386.4V394.944L84.06 395.676H84Z" fill="#7749F8"/>
  <path d="M96.912 401.796L88.716 401.292C88.6372 401.287 88.5601 401.267 88.4891 401.233C88.4181 401.198 88.3547 401.15 88.3023 401.091C88.2499 401.032 88.2097 400.963 88.1839 400.888C88.1581 400.814 88.1473 400.735 88.152 400.656C88.1567 400.577 88.1769 400.5 88.2115 400.429C88.246 400.358 88.2941 400.295 88.3532 400.242C88.4123 400.19 88.481 400.15 88.5556 400.124C88.6302 400.098 88.7092 400.087 88.788 400.092L95.736 400.512L95.856 395.064C95.8622 394.906 95.9294 394.756 96.0435 394.647C96.1576 394.537 96.3098 394.476 96.468 394.476C96.5468 394.478 96.6245 394.495 96.6967 394.526C96.7689 394.558 96.8342 394.603 96.8888 394.66C96.9434 394.717 96.9863 394.784 97.015 394.857C97.0436 394.931 97.0576 395.009 97.056 395.088L96.912 401.796Z" fill="#7749F8"/>
  <path d="M72 389.1C72.1288 389.474 72.3661 389.801 72.6815 390.04C72.997 390.278 73.3763 390.418 73.7712 390.44C74.1661 390.462 74.5587 390.366 74.899 390.165C75.2393 389.963 75.5118 389.665 75.6819 389.308C75.8519 388.95 75.9118 388.551 75.8539 388.159C75.796 387.768 75.6229 387.403 75.3567 387.11C75.0905 386.818 74.7432 386.611 74.3591 386.517C73.9751 386.422 73.5715 386.444 73.2 386.58C72.7097 386.759 72.3093 387.123 72.0849 387.595C71.8604 388.066 71.83 388.606 72 389.1Z" fill="#7749F8"/>
  <path d="M99.348 431.856C99.1936 431.424 99.0653 430.983 98.964 430.536C98.964 430.536 91.2 430.836 90.564 428.592C89.928 426.348 98.964 424.008 98.964 424.008C98.964 424.008 87.9 418.332 90.096 415.692C92.292 413.052 100.8 418.344 100.8 418.344C100.8 418.344 90.864 406.8 93.276 404.4C95.688 402 104.076 412.464 104.076 412.464C104.076 412.464 95.844 395.016 99 394.32C102.156 393.624 109.2 411.12 109.2 411.12C109.2 411.12 106.044 388.08 109.2 387.684C112.356 387.288 114 413.652 114 413.652C114 413.652 115.2 388.74 117.732 390.12C120.264 391.5 117.732 417.516 117.732 417.516C117.732 417.516 122.46 395.328 125.04 397.836C127.62 400.344 120.468 423.204 120.468 423.204C120.468 423.204 124.44 413.1 126.312 416.232C127.512 418.248 124.092 426.372 121.512 431.892L99.348 431.856Z" fill="#7749F8"/>
  <path opacity="0.4" d="M99.348 431.856C99.1936 431.424 99.0653 430.983 98.964 430.536C98.964 430.536 91.2 430.836 90.564 428.592C89.928 426.348 98.964 424.008 98.964 424.008C98.964 424.008 87.9 418.332 90.096 415.692C92.292 413.052 100.8 418.344 100.8 418.344C100.8 418.344 90.864 406.8 93.276 404.4C95.688 402 104.076 412.464 104.076 412.464C104.076 412.464 95.844 395.016 99 394.32C102.156 393.624 109.2 411.12 109.2 411.12C109.2 411.12 106.044 388.08 109.2 387.684C112.356 387.288 114 413.652 114 413.652C114 413.652 115.2 388.74 117.732 390.12C120.264 391.5 117.732 417.516 117.732 417.516C117.732 417.516 122.46 395.328 125.04 397.836C127.62 400.344 120.468 423.204 120.468 423.204C120.468 423.204 124.44 413.1 126.312 416.232C127.512 418.248 124.092 426.372 121.512 431.892L99.348 431.856Z" fill="white"/>
  <path d="M495.6 431.328C495.6 431.328 501.42 417.12 500.472 414.192C499.524 411.264 495.132 421.668 495.132 421.668C495.132 421.668 497.532 397.332 493.716 395.7C489.9 394.068 490.944 416.568 490.944 416.568C490.944 416.568 484.836 382.968 479.016 383.58C473.196 384.192 486.12 416.976 486.12 416.976C486.12 416.976 478.008 401.784 474.18 403.704C470.352 405.624 483.048 420.936 483.048 420.936C483.048 420.936 476.52 416.568 475.608 418.944C474.696 421.32 487.968 429.912 495.6 431.328Z" fill="#263238"/>
  <path opacity="0.2" d="M495.6 431.328C495.6 431.328 501.42 417.12 500.472 414.192C499.524 411.264 495.132 421.668 495.132 421.668C495.132 421.668 497.532 397.332 493.716 395.7C489.9 394.068 490.944 416.568 490.944 416.568C490.944 416.568 484.836 382.968 479.016 383.58C473.196 384.192 486.12 416.976 486.12 416.976C486.12 416.976 478.008 401.784 474.18 403.704C470.352 405.624 483.048 420.936 483.048 420.936C483.048 420.936 476.52 416.568 475.608 418.944C474.696 421.32 487.968 429.912 495.6 431.328Z" fill="white"/>
  <path d="M495.6 431.328C495.6 431.328 509.532 432.66 511.536 431.1C513.54 429.54 504.24 429.072 504.24 429.072C504.24 429.072 523.752 424.08 523.92 420.672C524.088 417.264 507 424.428 507 424.428C507 424.428 531.3 410.196 529.152 405.888C527.004 401.58 505.332 420.804 505.332 420.804C505.332 420.804 514.788 410.244 512.22 407.82C509.652 405.396 501.42 419.544 501.42 419.544C501.42 419.544 502.956 413.268 500.856 413.232C498.756 413.196 494.568 424.992 495.6 431.328Z" fill="#263238"/>
  <path opacity="0.2" d="M495.6 431.328C495.6 431.328 509.532 432.66 511.536 431.1C513.54 429.54 504.24 429.072 504.24 429.072C504.24 429.072 523.752 424.08 523.92 420.672C524.088 417.264 507 424.428 507 424.428C507 424.428 531.3 410.196 529.152 405.888C527.004 401.58 505.332 420.804 505.332 420.804C505.332 420.804 514.788 410.244 512.22 407.82C509.652 405.396 501.42 419.544 501.42 419.544C501.42 419.544 502.956 413.268 500.856 413.232C498.756 413.196 494.568 424.992 495.6 431.328Z" fill="white"/>
  <path d="M495.6 431.328C495.6 431.328 514.5 421.356 515.508 418.128C516.516 414.9 505.908 421.488 505.908 421.488C505.908 421.488 523.632 401.004 521.184 397.08C518.736 393.156 505.368 414.204 505.368 414.204C505.368 414.204 521.304 379.848 515.616 376.728C509.928 373.608 500.748 411.528 500.748 411.528C500.748 411.528 503.088 392.592 498.348 391.896C493.608 391.2 495.384 413.148 495.384 413.148C495.384 413.148 492.264 405.036 489.924 406.608C487.584 408.18 489.6 425.148 495.6 431.328Z" fill="#263238"/>
  <path opacity="0.4" d="M495.6 431.328C495.6 431.328 514.5 421.356 515.508 418.128C516.516 414.9 505.908 421.488 505.908 421.488C505.908 421.488 523.632 401.004 521.184 397.08C518.736 393.156 505.368 414.204 505.368 414.204C505.368 414.204 521.304 379.848 515.616 376.728C509.928 373.608 500.748 411.528 500.748 411.528C500.748 411.528 503.088 392.592 498.348 391.896C493.608 391.2 495.384 413.148 495.384 413.148C495.384 413.148 492.264 405.036 489.924 406.608C487.584 408.18 489.6 425.148 495.6 431.328Z" fill="white"/>
  <path d="M286.368 332.148L317.88 338.4L320.916 364.8L322.98 337.392L329.208 332.196C329.208 332.196 320.676 319.14 317.04 320.796C312.312 322.956 308.808 311.124 303.564 313.932C301.716 314.916 302.628 318.072 301.464 319.356C299.544 321.456 297.096 321.048 294.78 322.2C290.232 324.42 288.612 327.42 286.368 332.148Z" fill="#263238"/>
  <path d="M324.528 328.5C324.528 328.5 321.72 312.18 323.664 309.792C325.608 307.404 325.944 318.696 325.944 318.696C325.944 318.696 332.472 295.116 336.648 294.996C340.824 294.876 331.68 315.396 331.68 315.396C331.68 315.396 349.536 286.236 354.72 288.996C359.904 291.756 336 317.568 336 317.568C336 317.568 349.056 306.336 351.936 309.504C354.816 312.672 337.44 322.38 337.44 322.38C337.44 322.38 345.096 320.652 345.096 323.208C345.096 325.764 332.196 330 324.528 328.5Z" fill="#7749F8"/>
  <path opacity="0.2" d="M324.528 328.5C324.528 328.5 321.72 312.18 323.664 309.792C325.608 307.404 325.944 318.696 325.944 318.696C325.944 318.696 332.472 295.116 336.648 294.996C340.824 294.876 331.68 315.396 331.68 315.396C331.68 315.396 349.536 286.236 354.72 288.996C359.904 291.756 336 317.568 336 317.568C336 317.568 349.056 306.336 351.936 309.504C354.816 312.672 337.44 322.38 337.44 322.38C337.44 322.38 345.096 320.652 345.096 323.208C345.096 325.764 332.196 330 324.528 328.5Z" fill="white"/>
  <path d="M321.96 326.172C321.96 326.172 308.544 323.772 307.248 321.564C305.952 319.356 314.772 322.308 314.772 322.308C314.772 322.308 298.38 310.608 299.472 307.344C300.564 304.08 313.872 316.944 313.872 316.944C313.872 316.944 296.352 294.9 299.916 291.66C303.48 288.42 316.716 314.172 316.716 314.172C316.716 314.172 311.712 300.9 314.976 299.58C318.24 298.26 320.88 314.4 320.88 314.4C320.88 314.4 321.708 307.98 323.676 308.712C325.644 309.444 325.2 320.652 321.96 326.172Z" fill="#7749F8"/>
  <path opacity="0.2" d="M321.96 326.172C321.96 326.172 308.544 323.772 307.248 321.564C305.952 319.356 314.772 322.308 314.772 322.308C314.772 322.308 298.38 310.608 299.472 307.344C300.564 304.08 313.872 316.944 313.872 316.944C313.872 316.944 296.352 294.9 299.916 291.66C303.48 288.42 316.716 314.172 316.716 314.172C316.716 314.172 311.712 300.9 314.976 299.58C318.24 298.26 320.88 314.4 320.88 314.4C320.88 314.4 321.708 307.98 323.676 308.712C325.644 309.444 325.2 320.652 321.96 326.172Z" fill="white"/>
  <path d="M320.952 324.384C320.952 324.384 308.004 311.412 308.232 308.004C308.46 304.596 315.972 314.616 315.972 314.616C315.972 314.616 306.84 289.104 310.548 286.332C314.256 283.56 319.104 308.004 319.104 308.004C319.104 308.004 316.704 270.216 323.076 269.376C329.448 268.536 324.396 307.152 324.396 307.152C324.396 307.152 329.052 288.66 333.672 289.692C338.292 290.724 328.8 310.584 328.8 310.584C328.8 310.584 334.632 304.14 336.252 306.456C337.872 308.772 328.8 320.808 320.952 324.384Z" fill="#7749F8"/>
  <path opacity="0.4" d="M320.952 324.384C320.952 324.384 308.004 311.412 308.232 308.004C308.46 304.596 315.972 314.616 315.972 314.616C315.972 314.616 306.84 289.104 310.548 286.332C314.256 283.56 319.104 308.004 319.104 308.004C319.104 308.004 316.704 270.216 323.076 269.376C329.448 268.536 324.396 307.152 324.396 307.152C324.396 307.152 329.052 288.66 333.672 289.692C338.292 290.724 328.8 310.584 328.8 310.584C328.8 310.584 334.632 304.14 336.252 306.456C337.872 308.772 328.8 320.808 320.952 324.384Z" fill="white"/>
  <path d="M307.788 336.432L322.98 339.36L344.328 336.816C344.328 336.816 334.344 324.696 331.452 326.016C327.672 327.732 324.888 318.312 320.712 320.544C319.236 321.336 319.956 323.856 319.032 324.864C317.496 326.544 315.552 326.22 313.704 327.144C310.08 328.944 309.6 332.664 307.788 336.432Z" fill="#263238"/>
  <path opacity="0.2" d="M307.788 336.432L317.88 338.4L320.916 364.8L322.98 339.408L344.328 336.864C344.328 336.864 334.344 324.744 331.452 326.064C327.672 327.78 324.888 318.36 320.712 320.592C319.236 321.384 319.956 323.904 319.032 324.912C317.496 326.592 315.552 326.268 313.704 327.192C310.08 328.944 309.6 332.664 307.788 336.432Z" fill="white"/>
  <path d="M200.4 231.168L204.972 235.488L208.248 236.172L212.94 240.612C212.94 240.612 210.732 243.912 208.44 243.012C206.148 242.112 203.64 238.452 203.64 238.452L198 233.652L200.4 231.168Z" fill="#EBB376"/>
  <path d="M203.784 233.724L201.072 237.036C201.072 237.036 198.588 234.924 195.444 231.996C190.644 227.532 184.26 221.196 182.784 217.596C180.384 211.596 182.424 193.524 182.424 193.524L193.116 193.464C192.78 200.208 188.244 208.272 188.076 213.492C187.98 216.708 193.98 223.656 198.6 228.504C201.456 231.516 203.784 233.724 203.784 233.724Z" fill="#7749F8"/>
  <path d="M203.412 231.6L204.936 233.964L201.42 237.672L198.828 236.436L203.412 231.6Z" fill="#7749F8"/>
  <path opacity="0.6" d="M203.412 231.6L204.936 233.964L201.42 237.672L198.828 236.436L203.412 231.6Z" fill="white"/>
  <path opacity="0.2" d="M198.6 228.504C197.675 229.777 196.617 230.947 195.444 231.996C190.644 227.532 184.26 221.196 182.784 217.596C180.384 211.596 182.424 193.524 182.424 193.524L193.116 193.464C192.78 200.208 188.244 208.272 188.076 213.492C187.98 216.708 193.98 223.656 198.6 228.504Z" fill="black"/>
  <path d="M243.6 225.828H249.888L252.744 224.076H259.2C259.2 224.076 259.86 227.988 257.604 228.936C255.348 229.884 250.956 228.936 250.956 228.936L243.6 229.356V225.828Z" fill="#EBB376"/>
  <path d="M213.096 324.468C212.39 323.688 211.548 323.041 210.612 322.56C210.612 322.56 208.104 319.176 208.032 310.116L204.324 308.508C203.691 308.244 202.991 308.182 202.321 308.33C201.651 308.479 201.043 308.83 200.58 309.336C200.451 309.476 200.342 309.634 200.256 309.804C199.909 310.72 199.624 311.658 199.404 312.612C198.689 315.814 198.168 319.056 197.844 322.32L198.552 322.428L199.752 316.368C200.172 314.316 201.384 316.992 201.492 319.284C201.6 321.576 202.2 324.084 206.724 324.912C212.004 325.836 214.236 325.968 213.096 324.468Z" fill="#263238"/>
  <path d="M208.98 295.356L202.176 308.076C202.176 308.076 204.912 322.476 210.576 322.56L207.792 308.952L215.472 298.02L208.98 295.356Z" fill="#EBB376"/>
  <path d="M141.78 377.148C141.143 376.312 140.358 375.6 139.464 375.048C139.464 375.048 137.244 371.448 137.94 362.424L134.34 360.504C133.731 360.192 133.041 360.075 132.363 360.167C131.685 360.259 131.052 360.557 130.548 361.02C130.402 361.148 130.276 361.298 130.176 361.464C129.758 362.348 129.398 363.258 129.096 364.188C128.099 367.315 127.298 370.501 126.696 373.728L127.38 373.896L129.108 367.968C129.696 365.952 130.68 368.712 130.596 371.016C130.512 373.32 130.896 375.876 135.324 377.016C140.58 378.42 142.8 378.744 141.78 377.148Z" fill="#263238"/>
  <path d="M135.852 345.084L132.252 359.904C132.252 359.904 133.764 374.532 139.452 375.048L137.832 361.2L142.14 348.24L135.852 345.084Z" fill="#EBB376"/>
  <path d="M212.868 208.056C210.295 209.301 207.806 210.712 205.416 212.28C203.688 213.384 201.816 214.68 199.764 216.252C193.887 220.634 188.785 225.967 184.668 232.032L161.484 221.496C164.242 215.475 167.452 209.67 171.084 204.132C172.284 202.272 173.628 200.424 175.02 198.66L175.128 198.516C178.254 194.593 182.716 191.959 187.661 191.118C192.607 190.277 197.689 191.287 201.936 193.956C203.377 194.869 204.77 195.855 206.112 196.908C216.156 204.852 212.868 208.056 212.868 208.056Z" fill="#7749F8"/>
  <path d="M212.196 305.46L204.432 303.192C204.432 303.192 222.096 269.196 219.204 265.992C216.012 262.392 178.404 264.372 178.404 264.372C175.944 270.372 173.232 277.032 170.424 283.86C156.876 316.8 141.108 354.6 141.108 354.6L133.728 352.764L154.128 256.956C150.864 239.328 161.328 221.556 161.328 221.556L187.224 229.152L186.948 234.468C186.948 234.468 234.768 242.58 235.128 261.264C235.452 270 212.196 305.46 212.196 305.46Z" fill="#263238"/>
  <path opacity="0.2" d="M178.452 264.324C175.992 270.324 173.28 276.984 170.472 283.812C169.382 276.489 166.703 269.494 162.624 263.316C160.757 261.149 158.753 259.105 156.624 257.196C161.244 258.996 164.184 257.088 164.184 257.088C160.092 248.184 163.272 238.944 163.272 238.944C163.44 258.216 178.452 264.324 178.452 264.324Z" fill="black"/>
  <path d="M164.544 225.948L178.176 229.836L178.812 227.328L165.456 223.26L164.544 225.948Z" fill="black"/>
  <path d="M164.544 222.972L161.016 221.904L159.516 224.52L163.44 225.636L164.544 222.972Z" fill="black"/>
  <path d="M179.676 227.592L179.28 230.148L187.344 232.452L187.716 230.04L179.676 227.592Z" fill="black"/>
  <path d="M212.4 203.448C216.804 208.584 219.048 217.56 222.504 221.448C225.96 225.336 247.824 225.348 247.824 225.348L248.124 229.608C248.124 229.608 227.34 230.7 221.484 228.06C215.628 225.42 204.684 210.828 204.684 210.828L212.4 203.448Z" fill="#7749F8"/>
  <path d="M246.072 224.076L248.796 224.736V229.848L246.072 230.736V224.076Z" fill="#7749F8"/>
  <path opacity="0.6" d="M246.072 224.076L248.796 224.736V229.848L246.072 230.736V224.076Z" fill="white"/>
  <path opacity="0.2" d="M205.452 212.136V212.28C203.724 213.384 201.852 214.68 199.8 216.252C199.55 214.004 199.954 211.732 200.963 209.708C201.972 207.684 203.543 205.994 205.488 204.84C204.763 207.216 204.751 209.753 205.452 212.136Z" fill="black"/>
  <path d="M218.604 182.796C218.604 183.348 218.46 183.804 218.172 183.84C217.884 183.876 217.62 183.432 217.572 182.892C217.524 182.352 217.716 181.884 218.004 181.86C218.292 181.836 218.556 182.256 218.604 182.796Z" fill="#263238"/>
  <path d="M217.884 181.896L218.76 181.344C218.76 181.344 218.4 182.4 217.884 181.896Z" fill="#263238"/>
  <path d="M217.428 184.32C217.927 185.335 218.548 186.286 219.276 187.152C219.071 187.422 218.796 187.629 218.48 187.752C218.165 187.875 217.821 187.908 217.488 187.848L217.428 184.32Z" fill="#D58745"/>
  <path d="M203.88 193.404L204.096 193.572C205.173 194.373 206.396 194.956 207.696 195.288C211.452 196.14 214.008 195.612 215.676 193.908C218.004 191.352 218.568 186.84 218.208 181.404C218.146 179.242 217.741 177.103 217.008 175.068C217.003 175.036 217.003 175.004 217.008 174.972C217.008 174.9 217.008 174.804 216.912 174.744C216.448 173.595 215.705 172.581 214.749 171.793C213.794 171.005 212.656 170.468 211.44 170.232C210.383 170.002 209.305 169.885 208.224 169.884C197.556 169.824 195.732 187.392 203.88 193.404Z" fill="#EBB376"/>
  <path opacity="0.2" d="M204.096 193.572C205.181 194.328 206.404 194.862 207.696 195.144C211.452 195.984 214.008 195.336 215.676 193.608C213.436 194.175 211.072 193.993 208.944 193.092C208.153 192.794 207.305 192.682 206.464 192.766C205.623 192.849 204.813 193.125 204.096 193.572Z" fill="black"/>
  <path d="M216.96 174.996C217.073 177.208 216.523 179.404 215.382 181.302C214.24 183.2 212.559 184.715 210.552 185.652C210.552 185.652 207.564 193.38 203.112 193.512C197.04 193.692 191.652 185.112 193.716 176.268C196.392 164.844 213.672 163.836 216.96 174.996Z" fill="#263238"/>
  <path d="M204 167.148C204 167.148 211.08 165.324 215.016 168.156C219.6 171.468 221.352 174.912 215.964 180.276C215.964 180.276 204.036 176.472 200.076 177.3C197.765 177.783 195.498 178.453 193.296 179.304C192.42 171.444 200.016 165.6 204 167.148Z" fill="#263238"/>
  <path d="M215.28 180C215.208 180.004 215.137 179.988 215.073 179.954C215.01 179.92 214.957 179.87 214.92 179.808C214.888 179.761 214.866 179.708 214.855 179.652C214.844 179.596 214.844 179.539 214.855 179.483C214.867 179.427 214.889 179.374 214.92 179.327C214.952 179.28 214.993 179.24 215.04 179.208C215.515 178.954 216.043 178.812 216.581 178.793C217.12 178.774 217.656 178.879 218.148 179.1C218.202 179.119 218.251 179.148 218.293 179.186C218.335 179.224 218.368 179.271 218.392 179.322C218.415 179.374 218.428 179.43 218.43 179.486C218.431 179.543 218.421 179.599 218.4 179.652C218.381 179.706 218.352 179.755 218.314 179.797C218.276 179.839 218.229 179.872 218.178 179.896C218.126 179.919 218.07 179.932 218.014 179.934C217.957 179.935 217.901 179.925 217.848 179.904C217.485 179.73 217.087 179.639 216.684 179.639C216.281 179.639 215.883 179.73 215.52 179.904C215.448 179.953 215.366 179.986 215.28 180Z" fill="#263238"/>
  <path d="M213.708 179.76C212.458 179.754 211.215 179.58 210.012 179.244C209.936 179.222 209.871 179.17 209.833 179.1C209.795 179.031 209.786 178.948 209.808 178.872C209.833 178.797 209.885 178.735 209.954 178.697C210.023 178.659 210.104 178.649 210.18 178.668C210.18 178.668 214.98 180.072 217.872 178.044C218.58 177.498 219.15 176.794 219.536 175.987C219.922 175.18 220.112 174.294 220.092 173.4C220.146 172.774 220.053 172.144 219.819 171.56C219.586 170.977 219.219 170.456 218.748 170.04C214.608 166.296 202.416 168.168 202.296 168.192C202.257 168.199 202.216 168.198 202.177 168.189C202.138 168.18 202.101 168.163 202.069 168.139C202.036 168.116 202.009 168.086 201.988 168.052C201.968 168.018 201.954 167.98 201.948 167.94C201.938 167.862 201.958 167.783 202.005 167.721C202.053 167.658 202.122 167.616 202.2 167.604C202.704 167.52 214.8 165.66 219.156 169.596C219.694 170.072 220.112 170.667 220.376 171.334C220.641 172.001 220.745 172.721 220.68 173.436C220.699 174.42 220.487 175.394 220.059 176.28C219.632 177.166 219.002 177.939 218.22 178.536C216.876 179.394 215.302 179.821 213.708 179.76Z" fill="#263238"/>
  <path d="M225.684 189.912C225.614 189.909 225.547 189.884 225.492 189.84C224.22 188.784 220.692 188.976 216.648 189.192C215.332 189.281 214.014 189.064 212.796 188.558C211.578 188.052 210.494 187.271 209.628 186.276C209.599 186.249 209.576 186.216 209.561 186.18C209.545 186.144 209.537 186.105 209.537 186.066C209.537 186.027 209.545 185.988 209.561 185.952C209.576 185.915 209.599 185.883 209.628 185.856C209.684 185.801 209.759 185.77 209.838 185.77C209.917 185.77 209.992 185.801 210.048 185.856C210.868 186.761 211.88 187.472 213.009 187.936C214.138 188.401 215.357 188.609 216.576 188.544C220.932 188.316 224.376 188.124 225.828 189.324C225.879 189.362 225.917 189.416 225.936 189.477C225.954 189.539 225.952 189.604 225.931 189.665C225.91 189.725 225.869 189.777 225.816 189.813C225.763 189.849 225.7 189.867 225.636 189.864L225.684 189.912Z" fill="#263238"/>
  <path d="M222.996 169.524C222.925 169.526 222.856 169.5 222.804 169.452C216.516 164.04 204.192 167.4 204.06 167.436C204.023 167.447 203.984 167.45 203.946 167.446C203.907 167.441 203.87 167.429 203.837 167.41C203.803 167.391 203.774 167.366 203.75 167.335C203.727 167.304 203.71 167.269 203.7 167.232C203.689 167.194 203.685 167.155 203.69 167.115C203.694 167.076 203.706 167.038 203.725 167.004C203.744 166.969 203.769 166.939 203.8 166.914C203.831 166.889 203.866 166.871 203.904 166.86C204.42 166.716 216.66 163.38 223.188 168.996C223.217 169.024 223.24 169.058 223.256 169.095C223.272 169.132 223.28 169.172 223.28 169.212C223.28 169.252 223.272 169.292 223.256 169.329C223.24 169.366 223.217 169.4 223.188 169.428C223.139 169.484 223.07 169.518 222.996 169.524Z" fill="#263238"/>
  <path d="M206.256 167.148C206.256 167.148 193.908 164.124 191.148 179.532C188.388 194.94 204.984 204.24 214.104 203.928C223.224 203.616 231.144 198.408 232.884 199.98C232.884 199.98 231.936 197.916 226.716 198.708C226.716 198.708 233.172 198.228 233.748 194.112C233.748 194.112 224.664 197.412 221.172 195.684L224.844 195.504C224.844 195.504 222.6 191.748 214.044 189.06C213.499 188.934 212.988 188.692 212.545 188.349C212.103 188.007 211.741 187.573 211.483 187.076C211.225 186.58 211.078 186.033 211.052 185.475C211.026 184.916 211.121 184.358 211.332 183.84L206.256 167.148Z" fill="#263238"/>
  <path d="M211.62 207.24C208.015 207.288 204.494 206.149 201.6 204C192.792 197.436 191.436 182.952 191.424 182.808C191.424 182.728 191.456 182.652 191.512 182.596C191.568 182.54 191.644 182.508 191.724 182.508C191.804 182.508 191.88 182.54 191.936 182.596C191.992 182.652 192.024 182.728 192.024 182.808C192.024 182.952 193.368 197.208 201.96 203.568C205.848 206.472 210.66 207.348 216.276 206.196C216.352 206.182 216.431 206.197 216.496 206.24C216.561 206.282 216.607 206.348 216.624 206.424C216.633 206.463 216.634 206.503 216.627 206.542C216.621 206.581 216.606 206.618 216.585 206.652C216.564 206.685 216.536 206.714 216.504 206.737C216.471 206.759 216.435 206.776 216.396 206.784C214.824 207.099 213.223 207.252 211.62 207.24Z" fill="#263238"/>
  <path d="M214.104 183.504C214.104 182.304 213.156 180.396 211.356 180.672C209.556 180.948 208.476 185.556 213.072 186.564C213.732 186.708 214.128 185.916 214.104 183.504Z" fill="#EBB376"/>
</svg>
