<?xml version="1.0" encoding="utf-8"?>
<svg xmlns='http://www.w3.org/2000/svg' width="320" height="98.67075356728789" viewBox="0 0 320 98.67075356728789" class="css-1j8o68f">
  <defs id="SvgjsDefs1383"></defs>
  <g id="SvgjsG1384" featurekey="symbolFeature-0" transform="matrix(1.0224948556195637,0,0,1.0224948556195637,-1.1247443655596971,-1.9427402012989938)" fill="#000000">
    <rect xmlns="http://www.w3.org/2000/svg" x="47.4" y="1.9" width="5.1" height="5.1"></rect>
    <rect xmlns="http://www.w3.org/2000/svg" x="47.4" y="93.3" width="5.1" height="5.1"></rect>
    <rect xmlns="http://www.w3.org/2000/svg" x="13.9" y="78.7" width="5.1" height="5.1"></rect>
    <rect xmlns="http://www.w3.org/2000/svg" x="79.5" y="78.7" width="5.1" height="5.1"></rect>
    <rect xmlns="http://www.w3.org/2000/svg" x="13.9" y="15.9" width="5.1" height="5.1"></rect>
    <rect xmlns="http://www.w3.org/2000/svg" x="79.5" y="15.9" width="5.1" height="5.1"></rect>
    <rect xmlns="http://www.w3.org/2000/svg" x="1.1" y="47.2" width="5.1" height="5.1"></rect>
    <rect xmlns="http://www.w3.org/2000/svg" x="93.8" y="47.2" width="5.1" height="5.1"></rect>
    <path xmlns="http://www.w3.org/2000/svg" d="M10.4,24.5c-3.8,5.8-6.2,12.2-7.1,19.1l-0.1,0.6h3l0.1-0.5c1-6.7,3.5-13.1,7.3-18.7l0.6-0.8h-3.5L10.4,24.5  z"></path>
    <path xmlns="http://www.w3.org/2000/svg" d="M6.1,55.8L6,55.3H3.1l0.1,0.6c0.9,7.1,3.2,13.6,7,19.6l0.2,0.2h3.5l-0.6-0.8C9.5,69.2,7,62.6,6.1,55.8z"></path>
    <path xmlns="http://www.w3.org/2000/svg" d="M93.7,43.8l0.1,0.5h3l-0.1-0.6c-1-6.9-3.4-13.3-7.1-19.1l-0.2-0.2h-3.5l0.6,0.8  C90.2,30.7,92.7,37.1,93.7,43.8z"></path>
    <path xmlns="http://www.w3.org/2000/svg" d="M93.9,55.3l-0.1,0.5c-0.9,6.8-3.4,13.5-7.2,19.1L86,75.7h3.5l0.2-0.2c3.8-5.9,6.2-12.5,7-19.6l0.1-0.6  L93.9,55.3L93.9,55.3z"></path>
    <path xmlns="http://www.w3.org/2000/svg" d="M74.1,13.2l0.1,0.1h5l-1.3-1C71.6,7.5,64,4.4,56.1,3.4l-0.6-0.1v3L56,6.4C62.5,7.3,68.6,9.5,74.1,13.2z"></path>
    <path xmlns="http://www.w3.org/2000/svg" d="M21.9,12.3l-1.3,1h5l0.1-0.1C31.3,9.5,37.4,7.3,44,6.4l0.5-0.1v-3l-0.6,0.1C35.9,4.4,28.3,7.5,21.9,12.3z"></path>
    <path xmlns="http://www.w3.org/2000/svg" d="M74.6,86.9c-5.6,3.7-12,6.2-18.7,7.1l-0.5,0.1v3L56,97c8.1-1.1,15.8-4.2,22.3-9.2l1.3-1L74.6,86.9  L74.6,86.9z"></path>
    <path xmlns="http://www.w3.org/2000/svg" d="M25.3,86.9l-0.2-0.1h-4.9l1.3,1c6.5,5,14.3,8.1,22.4,9.2l0.6,0.1v-3L44,94C37.3,93.1,30.8,90.6,25.3,86.9z"></path>
    <polygon xmlns="http://www.w3.org/2000/svg" points="36.7,59.6 24.3,49.6 36.8,40.6 39.7,44.7 32.6,49.8 39.8,55.7 "></polygon>
    <polygon xmlns="http://www.w3.org/2000/svg" points="63.2,59.6 60.1,55.7 67.3,49.8 60.2,44.7 63.1,40.6 75.6,49.6 "></polygon>
    <rect xmlns="http://www.w3.org/2000/svg" x="47.7" y="34" transform="matrix(0.9452 0.3264 -0.3264 0.9452 19.1192 -13.6479)" width="5" height="32.4"></rect>
  </g>
  <g id="SvgjsG1385" featurekey="nameFeature-0" transform="matrix(1.542257771150889,0,0,1.542257771150889,115.74337114025201,10.405358978640166)" fill="#000000">
    <path d="M16.24 11.440000000000001 c6.0532 0 9.08 2.3466 9.08 7.04 c0 2.6933 -1.2933 4.6932 -3.88 6 c1.76 0.50668 3.0733 1.3934 3.94 2.66 s1.3 2.7934 1.3 4.58 c0 2.56 -0.92668 4.58 -2.78 6.06 s-4.2868 2.22 -7.3 2.22 l-13.84 0 l0 -28.56 l13.48 0 z M15.44 23 c2.5333 0 3.8 -1.1333 3.8 -3.4 c0 -2.1867 -1.4133 -3.28 -4.24 -3.28 l-5.96 0 l0 6.68 l6.4 0 z M15.8 35.12 c3.0667 0 4.6 -1.2533 4.6 -3.76 c0 -2.72 -1.4933 -4.08 -4.48 -4.08 l-6.88 0 l0 7.84 l6.76 0 z M37.2 11.440000000000001 l0 23.28 l13.92 0 l0 5.28 l-20.2 0 l0 -28.56 l6.28 0 z M67.56 11.440000000000001 c3.04 0 5.44 0.82668 7.2 2.48 s2.64 3.88 2.64 6.68 c0 2.8267 -0.88 5.06 -2.64 6.7 s-4.1468 2.46 -7.16 2.46 l-6.68 0 l0 10.24 l-6.28 0 l0 -28.56 l12.92 0 z M65.91999999999999 24.880000000000003 c1.8133 0 3.1667 -0.33332 4.06 -1 s1.34 -1.76 1.34 -3.28 c0 -1.4667 -0.43332 -2.5467 -1.3 -3.24 s-2.22 -1.04 -4.06 -1.04 l-5.04 0 l0 8.56 l5 0 z M96.72 11.440000000000001 c2.4 0 4.3936 0.74 5.98 2.22 s2.38 3.3667 2.38 5.66 c0 3.5733 -1.5067 5.96 -4.52 7.16 l0 0.08 c1.0133 0.29332 1.8066 0.78 2.38 1.46 s1.0066 1.4733 1.3 2.38 s0.48 2.36 0.56 4.36 c0.10668 2.6133 0.48 4.36 1.12 5.24 l-6.28 0 c-0.34668 -0.88 -0.61336 -2.5333 -0.80004 -4.96 c-0.21332 -2.56 -0.68 -4.2332 -1.4 -5.02 s-1.8933 -1.18 -3.52 -1.18 l-6.32 0 l0 11.16 l-6.28 0 l0 -28.56 l15.4 0 z M94.52000000000001 24.36 c1.3333 0 2.38 -0.3 3.14 -0.9 s1.14 -1.66 1.14 -3.18 c0 -1.44 -0.37332 -2.46 -1.12 -3.06 s-1.8134 -0.9 -3.2 -0.9 l-6.88 0 l0 8.04 l6.92 0 z M120.03999999999999 10.760000000000002 c3.4933 0 6.2732 0.80004 8.34 2.4 s3.1 3.8667 3.1 6.8 l-6.08 0 c-0.08 -1.44 -0.56668 -2.52 -1.46 -3.24 s-2.2733 -1.08 -4.14 -1.08 c-1.3067 0 -2.36 0.28668 -3.16 0.86 s-1.2 1.3666 -1.2 2.38 c0 0.82668 0.24668 1.4267 0.74 1.8 s1.1933 0.70664 2.1 0.99996 s2.4934 0.72 4.76 1.28 c2.3733 0.58668 4.2 1.2267 5.48 1.92 s2.2533 1.58 2.92 2.66 s1 2.4067 1 3.98 c0 1.8133 -0.48 3.4266 -1.44 4.84 s-2.36 2.4866 -4.2 3.22 s-3.92 1.1 -6.24 1.1 c-3.5467 0 -6.46 -0.88668 -8.74 -2.66 s-3.42 -4.2068 -3.42 -7.3 l0 -0.2 l6.08 0 c0 1.68 0.57332 2.98 1.72 3.9 s2.6667 1.38 4.56 1.38 c1.68 0 3.0333 -0.3 4.06 -0.9 s1.54 -1.4867 1.54 -2.66 c0 -0.77332 -0.28 -1.4266 -0.84 -1.96 s-1.3067 -0.96664 -2.24 -1.3 s-2.5066 -0.75332 -4.72 -1.26 c-2.56 -0.64 -4.4268 -1.32 -5.6 -2.04 s-2.0666 -1.5933 -2.68 -2.62 s-0.92 -2.26 -0.92 -3.7 c0 -1.7867 0.51332 -3.3467 1.54 -4.68 s2.3667 -2.32 4.02 -2.96 s3.36 -0.96 5.12 -0.96 z"></path>
  </g>
</svg>