<svg width="1939" height="1445" viewBox="0 0 1939 1445" fill="none"
  xmlns="http://www.w3.org/2000/svg">
  <path d="M1938.57 1269.51H0.180359V1270.48H1938.57V1269.51Z" fill="#EBEBEB"/>
  <path d="M1744.35 1331.89H1615.95V1332.86H1744.35V1331.89Z" fill="#EBEBEB"/>
  <path d="M1567.14 1331.89H1292.62V1332.86H1567.14V1331.89Z" fill="#EBEBEB"/>
  <path d="M1141.23 1295.92H1066.84V1296.88H1141.23V1295.92Z" fill="#EBEBEB"/>
  <path d="M336.492 1302.43H203.557V1303.4H336.492V1302.43Z" fill="#EBEBEB"/>
  <path d="M612.712 1302.43H370.995V1303.4H612.712V1302.43Z" fill="#EBEBEB"/>
  <path d="M873 1318.79H730.295V1319.76H873V1318.79Z" fill="#EBEBEB"/>
  <path d="M918.979 1096.61H170.41C164.546 1096.6 158.925 1094.26 154.782 1090.11C150.639 1085.96 148.312 1080.34 148.312 1074.47V22.198C148.363 16.3674 150.713 10.7924 154.85 6.68393C158.988 2.57546 164.579 0.265359 170.41 0.255371H918.979C924.85 0.255371 930.48 2.5876 934.631 6.73899C938.783 10.8904 941.115 16.5209 941.115 22.3918V1074.47C941.115 1080.34 938.783 1085.98 934.631 1090.13C930.48 1094.28 924.85 1096.61 918.979 1096.61V1096.61ZM170.41 1.03073C164.803 1.041 159.429 3.27564 155.468 7.24416C151.506 11.2127 149.282 16.5908 149.282 22.198V1074.47C149.282 1080.08 151.506 1085.46 155.468 1089.43C159.429 1093.4 164.803 1095.63 170.41 1095.64H918.979C924.589 1095.63 929.967 1093.4 933.935 1089.43C937.902 1085.46 940.136 1080.08 940.146 1074.47V22.198C940.136 16.5872 937.902 11.2092 933.935 7.24179C929.967 3.27438 924.589 1.04098 918.979 1.03073H170.41Z" fill="#EBEBEB"/>
  <path d="M1757.57 1096.61H1008.96C1003.09 1096.6 997.466 1094.26 993.317 1090.12C989.168 1085.97 986.833 1080.34 986.822 1074.47V22.198C986.883 16.3639 989.241 10.7889 993.385 6.6815C997.529 2.57411 1003.12 0.26525 1008.96 0.255371H1757.57C1763.39 0.275548 1768.97 2.59016 1773.1 6.69753C1777.23 10.8049 1779.57 16.3741 1779.62 22.198V1074.47C1779.62 1080.33 1777.3 1085.95 1773.17 1090.1C1769.03 1094.25 1763.42 1096.59 1757.57 1096.61V1096.61ZM1008.96 1.03073C1003.35 1.04098 997.97 3.27438 994.003 7.24179C990.035 11.2092 987.802 16.5872 987.791 22.198V1074.47C987.802 1080.08 990.035 1085.46 994.003 1089.43C997.97 1093.4 1003.35 1095.63 1008.96 1095.64H1757.57C1763.18 1095.63 1768.55 1093.4 1772.52 1089.43C1776.49 1085.46 1778.72 1080.08 1778.73 1074.47V22.198C1778.72 16.5872 1776.49 11.2092 1772.52 7.24179C1768.55 3.27438 1763.18 1.04098 1757.57 1.03073H1008.96Z" fill="#EBEBEB"/>
  <path d="M294.196 536.105L820.276 536.105V80.311L294.196 80.311V536.105Z" fill="#E6E6E6"/>
  <path d="M282.449 536.105L808.529 536.105V80.311L282.449 80.311V536.105Z" fill="#F5F5F5"/>
  <path d="M787.556 519.822V96.5935L303.461 96.5935V519.822H787.556Z" fill="#FAFAFA"/>
  <path d="M593.406 519.822L681.138 96.5935H497.611L409.918 519.822H593.406Z" fill="white"/>
  <path d="M312.3 519.861V96.6323H303.461V519.861H312.3Z" fill="#E6E6E6"/>
  <path d="M291.133 443.953L799.845 443.953V422.088L291.133 422.088V443.953Z" fill="#F5F5F5"/>
  <path d="M795.852 1246.45H879.862V882.147H795.852V1246.45Z" fill="#F0F0F0"/>
  <path d="M247.248 1269.51H863.773V1246.45H247.248V1269.51Z" fill="#F0F0F0"/>
  <path d="M795.852 882.108H231.082V1246.41H795.852V882.108Z" fill="#F5F5F5"/>
  <path d="M762.86 926.962H264.112V1046.44H762.86V926.962Z" fill="#F0F0F0"/>
  <path d="M762.86 1082.11H264.112V1201.59H762.86V1082.11Z" fill="#F0F0F0"/>
  <path d="M379.059 994.883H647.914C650.08 994.873 652.155 994.008 653.687 992.476C655.218 990.944 656.084 988.87 656.094 986.704V986.704C656.084 984.534 655.22 982.455 653.689 980.917C652.158 979.379 650.084 978.505 647.914 978.485H379.059C376.889 978.505 374.814 979.379 373.283 980.917C371.753 982.455 370.889 984.534 370.879 986.704V986.704C370.889 988.87 371.754 990.944 373.286 992.476C374.818 994.008 376.892 994.873 379.059 994.883V994.883Z" fill="#F5F5F5"/>
  <path d="M379.059 1150.03H647.914C650.08 1150.02 652.155 1149.16 653.687 1147.63C655.218 1146.09 656.084 1144.02 656.094 1141.85V1141.85C656.094 1139.68 655.233 1137.59 653.7 1136.05C652.167 1134.51 650.087 1133.64 647.914 1133.63H379.059C376.886 1133.64 374.805 1134.51 373.272 1136.05C371.739 1137.59 370.879 1139.68 370.879 1141.85V1141.85C370.889 1144.02 371.754 1146.09 373.286 1147.63C374.818 1149.16 376.892 1150.02 379.059 1150.03V1150.03Z" fill="#F5F5F5"/>
  <path d="M1673.48 318.539C1721.32 305.358 1737.68 218.557 1616.8 183.123C1643.47 270.429 1590.09 341.413 1673.48 318.539Z" fill="#EBEBEB"/>
  <path d="M1684.06 356.222C1721.78 315.477 1686.12 223.287 1550.27 260.969C1627.11 328.193 1618.35 427.283 1684.06 356.222Z" fill="#E0E0E0"/>
  <path d="M1646.84 366.689C1615.29 335.442 1660.49 226.698 1764.7 277.097C1705.66 333.659 1702.09 421.158 1646.84 366.689Z" fill="#FAFAFA"/>
  <path d="M1615.37 427.555H1707.21L1714.15 365.41H1608.46L1615.37 427.555Z" fill="#E6E6E6"/>
  <path d="M1607.42 376.536H1715.19C1717.01 376.536 1718.76 375.813 1720.04 374.526C1721.33 373.24 1722.05 371.494 1722.05 369.674C1722.05 367.854 1721.33 366.109 1720.04 364.822C1718.76 363.535 1717.01 362.812 1715.19 362.812H1607.42C1605.6 362.812 1603.85 363.535 1602.57 364.822C1601.28 366.109 1600.56 367.854 1600.56 369.674V369.674C1600.56 371.494 1601.28 373.24 1602.57 374.526C1603.85 375.813 1605.6 376.536 1607.42 376.536V376.536Z" fill="#E6E6E6"/>
  <path d="M842.645 1164.26V1059.01H930.299V953.79H1017.99V848.535H1105.65V743.28H1193.34V638.064H1280.99V532.809H1368.69V427.555H1456.38H1938.57V1269.51H842.645H754.952V1164.26H842.645Z" fill="#FAFAFA"/>
  <path d="M1324.84 1164.26V1059.01H1412.53V953.79H1500.19V848.535H1587.88V743.28H1675.53V638.064H1763.23V532.809H1850.88V427.555H1938.57V532.809V1269.51H1324.84H1237.19V1164.26H1324.84Z" fill="#E0E0E0"/>
  <path d="M1237.19 1164.26H749.796V1195.82H1237.19V1164.26Z" fill="#EBEBEB"/>
  <path d="M1324.88 1059.01H837.489V1090.56H1324.88V1059.01Z" fill="#EBEBEB"/>
  <path d="M1412.53 953.789H925.143V985.347H1412.53V953.789Z" fill="#EBEBEB"/>
  <path d="M1500.22 848.535H1012.84V880.092H1500.22V848.535Z" fill="#EBEBEB"/>
  <path d="M1587.88 743.28H1100.49V774.837H1587.88V743.28Z" fill="#EBEBEB"/>
  <path d="M1675.57 638.064H1188.18V669.621H1675.57V638.064Z" fill="#EBEBEB"/>
  <path d="M1763.23 532.809H1275.84V564.366H1763.23V532.809Z" fill="#EBEBEB"/>
  <path d="M1850.92 427.555H1363.53V459.112H1850.92V427.555Z" fill="#EBEBEB"/>
  <path d="M969.377 1444.59C1384.51 1444.59 1721.05 1424.94 1721.05 1400.71C1721.05 1376.47 1384.51 1356.82 969.377 1356.82C554.241 1356.82 217.707 1376.47 217.707 1400.71C217.707 1424.94 554.241 1444.59 969.377 1444.59Z" fill="#F5F5F5"/>
  <path d="M1297.74 402.007C1297.04 413.637 1295.69 424.298 1294.17 435.347C1292.66 446.396 1290.61 457.212 1288.28 468.067C1283.75 490.037 1277.19 511.541 1268.7 532.305L1265.18 540.059L1264.32 541.997L1264.01 543.005L1263.39 544.246C1262.21 546.679 1260.71 548.947 1258.93 550.992C1256.82 553.369 1254.3 555.352 1251.49 556.845C1248.73 558.292 1245.74 559.237 1242.65 559.637C1237.91 560.144 1233.11 559.642 1228.58 558.164C1222.15 555.971 1216.09 552.835 1210.59 548.859C1205.78 545.466 1201.18 541.776 1196.83 537.81C1180.51 522.681 1165.83 505.88 1153.02 487.684L1165.85 476.79C1173.61 483.962 1181.36 491.211 1189.11 498.073C1196.82 504.934 1204.87 511.403 1213.23 517.457C1217.16 520.271 1221.25 522.86 1225.48 525.211C1228.88 527.278 1232.56 528.857 1236.41 529.902C1237.73 530.173 1238.66 529.902 1238.23 529.902C1237.32 530.003 1236.46 530.398 1235.79 531.026C1235.56 531.026 1235.56 531.026 1235.79 531.026L1237.03 527.808L1239.74 520.753C1246.47 501.327 1251.72 481.421 1255.44 461.205C1257.5 451.048 1258.93 440.697 1260.48 430.424C1262.04 420.15 1263.12 409.566 1264.01 399.758L1297.74 402.007Z" fill="#0d6efd"/>
  <path d="M1274.25 359.323C1259.79 363.006 1249.67 422.476 1249.67 422.476L1289.48 449.614C1289.48 449.614 1327.67 389.64 1316.62 373.745C1304.99 357.113 1295.34 353.973 1274.25 359.323Z" fill="#407BFF"/>
  <path d="M1274.25 359.323C1259.79 363.006 1249.67 422.476 1249.67 422.476L1289.48 449.614C1289.48 449.614 1327.67 389.64 1316.62 373.745C1304.99 357.113 1295.34 353.973 1274.25 359.323Z" fill="#407BFF"/>
  <path opacity="0.4" d="M1274.25 359.323C1259.79 363.006 1249.67 422.476 1249.67 422.476L1289.48 449.614C1289.48 449.614 1327.67 389.64 1316.62 373.745C1304.99 357.113 1295.34 353.973 1274.25 359.323Z" fill="black"/>
  <path opacity="0.3" d="M1275.53 372.621L1264.44 432.517L1286.81 447.714L1275.53 372.621Z" fill="black"/>
  <path d="M1166.51 474.347L1147.71 444.419L1136.97 478.418C1136.97 478.418 1152.48 494.701 1166.55 490.824L1166.51 474.347Z" fill="#0d6efd"/>
  <path d="M1119.8 434.533L1112.35 463.454L1136.82 478.418L1147.55 444.419L1119.8 434.533Z" fill="#0d6efd"/>
  <path d="M1352.4 1360.04H1317.36L1314.99 1278.86H1350.08L1352.4 1360.04Z" fill="#0d6efd"/>
  <path d="M1661.73 1197.21L1635.02 1219.93L1573.88 1165.35L1600.6 1142.67L1661.73 1197.21Z" fill="#0d6efd"/>
  <path d="M1627.69 1217.22L1653.63 1187.52C1654.07 1187.01 1654.69 1186.68 1655.36 1186.58C1656.03 1186.49 1656.71 1186.64 1657.27 1187.02L1683.67 1204.11C1684.33 1204.57 1684.87 1205.15 1685.28 1205.83C1685.69 1206.51 1685.95 1207.27 1686.05 1208.06C1686.14 1208.84 1686.07 1209.64 1685.84 1210.4C1685.6 1211.16 1685.21 1211.85 1684.68 1212.45C1675.46 1222.64 1670.49 1227.1 1659.1 1240.13C1652.12 1248.15 1642.7 1260.64 1633 1271.69C1623.31 1282.73 1611.84 1273.82 1614.9 1268.31C1628.51 1243.73 1625.25 1235.13 1625.48 1223.03C1625.52 1220.9 1626.3 1218.84 1627.69 1217.22V1217.22Z" fill="#263238"/>
  <path d="M1316.16 1356.01H1355.54C1356.22 1356 1356.88 1356.24 1357.39 1356.68C1357.91 1357.12 1358.24 1357.74 1358.33 1358.41L1362.83 1389.42C1362.96 1390.24 1362.9 1391.08 1362.67 1391.88C1362.43 1392.67 1362.02 1393.4 1361.47 1394.02C1360.92 1394.64 1360.24 1395.13 1359.47 1395.46C1358.71 1395.78 1357.88 1395.93 1357.06 1395.9C1343.33 1395.67 1336.7 1394.85 1319.37 1394.85C1308.71 1394.85 1286.69 1395.98 1271.96 1395.98C1257.23 1395.98 1256.45 1381.4 1262.62 1380.12C1290.06 1374.19 1300.88 1366.05 1310.15 1358.25C1311.81 1356.8 1313.95 1356.01 1316.16 1356.01V1356.01Z" fill="#263238"/>
  <path opacity="0.2" d="M1315.03 1278.9L1316.23 1320.73H1351.28L1350.08 1278.9H1315.03Z" fill="black"/>
  <path opacity="0.2" d="M1600.63 1142.67L1573.88 1165.35L1605.44 1193.49L1632.15 1170.77L1600.63 1142.67Z" fill="black"/>
  <path d="M1274.25 359.323C1274.25 359.323 1257.54 365.216 1290.99 570.918H1433.35C1430.99 512.96 1430.91 477.216 1458.59 358.315C1438.66 354.206 1418.46 351.537 1398.15 350.329C1376.62 348.795 1355.01 348.795 1333.48 350.329C1305.73 353.043 1274.25 359.323 1274.25 359.323Z" fill="#407BFF"/>
  <path opacity="0.4" d="M1274.25 359.323C1274.25 359.323 1257.54 365.216 1290.99 570.918H1433.35C1430.99 512.96 1430.91 477.216 1458.59 358.315C1438.66 354.206 1418.46 351.537 1398.15 350.329C1376.62 348.795 1355.01 348.795 1333.48 350.329C1305.73 353.043 1274.25 359.323 1274.25 359.323Z" fill="black"/>
  <path d="M1398.15 350.329C1376.62 348.795 1355.01 348.795 1333.48 350.329C1330 350.639 1326.43 351.027 1322.9 351.453C1321.44 353.657 1320.51 356.166 1320.17 358.787C1319.84 361.409 1320.11 364.073 1320.96 366.573C1325.5 377.854 1341.86 379.172 1353.8 379.172C1397.88 379.172 1405.32 353.431 1405.63 352.345L1406.06 350.794C1403.58 350.639 1400.79 350.445 1398.15 350.329Z" fill="white"/>
  <path d="M1391.95 277.562C1387.84 298.341 1383.81 336.45 1398.34 350.329C1398.34 350.329 1392.64 371.458 1353.99 371.458C1311.35 371.458 1333.68 350.368 1333.68 350.368C1356.94 344.824 1356.28 327.611 1352.25 311.6L1391.95 277.562Z" fill="#0d6efd"/>
  <path opacity="0.2" d="M1375.55 291.363L1352.05 311.406C1353.07 315.216 1353.74 319.108 1354.07 323.037C1362.91 321.757 1375.08 312.026 1376.05 302.761C1376.6 298.963 1376.42 295.098 1375.55 291.363V291.363Z" fill="black"/>
  <path d="M1367.56 164.437C1363.96 152.225 1360.93 132.996 1382.64 124.312C1374.15 113.923 1372.1 94.3837 1382.64 82.7921C1393.19 71.2005 1409 75.465 1409 75.465C1409 75.465 1413.66 47.1257 1448.12 52.2043C1482.59 57.2829 1467.23 79.9621 1467.23 79.9621C1467.23 79.9621 1514.26 70.6578 1517.4 114.853C1520.54 159.048 1493.56 153.621 1493.56 153.621C1493.56 153.621 1514.53 171.222 1502.9 190.567C1491.27 209.912 1464.4 203.244 1464.4 203.244C1464.4 203.244 1451.77 237.437 1421.99 217.976C1392.22 198.514 1367.56 164.437 1367.56 164.437Z" fill="#263238"/>
  <path d="M1297.74 190.218C1286.11 205.26 1291.23 222.279 1301.62 228.986C1326.62 244.958 1362.79 177.967 1353.37 169.942C1343.95 161.917 1309.37 175.137 1297.74 190.218Z" fill="#263238"/>
  <path d="M1402.76 154.396C1386.33 147.767 1369.65 154.707 1364.46 164.709C1351.78 189.094 1409.35 233.018 1426.02 202.546C1435.91 184.441 1419.7 161.22 1402.76 154.396Z" fill="#407BFF"/>
  <path d="M1395.82 228.986C1397.03 263.877 1398.27 278.454 1382.49 297.876C1358.8 327.068 1315.81 320.943 1304.25 287.215C1293.86 256.86 1293.67 205.105 1326.2 188.124C1333.35 184.342 1341.34 182.451 1349.43 182.629C1357.52 182.808 1365.42 185.05 1372.4 189.145C1379.38 193.239 1385.19 199.048 1389.29 206.021C1393.39 212.994 1395.64 220.899 1395.82 228.986V228.986Z" fill="#0d6efd"/>
  <path d="M1390.59 247.245C1375.08 241.469 1371.21 223.364 1373.69 216.231C1365.93 215.921 1348.99 213.13 1342.67 203.515C1330.58 211.269 1305.03 219.022 1302.28 206.113C1299.52 193.203 1338.06 160.018 1367.21 157.459C1401.87 154.435 1436.06 188.473 1427.26 221.077C1418.46 253.681 1390.59 247.245 1390.59 247.245Z" fill="#263238"/>
  <path d="M1291.15 570.918C1291.15 570.918 1263.51 840.936 1265.8 947.858C1268.2 1059.04 1308.94 1312.62 1308.94 1312.62H1356.32C1356.32 1312.62 1348.84 1065.52 1353.02 956.348C1357.6 837.292 1395.4 570.918 1395.4 570.918H1291.15Z" fill="#263238"/>
  <path d="M1360.27 1314.33H1304.68L1300.57 1296.61L1362.87 1294.44L1360.27 1314.33Z" fill="#407BFF"/>
  <path opacity="0.2" d="M1352.4 638.103C1317.51 708.428 1345.39 836.749 1357.75 884.511C1364.07 812.791 1374.77 725.137 1383.11 660.782C1377.83 624.418 1368.69 605.654 1352.4 638.103Z" fill="black"/>
  <path d="M1328.6 570.918C1328.6 570.918 1360.85 851.636 1385.2 941.771C1414.12 1048.77 1593.73 1192.79 1593.73 1192.79L1630.17 1161.78C1630.17 1161.78 1499.99 1005.31 1477.86 948.944C1430.68 828.763 1471.07 649.346 1433.35 570.841L1328.6 570.918Z" fill="#263238"/>
  <path d="M1635.99 1160.19L1590.79 1198.57L1573.88 1188.45L1625.02 1140.88L1635.99 1160.19Z" fill="#407BFF"/>
  <path d="M1344.22 243.562C1344.49 246.392 1343.22 248.796 1341.39 248.99C1339.57 249.184 1337.83 247.013 1337.52 244.221C1337.21 241.43 1338.52 238.949 1340.39 238.794C1342.25 238.639 1343.95 240.616 1344.22 243.562Z" fill="#263238"/>
  <path d="M1312.43 246.625C1312.7 249.416 1311.43 251.859 1309.56 252.053C1307.7 252.246 1306.04 250.075 1305.69 247.245C1305.34 244.415 1306.7 242.012 1308.52 241.857C1310.34 241.702 1312.16 243.795 1312.43 246.625Z" fill="#263238"/>
  <path d="M1309.41 241.934L1302.47 240.616C1302.47 240.616 1306.66 245.578 1309.41 241.934Z" fill="#263238"/>
  <path d="M1321.27 250.657C1319.39 257.313 1316.59 263.679 1312.98 269.576C1314.51 270.46 1316.23 271.001 1317.99 271.162C1319.76 271.323 1321.54 271.099 1323.21 270.506L1321.27 250.657Z" fill="#ED847E"/>
  <path d="M1338.83 279.772C1337.3 280.192 1335.73 280.477 1334.14 280.624C1334.04 280.635 1333.93 280.625 1333.83 280.593C1333.72 280.562 1333.63 280.511 1333.54 280.442C1333.46 280.374 1333.39 280.289 1333.34 280.194C1333.29 280.099 1333.26 279.995 1333.25 279.888C1333.23 279.668 1333.29 279.447 1333.43 279.274C1333.57 279.1 1333.77 278.987 1333.99 278.957C1337.5 278.699 1340.9 277.621 1343.91 275.81C1346.93 273.999 1349.48 271.505 1351.36 268.529C1351.4 268.426 1351.47 268.334 1351.55 268.26C1351.63 268.185 1351.73 268.129 1351.84 268.096C1351.95 268.063 1352.06 268.053 1352.17 268.068C1352.28 268.082 1352.39 268.121 1352.48 268.18C1352.67 268.287 1352.82 268.463 1352.88 268.672C1352.95 268.882 1352.93 269.108 1352.83 269.304C1349.7 274.48 1344.68 278.234 1338.83 279.772V279.772Z" fill="#263238"/>
  <path d="M1403.96 253.061C1403.12 259.732 1399.66 265.796 1394.35 269.925C1387.26 275.352 1380.43 269.925 1379.62 261.434C1378.92 253.681 1381.71 242.05 1390.16 239.802C1392.01 239.426 1393.92 239.504 1395.72 240.028C1397.53 240.552 1399.18 241.507 1400.54 242.811C1401.9 244.115 1402.92 245.729 1403.52 247.514C1404.11 249.299 1404.27 251.203 1403.96 253.061V253.061Z" fill="#0d6efd"/>
  <path d="M1347.63 223.636C1347.42 223.69 1347.2 223.701 1346.98 223.668C1346.76 223.635 1346.54 223.558 1346.36 223.442C1344.6 222.32 1342.6 221.63 1340.52 221.428C1338.45 221.226 1336.36 221.517 1334.41 222.279C1334.01 222.458 1333.56 222.478 1333.14 222.334C1332.72 222.19 1332.37 221.893 1332.17 221.504C1331.98 221.107 1331.96 220.653 1332.1 220.24C1332.25 219.826 1332.55 219.486 1332.94 219.294C1335.38 218.285 1338.03 217.879 1340.66 218.108C1343.29 218.338 1345.83 219.196 1348.06 220.612C1348.25 220.723 1348.41 220.87 1348.53 221.043C1348.66 221.217 1348.75 221.414 1348.8 221.623C1348.85 221.832 1348.86 222.049 1348.83 222.261C1348.79 222.474 1348.72 222.677 1348.6 222.86C1348.39 223.231 1348.04 223.508 1347.63 223.636Z" fill="#263238"/>
  <path d="M1296.85 233.289C1296.45 233.441 1296.01 233.441 1295.61 233.289C1295.23 233.069 1294.95 232.714 1294.83 232.296C1294.71 231.878 1294.75 231.428 1294.95 231.04C1296.13 228.681 1297.87 226.642 1300.01 225.096C1302.15 223.55 1304.63 222.544 1307.24 222.163C1307.46 222.141 1307.67 222.164 1307.88 222.229C1308.09 222.294 1308.28 222.4 1308.45 222.541C1308.62 222.682 1308.75 222.855 1308.85 223.05C1308.95 223.244 1309.01 223.457 1309.02 223.675C1309.05 224.111 1308.91 224.542 1308.63 224.876C1308.35 225.209 1307.95 225.418 1307.51 225.458C1305.45 225.804 1303.51 226.63 1301.83 227.87C1300.15 229.109 1298.79 230.727 1297.86 232.591C1297.75 232.771 1297.6 232.927 1297.43 233.047C1297.25 233.167 1297.06 233.249 1296.85 233.289V233.289Z" fill="#263238"/>
  <path d="M1473.13 396.114C1481.03 415.452 1487.85 435.215 1493.56 455.312C1499.6 475.585 1503.91 496.336 1506.43 517.341C1507.09 522.691 1507.28 528.312 1507.51 533.856V536.996C1507.51 538.121 1507.32 539.284 1507.16 540.292C1506.84 542.229 1506.4 544.145 1505.85 546.029C1504.84 549.253 1503.54 552.38 1501.97 555.372C1496.59 565.311 1490.01 574.544 1482.35 582.859C1468.2 598.404 1452.63 612.59 1435.83 625.232L1424.63 612.787C1437.54 597.707 1450.56 582.238 1461.61 566.266C1466.95 559.018 1471.5 551.22 1475.18 543.005C1475.81 541.416 1476.33 539.783 1476.73 538.121C1476.84 537.557 1476.9 536.987 1476.93 536.415C1476.95 536.247 1476.95 536.078 1476.93 535.911C1476.93 535.911 1476.93 535.911 1476.93 535.911V535.368C1476.42 530.793 1476.07 526.219 1475.22 521.528C1471.88 502.377 1467.23 483.478 1461.3 464.966C1455.37 446.202 1448.74 427.167 1441.92 409.024L1473.13 396.114Z" fill="#0d6efd"/>
  <path d="M1458.59 358.315C1472.85 362.657 1489.99 411.776 1489.99 411.776L1434.59 451.319C1434.59 451.319 1414.39 410.342 1420.4 391.888C1426.84 372.698 1442.34 353.353 1458.59 358.315Z" fill="#407BFF"/>
  <path opacity="0.4" d="M1458.59 358.315C1472.85 362.657 1489.99 411.776 1489.99 411.776L1434.59 451.319C1434.59 451.319 1414.39 410.342 1420.4 391.888C1426.84 372.698 1442.34 353.353 1458.59 358.315Z" fill="black"/>
  <path d="M1618.12 1234.12C1617.4 1234.1 1616.7 1233.92 1616.06 1233.59C1615.42 1233.26 1614.87 1232.79 1614.44 1232.22C1614.08 1231.86 1613.83 1231.41 1613.71 1230.92C1613.59 1230.43 1613.6 1229.91 1613.74 1229.43C1615.06 1225.16 1627.23 1221.68 1628.62 1221.29C1628.78 1221.23 1628.94 1221.23 1629.1 1221.28C1629.25 1221.33 1629.38 1221.43 1629.48 1221.56C1629.56 1221.69 1629.61 1221.85 1629.61 1222C1629.61 1222.16 1629.56 1222.32 1629.48 1222.45C1627.31 1226.6 1623 1233.58 1618.58 1234.08L1618.12 1234.12ZM1627.11 1223.46C1622.31 1225.01 1616.02 1227.68 1615.48 1229.93C1615.42 1230.15 1615.43 1230.37 1615.49 1230.58C1615.55 1230.79 1615.67 1230.99 1615.83 1231.13C1616.14 1231.58 1616.56 1231.93 1617.05 1232.17C1617.54 1232.4 1618.08 1232.5 1618.62 1232.45C1620.87 1232.18 1624.01 1228.85 1627.11 1223.46V1223.46Z" fill="#407BFF"/>
  <path d="M1623.27 1223.61C1619.65 1223.98 1616.02 1222.96 1613.12 1220.75C1612.71 1220.23 1612.49 1219.6 1612.49 1218.94C1612.49 1218.29 1612.71 1217.65 1613.12 1217.14C1613.46 1216.6 1613.92 1216.15 1614.47 1215.81C1615.01 1215.48 1615.62 1215.27 1616.26 1215.2C1621.3 1214.58 1628.93 1221.17 1629.24 1221.44C1629.36 1221.53 1629.44 1221.65 1629.49 1221.79C1629.54 1221.93 1629.55 1222.08 1629.52 1222.22C1629.5 1222.37 1629.44 1222.51 1629.34 1222.63C1629.25 1222.75 1629.12 1222.83 1628.97 1222.88C1627.12 1223.4 1625.2 1223.65 1623.27 1223.61ZM1617.11 1216.83H1616.57C1616.17 1216.87 1615.79 1217 1615.45 1217.21C1615.1 1217.42 1614.81 1217.7 1614.59 1218.03C1614.01 1218.92 1614.2 1219.39 1614.59 1219.7C1616.1 1221.68 1623 1222.41 1627.19 1221.64C1624.32 1219.16 1620.84 1217.5 1617.11 1216.83V1216.83Z" fill="#407BFF"/>
  <path d="M1302.97 1362.13C1299.98 1362.4 1296.98 1361.64 1294.48 1359.96C1293.95 1359.47 1293.54 1358.87 1293.27 1358.2C1293.01 1357.53 1292.91 1356.8 1292.97 1356.08C1293 1355.62 1293.15 1355.18 1293.4 1354.79C1293.65 1354.41 1294 1354.09 1294.41 1353.87C1298.71 1351.51 1312.67 1358.64 1314.26 1359.5C1314.4 1359.58 1314.52 1359.7 1314.6 1359.86C1314.68 1360.01 1314.7 1360.18 1314.68 1360.35C1314.66 1360.52 1314.58 1360.68 1314.47 1360.8C1314.35 1360.93 1314.19 1361.01 1314.02 1361.05C1310.38 1361.74 1306.68 1362.11 1302.97 1362.13ZM1296.73 1354.88C1296.2 1354.85 1295.66 1354.95 1295.18 1355.19C1295.02 1355.27 1294.88 1355.4 1294.78 1355.56C1294.68 1355.72 1294.64 1355.9 1294.64 1356.08C1294.58 1356.57 1294.63 1357.06 1294.8 1357.52C1294.97 1357.98 1295.25 1358.39 1295.61 1358.72C1297.74 1360.66 1303.36 1360.97 1311.12 1359.69C1306.63 1357.28 1301.77 1355.65 1296.73 1354.88V1354.88Z" fill="#407BFF"/>
  <path d="M1313.87 1361.01H1313.52C1309.33 1359.11 1301.07 1351.55 1301.89 1347.59C1301.89 1346.66 1302.7 1345.46 1304.99 1345.23C1305.82 1345.14 1306.65 1345.23 1307.44 1345.47C1308.24 1345.72 1308.97 1346.12 1309.6 1346.66C1313.98 1350.35 1314.8 1359.77 1314.84 1360.19C1314.85 1360.34 1314.82 1360.48 1314.76 1360.61C1314.7 1360.74 1314.61 1360.85 1314.49 1360.93C1314.4 1360.99 1314.29 1361.02 1314.19 1361.04C1314.08 1361.05 1313.97 1361.04 1313.87 1361.01V1361.01ZM1305.49 1346.78H1305.03C1303.48 1346.78 1303.4 1347.55 1303.36 1347.75C1302.97 1350.11 1308.6 1356.08 1312.86 1358.64C1312.51 1354.66 1310.94 1350.88 1308.36 1347.83C1307.58 1347.11 1306.56 1346.69 1305.49 1346.66V1346.78Z" fill="#407BFF"/>
  <path d="M1435.48 562.389L1439.13 575.144C1439.63 576.113 1438.47 577.121 1436.8 577.121H1290.3C1289.02 577.121 1287.93 576.501 1287.85 575.687L1286.58 562.971C1286.58 562.079 1287.58 561.343 1289.02 561.343H1433.2C1433.63 561.305 1434.08 561.382 1434.48 561.565C1434.88 561.749 1435.22 562.033 1435.48 562.389V562.389Z" fill="#407BFF"/>
  <path opacity="0.3" d="M1435.48 562.389L1439.13 575.144C1439.63 576.113 1438.47 577.121 1436.8 577.121H1290.3C1289.02 577.121 1287.93 576.501 1287.85 575.687L1286.58 562.971C1286.58 562.079 1287.58 561.343 1289.02 561.343H1433.2C1433.63 561.305 1434.08 561.382 1434.48 561.565C1434.88 561.749 1435.22 562.033 1435.48 562.389V562.389Z" fill="white"/>
  <path d="M1416.14 578.672H1420.01C1420.75 578.672 1421.33 578.284 1421.29 577.78L1419.47 561.226C1419.47 560.761 1418.77 560.335 1418 560.335H1414.12C1413.35 560.335 1412.76 560.761 1412.84 561.226L1414.63 577.78C1414.7 578.284 1415.21 578.672 1416.14 578.672Z" fill="#263238"/>
  <path d="M1301.15 578.672H1305.03C1305.8 578.672 1306.39 578.284 1306.35 577.78L1304.53 561.226C1304.53 560.761 1303.79 560.335 1303.05 560.335H1299.18C1298.4 560.335 1297.82 560.761 1297.86 561.226L1299.68 577.78C1299.72 578.284 1300.38 578.672 1301.15 578.672Z" fill="#263238"/>
  <path d="M1358.64 578.672H1362.52C1363.3 578.672 1363.88 578.284 1363.84 577.78L1362.02 561.226C1362.02 560.761 1361.32 560.335 1360.54 560.335H1356.67C1355.89 560.335 1355.31 560.761 1355.39 561.226L1357.06 577.896C1357.06 578.284 1357.87 578.672 1358.64 578.672Z" fill="#263238"/>
  <path d="M1341.24 238.872L1334.3 237.553C1334.3 237.553 1338.25 242.516 1341.24 238.872Z" fill="#263238"/>
  <path opacity="0.2" d="M1212.92 732.541C1147.24 758.058 1075.46 763.526 1006.67 748.252C937.886 732.979 875.172 697.651 826.461 646.736C777.75 595.821 745.232 531.605 733.016 462.208C720.801 392.811 729.438 321.351 757.836 256.863C786.233 192.375 833.116 137.756 892.554 99.9125C951.993 62.0689 1021.32 42.7004 1091.76 44.2561C1162.21 45.8119 1230.61 68.222 1288.32 108.653C1346.03 149.084 1390.46 205.719 1415.98 271.398C1432.94 315.01 1441.13 361.534 1440.1 408.314C1439.07 455.094 1428.83 501.212 1409.98 544.035C1391.12 586.858 1364.01 625.547 1330.2 657.891C1296.39 690.235 1256.53 715.602 1212.92 732.541V732.541Z" fill="#407BFF"/>
  <path opacity="0.1" d="M1148.45 50.072L869.007 684.702C864.704 681.445 860.439 678.073 856.252 674.661C829.244 652.318 805.724 626.067 786.47 596.776V596.776L1027.84 48.5989C1067.83 42.1582 1108.63 42.6566 1148.45 50.072Z" fill="white"/>
  <path opacity="0.1" d="M1347.09 160.173L1084.36 756.849C1029.79 756.907 975.936 744.412 926.965 720.33L1213.85 68.7582C1264.67 88.6347 1310.26 119.909 1347.09 160.173V160.173Z" fill="white"/>
  <path d="M790.579 160.444C838.053 102.436 901.662 59.8083 973.362 37.9512C1045.06 16.0941 1121.63 15.9894 1193.39 37.6503C1265.15 59.3113 1328.88 101.765 1376.51 159.643C1424.14 217.521 1453.54 288.224 1460.99 362.81C1468.44 437.397 1453.61 512.518 1418.36 578.673C1383.12 644.829 1329.05 699.047 1262.99 734.473C1196.93 769.899 1121.85 784.94 1047.25 777.696C972.638 770.452 901.855 741.246 843.846 693.774C766.067 630.108 716.761 538.155 706.772 438.139C696.783 338.124 726.928 238.235 790.579 160.444V160.444ZM1353.18 620.851C1396.76 567.583 1423.56 502.59 1430.2 434.09C1436.84 365.589 1423.02 296.658 1390.48 236.012C1357.95 175.366 1308.16 125.729 1247.42 93.3774C1186.68 61.0261 1117.7 47.4132 1049.22 54.2601C980.743 61.1071 915.83 88.1063 862.694 131.844C809.558 175.581 770.584 234.093 750.701 299.98C730.818 365.867 730.919 436.17 750.99 502C771.061 567.83 810.202 626.23 863.463 669.815C898.832 698.759 939.555 720.452 983.309 733.655C1027.06 746.859 1072.99 751.315 1118.46 746.768C1163.94 742.221 1208.07 728.761 1248.35 707.156C1288.62 685.551 1324.24 656.224 1353.18 620.851V620.851Z" fill="#407BFF"/>
  <path d="M1386.64 619.533C1423.97 641.825 1459.48 666.326 1494.37 691.603C1529.26 716.879 1563.26 743.203 1596.72 770.224C1630.17 797.245 1663.01 825.041 1694.68 854.234C1710.55 868.81 1726.06 883.775 1741.21 899.127C1756.4 914.634 1771.33 930.141 1785.4 946.966C1788.65 950.862 1790.45 955.769 1790.47 960.843C1790.5 965.917 1788.75 970.841 1785.54 974.769C1782.33 978.697 1777.85 981.383 1772.87 982.365C1767.89 983.348 1762.73 982.565 1758.26 980.152C1738.88 969.684 1720.74 958.132 1702.63 946.307C1684.53 934.483 1666.85 922.155 1649.4 909.478C1614.51 884.201 1580.75 857.568 1547.68 830.081C1514.61 802.595 1482.04 774.488 1450.37 745.257C1418.7 716.026 1387.64 686.098 1358.41 653.92C1354.76 649.94 1352.67 644.778 1352.52 639.38C1352.37 633.982 1354.16 628.71 1357.59 624.531C1361.01 620.352 1365.82 617.547 1371.14 616.629C1376.46 615.711 1381.93 616.742 1386.56 619.533H1386.64Z" fill="#407BFF"/>
  <path d="M1428.35 608.911L1390.9 614.61L1417.69 638.103C1417.69 638.103 1438.86 630.349 1440.95 616.005L1428.35 608.911Z" fill="#0d6efd"/>
  <path d="M1370.66 636.126L1394.19 654.579L1422.92 635.816L1390.9 614.687L1370.66 636.126Z" fill="#0d6efd"/>
  <path d="M1193.61 676.948C1197.03 667.611 1203.2 659.527 1211.3 653.763C1219.41 647.999 1229.06 644.823 1239.01 644.655H1549.34C1554.71 644.454 1560.05 645.433 1564.99 647.522C1569.93 649.611 1574.36 652.759 1577.95 656.744C1581.55 660.73 1584.22 665.455 1585.79 670.587C1587.36 675.72 1587.78 681.133 1587.03 686.446L1506.85 1359.11C1505.15 1370.56 1499.43 1381.03 1490.72 1388.65C1482 1396.27 1470.86 1400.55 1459.29 1400.71H474.583C469.238 1400.91 463.914 1399.94 458.985 1397.86C454.056 1395.79 449.642 1392.66 446.053 1388.69C442.465 1384.73 439.789 1380.02 438.214 1374.91C436.64 1369.8 436.204 1364.41 436.939 1359.11L504.162 793.95C505.864 782.498 511.583 772.026 520.298 764.405C529.013 756.784 540.155 752.511 551.731 752.352H1087.58C1110.8 751.956 1133.36 744.541 1152.28 731.082C1171.21 717.623 1185.61 698.751 1193.61 676.948V676.948Z" fill="#407BFF"/>
  <path d="M454.656 1369.73H1483.59L1542.21 677.413H513.312L454.656 1369.73Z" fill="#F0F0F0"/>
  <path d="M454.656 1369.73H1483.59L1526.01 677.413H513.312L454.656 1369.73Z" fill="#E0E0E0"/>
  <path d="M454.656 1369.73H1483.59L1518.95 655.432H490.051L454.656 1369.73Z" fill="#F0F0F0"/>
  <path d="M454.656 1369.73H1483.59L1497.59 655.432H490.051L454.656 1369.73Z" fill="#E0E0E0"/>
  <path d="M454.656 1369.73H1483.59L1489.72 636.048H460.82L454.656 1369.73Z" fill="#F0F0F0"/>
  <path d="M454.656 1369.73H1483.59L1462.47 649.927H440.196L454.656 1369.73Z" fill="#E0E0E0"/>
  <path d="M454.656 1369.73H1483.59L1453.04 655.432H424.146L454.656 1369.73Z" fill="#F0F0F0"/>
  <path d="M454.656 1369.73H1483.59L1434.94 666.21H406.041L454.656 1369.73Z" fill="#E0E0E0"/>
  <path d="M454.656 1369.73H1483.59L1427.19 672.219H398.287L454.656 1369.73Z" fill="#F0F0F0"/>
  <path d="M969.92 720.64C969.977 716.142 970.939 711.701 972.748 707.582C974.557 703.464 977.177 699.751 980.45 696.666C983.724 693.58 987.585 691.185 991.803 689.623C996.021 688.06 1000.51 687.362 1005 687.571H1315.34C1327.36 688.032 1338.88 692.47 1348.1 700.188C1357.32 707.907 1363.71 718.468 1366.28 730.215L1488.9 1358.25C1493.48 1381.79 1478.13 1400.9 1454.6 1400.9H469.892C446.321 1400.9 423.37 1381.79 418.912 1358.25L317.767 840.51C313.192 816.978 328.544 797.865 352.076 797.865H887.964C934.486 797.865 968.33 765.843 969.92 720.64Z" fill="#407BFF"/>
  <path opacity="0.2" d="M969.92 720.64C969.977 716.142 970.939 711.701 972.748 707.582C974.557 703.464 977.177 699.751 980.45 696.666C983.724 693.58 987.585 691.185 991.803 689.623C996.021 688.06 1000.51 687.362 1005 687.571H1315.34C1327.36 688.032 1338.88 692.47 1348.1 700.188C1357.32 707.907 1363.71 718.468 1366.28 730.215L1488.9 1358.25C1493.48 1381.79 1478.13 1400.9 1454.6 1400.9H469.892C446.321 1400.9 423.37 1381.79 418.912 1358.25L317.767 840.51C313.192 816.978 328.544 797.865 352.076 797.865H887.964C934.486 797.865 968.33 765.843 969.92 720.64Z" fill="black"/>
</svg>
