<svg width="2333" height="1718" viewBox="0 0 2333 1718" fill="none"
  xmlns="http://www.w3.org/2000/svg">
  <path d="M517.757 473.981L82.7781 764.953L511.23 1405.45L946.208 1114.48L517.757 473.981Z" fill="#F5F5F5"/>
  <path d="M721.431 1084.18L716.507 1114.73L500.26 1083.56L505.184 1053.01L721.431 1084.18Z" fill="#E0E0E0"/>
  <path d="M612.532 975.205L643.546 979.664L609.159 1192.58L578.106 1188.08L612.532 975.205Z" fill="#E0E0E0"/>
  <path d="M413.537 704.606C413.847 705.032 370.272 734.767 316.191 770.899C262.109 807.03 218.03 836.029 217.72 835.564C217.41 835.098 260.985 805.402 315.066 769.232C369.148 733.061 413.033 704.141 413.537 704.606Z" fill="#E0E0E0"/>
  <path d="M573.338 664.442C573.648 664.908 501.152 713.91 411.443 773.923C321.734 833.935 248.618 882.201 248.386 881.775C248.153 881.348 320.494 832.268 410.319 772.256C500.144 712.243 573.028 663.977 573.338 664.442Z" fill="#E0E0E0"/>
  <path d="M605.399 712.359C605.709 712.825 533.213 761.866 443.504 821.879C353.795 881.891 280.679 930.157 280.447 929.692C280.214 929.227 352.632 880.224 442.38 820.173C532.128 760.121 605.089 711.894 605.399 712.359Z" fill="#E0E0E0"/>
  <path d="M637.46 760.315C637.77 760.78 565.274 809.822 475.565 869.796C385.856 929.77 312.74 978.113 312.74 977.648C312.74 977.183 384.887 928.141 474.635 868.129C564.382 808.116 637.15 759.85 637.46 760.315Z" fill="#E0E0E0"/>
  <path d="M669.404 808.271C669.715 808.736 597.219 857.739 507.51 917.751C417.801 977.764 344.685 1026.03 344.491 1025.56C344.297 1025.1 416.754 976.097 506.579 916.084C596.405 856.072 669.404 807.806 669.404 808.271Z" fill="#E0E0E0"/>
  <path d="M1972.27 903.154L1606.96 1147.52L1966.78 1685.42L2332.09 1441.05L1972.27 903.154Z" fill="#F5F5F5"/>
  <path d="M2143.36 1415.72L2139.21 1441.39L1957.58 1415.22L1961.77 1389.56L2143.36 1415.72Z" fill="#E0E0E0"/>
  <path d="M2051.9 1324.19L2077.96 1327.95L2049.07 1506.75L2022.98 1502.99L2051.9 1324.19Z" fill="#E0E0E0"/>
  <path d="M1884.62 1097.13C1884.93 1097.6 1848.37 1122.6 1802.94 1152.96C1757.5 1183.31 1720.44 1207.58 1720.13 1207.23C1719.82 1206.88 1756.42 1181.8 1801.81 1151.41C1847.21 1121.01 1884.31 1096.47 1884.62 1097.13Z" fill="#E0E0E0"/>
  <path d="M2018.95 1063.21C2019.26 1063.67 1958.44 1104.92 1883.26 1155.28C1808.09 1205.64 1746.57 1246.19 1746.26 1245.73C1745.95 1245.26 1806.78 1204.01 1881.95 1153.62C1957.12 1103.22 2018.53 1062.74 2018.95 1063.21Z" fill="#E0E0E0"/>
  <path d="M2045.9 1103.45C2046.21 1103.91 1985.38 1145.16 1910.21 1195.56C1835.04 1245.96 1773.51 1286.43 1773.2 1285.97C1772.89 1285.5 1833.53 1244.45 1908.89 1194.05C1984.26 1143.65 2045.66 1103.02 2045.9 1103.45Z" fill="#E0E0E0"/>
  <path d="M2072.8 1143.65C2073.11 1144.12 2012.25 1185.37 1937.11 1235.76C1861.98 1286.16 1800.42 1326.64 1800.11 1326.17C1799.8 1325.71 1860.62 1284.5 1935.8 1234.06C2010.97 1183.62 2072.53 1143.26 2072.8 1143.65Z" fill="#E0E0E0"/>
  <path d="M2099.94 1184.01C2100.25 1184.47 2039.42 1225.68 1964.25 1276.08C1889.08 1326.48 1827.56 1366.95 1827.25 1366.53C1826.94 1366.1 1887.76 1324.81 1962.93 1274.42C2038.1 1224.02 2099.43 1183.54 2099.94 1184.01Z" fill="#E0E0E0"/>
  <path d="M1394.33 497.545L995.729 284.353L681.811 871.283L1080.41 1084.47L1394.33 497.545Z" fill="#F5F5F5"/>
  <path d="M1012.19 900.849L986.913 909.494L922.714 732.053L948.029 723.369L1012.19 900.849Z" fill="#E0E0E0"/>
  <path d="M1050.96 773.535L1060.18 799.006L883.946 859.367L874.719 833.897L1050.96 773.535Z" fill="#E0E0E0"/>
  <path d="M1176.18 511.736C1175.87 512.317 1135.47 491.305 1085.89 464.827C1036.3 438.348 996.411 416.367 996.722 415.785C997.032 415.204 1037.47 436.216 1087.05 462.694C1136.63 489.173 1176.49 511.115 1176.18 511.736Z" fill="#E0E0E0"/>
  <path d="M1271.86 617.301C1271.55 617.882 1204.63 582.681 1122.41 538.718C1040.18 494.755 973.81 458.624 974.12 458.042C974.43 457.461 1041.3 492.623 1123.53 536.625C1205.76 580.626 1272.17 616.719 1271.86 617.301Z" fill="#E0E0E0"/>
  <path d="M1248.36 661.225C1248.05 661.806 1181.14 626.644 1098.91 582.642C1016.69 538.641 950.316 502.548 950.627 501.966C950.937 501.385 1017.81 536.586 1100.04 580.549C1182.26 624.511 1248.67 660.643 1248.36 661.225Z" fill="#E0E0E0"/>
  <path d="M1224.87 705.149C1224.56 705.73 1157.65 670.568 1075.42 626.605C993.194 582.642 926.823 546.627 927.133 545.929C927.443 545.231 994.318 580.51 1076.54 624.473C1158.77 668.435 1225.18 704.567 1224.87 705.149Z" fill="#E0E0E0"/>
  <path d="M1201.38 749.073C1201.07 749.654 1134.15 714.492 1051.93 670.529C969.7 626.566 903.291 590.434 903.64 589.853C903.989 589.271 970.825 624.434 1053.05 668.397C1135.28 712.359 1201.69 748.491 1201.38 749.073Z" fill="#E0E0E0"/>
  <path opacity="0.2" d="M1203.43 0H1193.43V170.501H1203.43V0Z" fill="black"/>
  <path d="M964.932 376.785H1431.93C1431.93 376.785 1388.82 170.579 1194.9 170.579C1022.42 170.579 964.932 376.785 964.932 376.785Z" fill="#0d6efd"/>
  <path d="M1203.43 0H1193.43V170.501H1203.43V0Z" fill="#0d6efd"/>
  <path d="M2238.22 1705.13C2238.22 1705.67 1737.15 1706.13 1119.15 1706.13C501.152 1706.13 0 1705.79 0 1705.13C0 1704.47 500.997 1704.12 1119.15 1704.12C1737.3 1704.12 2238.22 1704.55 2238.22 1705.13Z" fill="#263238"/>
  <path d="M123.902 1462.32C130.456 1462.8 136.848 1464.58 142.697 1467.58C148.545 1470.58 153.729 1474.72 157.94 1479.77C166.313 1489.92 172.242 1501.86 175.269 1514.66C181.821 1539.16 177.789 1568.12 170.811 1592.51C144.294 1583.01 127.895 1554.71 120.413 1539.82C108.783 1516.33 101.843 1466.7 123.786 1462.28" fill="#0d6efd"/>
  <path d="M208.998 1622.24C205.015 1616.07 202.739 1608.95 202.398 1601.61C202.058 1594.27 203.666 1586.97 207.059 1580.45C210.559 1573.99 215.309 1568.3 221.034 1563.7C226.758 1559.1 233.341 1555.69 240.399 1553.66C246.874 1551.64 254.395 1550.83 260.016 1554.59C262.55 1556.51 264.524 1559.07 265.73 1562.01C266.937 1564.95 267.334 1568.16 266.878 1571.3C265.86 1577.6 263.184 1583.51 259.124 1588.44C246.215 1605.92 230.552 1620.46 208.726 1622.24" fill="#0d6efd"/>
  <path d="M211.944 1704.16C211.369 1702.51 210.966 1700.81 210.742 1699.08C210.044 1695.43 209.114 1690.74 207.989 1685.12C204.51 1669.73 203.541 1653.88 205.121 1638.17C206.949 1622.4 212.958 1607.39 222.527 1594.72C225.451 1590.92 228.823 1587.5 232.568 1584.52C233.586 1583.71 234.647 1582.96 235.747 1582.27C236.097 1581.98 236.489 1581.75 236.91 1581.57C232.006 1585.76 227.527 1590.42 223.535 1595.49C214.471 1608.18 208.763 1622.96 206.943 1638.45C204.462 1656.51 207.524 1673.07 209.308 1684.97C210.238 1690.9 211.013 1695.71 211.44 1699.04C211.745 1700.73 211.914 1702.44 211.944 1704.16V1704.16Z" fill="#263238"/>
  <path d="M132.431 1499.66C132.874 1500.27 133.238 1500.93 133.516 1501.63C134.214 1503.18 135.145 1505.12 136.23 1507.57C138.595 1512.72 141.89 1520.2 145.883 1529.47C153.87 1548.04 164.57 1573.86 175.735 1602.62C186.9 1631.39 196.398 1657.64 202.872 1676.75C206.206 1686.29 208.804 1694.04 210.626 1699.43C211.44 1701.99 212.06 1704.04 212.564 1705.63C212.841 1706.34 213.036 1707.08 213.146 1707.84C212.753 1707.18 212.44 1706.48 212.215 1705.75C211.634 1704.2 210.897 1702.18 209.928 1699.66L201.748 1677.18C194.808 1658.22 185.117 1632.01 173.99 1603.28C162.864 1574.56 152.319 1548.66 144.643 1529.97C140.766 1520.79 137.781 1513.3 135.571 1507.84C134.563 1505.36 133.749 1503.38 133.129 1501.79C132.838 1501.1 132.604 1500.39 132.431 1499.66V1499.66Z" fill="#263238"/>
  <path d="M180.426 1649.96C172.448 1636.68 161.425 1625.49 148.266 1617.31C135.107 1609.13 120.191 1604.21 104.751 1602.93C96.9971 1602.39 87.4602 1603.71 83.9711 1610.69C80.482 1617.67 85.1342 1626.2 90.4841 1631.86C101.851 1643.75 116.484 1652.01 132.538 1655.59C148.592 1659.18 165.349 1657.94 180.697 1652.01" fill="#0d6efd"/>
  <path d="M116.691 1623.95C118.335 1623.87 119.983 1623.93 121.615 1624.14C123.526 1624.24 125.429 1624.46 127.314 1624.8C129.523 1625.23 132.121 1625.46 134.835 1626.23C137.868 1626.88 140.859 1627.7 143.79 1628.72C147.186 1629.81 150.513 1631.1 153.753 1632.59C161.206 1635.93 168.256 1640.11 174.766 1645.04C181.2 1650.08 187.028 1655.86 192.133 1662.25C194.338 1665.03 196.371 1667.94 198.22 1670.97C199.892 1673.59 201.419 1676.29 202.795 1679.07C203.959 1681.34 204.995 1683.67 205.896 1686.05C206.673 1687.82 207.334 1689.63 207.873 1691.48C208.447 1693.03 208.876 1694.62 209.153 1696.25C208.726 1696.25 206.865 1689.58 201.632 1679.66C200.206 1676.99 198.641 1674.4 196.941 1671.9C195.051 1668.97 193.007 1666.13 190.815 1663.41C180.675 1650.88 167.744 1640.9 153.055 1634.26C149.683 1632.79 146.465 1631.39 143.325 1630.38C140.442 1629.33 137.504 1628.44 134.524 1627.71C123.669 1624.72 116.652 1624.37 116.691 1623.95Z" fill="#263238"/>
  <path d="M1876.48 408.923C1865.08 411.521 1859.54 424.663 1858.45 436.293C1857.37 447.924 1858.84 460.252 1853.96 470.874C1848.45 482.815 1835.31 491.654 1834.88 504.796C1834.61 512.821 1839.38 520.303 1839.15 528.406C1838.76 541.587 1825.35 551.667 1824.61 564.693C1824.11 574.191 1830.42 583.262 1828.91 592.644C1827.75 599.933 1822.05 605.67 1819.65 612.648C1814.88 626.605 1824.45 641.918 1836.9 649.749C1843.87 654.133 1851.71 656.941 1859.88 657.977C1868.05 659.014 1876.35 658.254 1884.2 655.751C1892.04 653.248 1899.25 649.062 1905.31 643.485C1911.37 637.908 1916.14 631.076 1919.28 623.465C1926.18 606.717 1924.67 587.837 1923.16 569.81C1918.5 513.571 1915.04 457.254 1912.77 400.86" fill="#263238"/>
  <path d="M1843.37 607.337C1845.72 605.88 1847.55 603.724 1848.61 601.173C1849.73 598.139 1850.17 594.899 1849.92 591.675C1849.5 587.401 1848.55 583.195 1847.09 579.153C1845.24 574.073 1844.55 568.641 1845.08 563.258C1846.05 557.21 1850.39 552.248 1854.31 547.363C1856.41 544.973 1858.18 542.297 1859.54 539.416C1860.91 536.502 1861.13 533.181 1860.16 530.112C1858.14 523.793 1851.94 519.14 1849.11 511.813C1847.78 508.186 1847.56 504.244 1848.49 500.493C1849.37 496.976 1850.67 493.579 1852.37 490.375C1855.64 484.604 1858.24 478.478 1860.12 472.115C1862.83 459.826 1861.56 448.079 1863.42 438.426C1864.45 430.694 1867.88 423.481 1873.22 417.801C1874.74 416.271 1876.46 414.966 1878.34 413.924C1878.99 413.586 1879.68 413.339 1880.4 413.188C1877.97 414.526 1875.74 416.196 1873.77 418.15C1868.81 423.887 1865.7 430.976 1864.81 438.503C1864.13 443.645 1863.77 448.824 1863.73 454.01C1863.71 460.114 1863.12 466.203 1861.94 472.193C1860.09 478.701 1857.49 484.972 1854.19 490.879C1851.28 496.965 1848.61 504.098 1851.17 510.767C1853.72 517.435 1859.89 522.048 1862.25 529.181C1863.32 532.705 1863.06 536.499 1861.52 539.842C1860.01 543.014 1858.05 545.951 1855.7 548.565C1851.82 553.45 1847.6 558.102 1846.67 563.53C1846.13 568.678 1846.73 573.882 1848.45 578.765C1849.84 582.933 1850.7 587.256 1851.01 591.636C1851.2 595.01 1850.6 598.381 1849.27 601.483C1848.43 603.428 1847.09 605.115 1845.39 606.368C1844.78 606.812 1844.1 607.141 1843.37 607.337V607.337Z" fill="#455A64"/>
  <path d="M1813.06 699.256L1778.17 800.052L1632.24 807.806L1607.9 862.081L1760.25 877.588C1767.45 880.543 1775.18 882.008 1782.96 881.895C1790.74 881.782 1798.41 880.093 1805.52 876.929C1812.63 873.766 1819.03 869.195 1824.32 863.491C1829.61 857.787 1833.69 851.069 1836.32 843.744L1876.98 730.231L1813.06 699.256Z" fill="#B78876"/>
  <path d="M2114.71 1650.35C2114.71 1650.35 2007.79 1310.66 2005.5 1299.65C2003.45 1289.65 2044.27 1045.22 2049.46 981.757L1904.97 987.146V988.58L1843.57 991.992L1898.54 1686.4H1965.03L1958.44 1455.93C1999.45 1565.99 2058.22 1678.18 2058.22 1678.18L2114.71 1650.35Z" fill="#B78876"/>
  <path d="M1961.15 1538.62C1961.15 1536.53 1960.34 1461.39 1960.34 1461.39C1959.52 1465.89 1934.86 1396.19 1935.45 1391.96C1935.76 1389.75 1961.15 1538.62 1961.15 1538.62Z" fill="#A36957"/>
  <path d="M1932.66 1358.93C1932.31 1360.31 1932.17 1361.73 1932.23 1363.16C1932.01 1367.03 1932.01 1370.91 1932.23 1374.79C1932.23 1377.23 1932.58 1379.86 1932.89 1382.73C1933.2 1385.6 1933.62 1388.63 1934.28 1391.77C1935.66 1398.62 1937.49 1405.38 1939.75 1412C1944.56 1426.08 1949.91 1438.37 1953.67 1447.28C1955.45 1451.16 1957 1454.84 1958.32 1457.79C1958.8 1459.16 1959.45 1460.46 1960.26 1461.66C1960.05 1460.32 1959.66 1459.02 1959.1 1457.79C1958.2 1455.23 1956.85 1451.55 1955.22 1447.01C1951.81 1437.94 1946.69 1425.53 1941.92 1411.62C1939.67 1405.09 1937.81 1398.44 1936.38 1391.69C1935.68 1388.59 1935.21 1385.6 1934.79 1382.81C1934.36 1380.02 1934.05 1377.38 1933.86 1375.06C1933.39 1370.25 1933.2 1366.37 1933.08 1363.66C1933.16 1362.07 1933.01 1360.48 1932.66 1358.93V1358.93Z" fill="#A36957"/>
  <path d="M1897.3 1689.93V1683.69L1965.41 1680.7L1965.61 1706.48L1961.42 1706.75C1942.7 1707.84 1866.25 1711.02 1853.76 1707.26C1839.77 1703.07 1897.3 1689.93 1897.3 1689.93Z" fill="#455A64"/>
  <path d="M1966.5 1704.93C1966.11 1704.96 1965.72 1704.96 1965.34 1704.93L1962 1705.17L1949.67 1705.71C1939.28 1706.13 1924.9 1706.52 1909.05 1706.6C1893.19 1706.68 1878.77 1706.41 1868.34 1706.1L1856.05 1705.59H1852.68H1851.51C1851.9 1705.56 1852.29 1705.56 1852.68 1705.59H1856.05L1868.38 1705.82C1878.77 1705.82 1893.15 1706.13 1909.01 1706.06C1924.86 1705.98 1939.28 1705.71 1949.67 1705.44L1962 1705.13H1966.5V1704.93Z" fill="#263238"/>
  <path d="M1875.09 1707.1C1874.52 1705.08 1873.74 1703.11 1872.76 1701.25C1871.53 1699.53 1870.11 1697.96 1868.53 1696.56C1870.65 1697.32 1872.41 1698.84 1873.46 1700.82C1874.74 1702.65 1875.32 1704.88 1875.09 1707.1V1707.1Z" fill="#263238"/>
  <path d="M1895.17 1696.91C1895.17 1696.91 1894.04 1695.86 1893.03 1694.31C1892.03 1692.76 1891.41 1691.4 1891.6 1691.29C1891.79 1691.17 1892.72 1692.29 1893.73 1693.85C1894.74 1695.4 1895.36 1696.79 1895.17 1696.91Z" fill="#263238"/>
  <path d="M1900.67 1694.16C1900.67 1694.35 1899.43 1693.61 1898.27 1692.57C1897.11 1691.52 1896.25 1690.55 1896.41 1690.39C1896.56 1690.24 1897.65 1690.94 1898.81 1691.98C1899.97 1693.03 1900.83 1693.81 1900.67 1694.16Z" fill="#263238"/>
  <path d="M1904.12 1687.56C1902.98 1687.98 1901.76 1688.14 1900.56 1688.03C1899.37 1688.19 1898.16 1688.07 1897.03 1687.68C1898.15 1687.27 1899.36 1687.11 1900.56 1687.22C1901.76 1687.05 1902.98 1687.17 1904.12 1687.56V1687.56Z" fill="#263238"/>
  <path d="M1905.29 1683.07C1904.13 1683.82 1902.79 1684.22 1901.41 1684.23C1900.09 1684.4 1898.75 1684.22 1897.53 1683.69C1898.81 1683.47 1900.11 1683.37 1901.41 1683.38C1902.69 1683.15 1903.99 1683.05 1905.29 1683.07Z" fill="#263238"/>
  <path d="M1892.88 1690.98C1891.43 1691.25 1889.95 1691.25 1888.5 1690.98C1886.93 1690.79 1885.39 1690.45 1883.89 1689.97C1882.95 1689.71 1882.06 1689.35 1881.21 1688.88C1880.69 1688.58 1880.31 1688.1 1880.12 1687.53C1880.05 1687.2 1880.08 1686.87 1880.19 1686.56C1880.31 1686.25 1880.52 1685.98 1880.78 1685.78C1881.86 1685.26 1883.03 1684.99 1884.23 1684.98C1885.42 1684.96 1886.6 1685.22 1887.68 1685.72C1888.77 1686.22 1889.72 1686.95 1890.49 1687.87C1891.25 1688.79 1891.8 1689.86 1892.1 1691.02C1892.18 1691.4 1892.18 1691.79 1892.1 1692.18C1891.67 1690.78 1890.98 1689.47 1890.09 1688.3C1889.06 1687.14 1887.71 1686.31 1886.21 1685.9C1884.5 1685.34 1882.63 1685.48 1881.02 1686.29C1880.36 1686.79 1880.63 1687.6 1881.37 1688.07C1882.16 1688.5 1882.99 1688.85 1883.85 1689.12C1885.3 1689.59 1886.79 1689.97 1888.3 1690.24C1891.21 1690.86 1892.88 1690.86 1892.88 1690.98Z" fill="#263238"/>
  <path d="M1891.76 1691.21C1891.19 1690.31 1891 1689.23 1891.21 1688.19C1891.35 1687.04 1891.77 1685.95 1892.41 1685.01C1892.78 1684.36 1893.3 1683.81 1893.93 1683.42C1894.56 1683.03 1895.28 1682.8 1896.02 1682.76C1896.46 1682.86 1896.84 1683.12 1897.09 1683.5C1897.35 1683.87 1897.45 1684.33 1897.38 1684.77C1897.28 1685.47 1897.03 1686.13 1896.64 1686.71C1896.05 1687.67 1895.36 1688.57 1894.59 1689.39C1893.91 1690.16 1893.06 1690.76 1892.1 1691.13C1892.1 1691.13 1892.96 1690.36 1894.16 1688.96C1894.86 1688.16 1895.47 1687.29 1895.98 1686.36C1896.56 1685.43 1896.99 1683.77 1895.98 1683.57C1894.97 1683.38 1893.81 1684.58 1893.15 1685.43C1892.53 1686.27 1892.11 1687.24 1891.91 1688.26C1891.75 1689.24 1891.7 1690.22 1891.76 1691.21V1691.21Z" fill="#263238"/>
  <path d="M1965.07 1686.4C1965.07 1686.4 1963.13 1686.4 1960.06 1686.6C1956.08 1687.07 1952.3 1688.66 1949.17 1691.17C1946.04 1693.69 1943.67 1697.03 1942.35 1700.82C1941.34 1703.73 1941.26 1705.71 1941.11 1705.67C1940.95 1705.63 1941.11 1705.17 1941.11 1704.31C1941.21 1703.06 1941.44 1701.83 1941.8 1700.63C1943.04 1696.66 1945.41 1693.14 1948.63 1690.51C1951.89 1687.93 1955.84 1686.38 1959.99 1686.05C1961.27 1685.9 1962.58 1685.9 1963.86 1686.05C1964.28 1686.12 1964.68 1686.23 1965.07 1686.4V1686.4Z" fill="#263238"/>
  <path d="M1932.46 1699.51C1929.21 1700.26 1925.87 1700.59 1922.54 1700.47C1919.22 1700.64 1915.89 1700.35 1912.65 1699.62C1912.65 1699.39 1917.07 1699.62 1922.54 1699.62C1928 1699.62 1932.42 1699.27 1932.46 1699.51Z" fill="#263238"/>
  <path d="M1945.72 1699.39C1945.72 1699.39 1945.37 1700.32 1944.91 1701.33C1944.44 1702.34 1944.21 1703.27 1943.98 1703.23C1943.74 1703.19 1943.63 1702.18 1944.17 1700.98C1944.71 1699.78 1945.56 1699.2 1945.72 1699.39Z" fill="#263238"/>
  <path d="M1950.72 1693.15C1950.72 1693.15 1950.45 1694 1949.75 1694.7C1949.05 1695.4 1948.36 1695.86 1948.16 1695.71C1947.97 1695.55 1948.43 1694.85 1949.13 1694.12C1949.83 1693.38 1950.53 1692.95 1950.72 1693.15Z" fill="#263238"/>
  <path d="M1957.85 1690.28C1957.85 1690.51 1956.92 1690.51 1955.92 1690.86C1954.91 1691.21 1954.21 1691.75 1954.02 1691.6C1953.82 1691.44 1954.4 1690.51 1955.64 1690.08C1956.89 1689.66 1957.93 1690.05 1957.85 1690.28Z" fill="#263238"/>
  <path d="M1962.93 1688.88C1962.93 1689.12 1962.66 1689.46 1962.08 1689.66C1961.5 1689.85 1960.99 1689.89 1960.92 1689.66C1960.84 1689.43 1961.23 1689.08 1961.77 1688.88C1962.31 1688.69 1962.86 1688.69 1962.93 1688.88Z" fill="#263238"/>
  <path d="M2056.87 1683.92L2054.31 1678.22L2115.21 1647.63L2125.95 1670.89L2122.08 1672.87C2105.44 1681.52 2037.02 1715.71 2024.07 1717.42C2009.76 1719.47 2056.87 1683.92 2056.87 1683.92Z" fill="#455A64"/>
  <path d="M2126.18 1669.23L2125.18 1669.85L2122.19 1671.4L2111.18 1676.98C2101.88 1681.59 2088.93 1687.84 2074.47 1694.43C2060.01 1701.02 2046.75 1706.64 2037.13 1710.63L2025.7 1715.25L2022.6 1716.45C2022.24 1716.61 2021.86 1716.73 2021.47 1716.8L2022.52 1716.29L2025.58 1714.93L2036.9 1710.09C2046.48 1705.98 2059.66 1700.24 2074.12 1693.65C2088.58 1687.06 2101.57 1680.94 2110.95 1676.44L2122.04 1671.13L2125.1 1669.69L2126.18 1669.23Z" fill="#263238"/>
  <path d="M2043.8 1708.65C2042.46 1707.02 2040.94 1705.54 2039.27 1704.24C2037.45 1703.16 2035.51 1702.3 2033.49 1701.68C2035.72 1701.65 2037.9 1702.3 2039.74 1703.55C2041.59 1704.79 2043 1706.58 2043.8 1708.65V1708.65Z" fill="#263238"/>
  <path d="M2057.8 1691.13C2057.8 1691.13 2056.32 1690.67 2054.77 1689.66C2053.22 1688.65 2052.1 1687.68 2052.22 1687.49C2052.33 1687.29 2053.69 1687.95 2055.24 1688.96C2056.79 1689.97 2057.91 1690.94 2057.8 1691.13Z" fill="#263238"/>
  <path d="M2061.6 1686.4C2061.6 1686.6 2060.28 1686.4 2058.77 1685.94C2057.26 1685.47 2056.13 1684.89 2056.17 1684.66C2057.15 1684.57 2058.14 1684.73 2059.04 1685.12C2060.51 1685.47 2061.67 1686.01 2061.6 1686.4Z" fill="#263238"/>
  <path d="M2062.14 1678.96C2062.14 1679.19 2060.86 1680.01 2059.08 1680.86C2058.05 1681.48 2056.9 1681.86 2055.7 1681.98C2055.7 1681.75 2056.98 1680.94 2058.73 1680.08C2059.77 1679.47 2060.94 1679.08 2062.14 1678.96V1678.96Z" fill="#263238"/>
  <path d="M2061.36 1674.38C2061.36 1674.38 2060.24 1675.93 2058.22 1677.06C2057.08 1677.83 2055.73 1678.24 2054.35 1678.22C2055.46 1677.47 2056.64 1676.84 2057.88 1676.32C2059.78 1675.28 2061.17 1674.19 2061.36 1674.38Z" fill="#263238"/>
  <path d="M2053.42 1686.71C2052.24 1687.52 2050.93 1688.13 2049.54 1688.5C2048.02 1688.94 2046.46 1689.26 2044.89 1689.46C2043.94 1689.58 2042.97 1689.58 2042.02 1689.46C2041.42 1689.42 2040.86 1689.14 2040.47 1688.69C2040.29 1688.41 2040.19 1688.09 2040.19 1687.76C2040.19 1687.43 2040.29 1687.1 2040.47 1686.83C2041.65 1685.4 2043.29 1684.43 2045.1 1684.07C2046.92 1683.72 2048.8 1684.01 2050.43 1684.89C2051.39 1685.39 2052.24 1686.09 2052.91 1686.94C2053.38 1687.56 2053.57 1687.95 2053.53 1687.99C2052.58 1686.93 2051.44 1686.04 2050.16 1685.39C2048.8 1684.75 2047.27 1684.52 2045.78 1684.73C2044.89 1684.83 2044.03 1685.09 2043.25 1685.52C2042.46 1685.95 2041.77 1686.52 2041.21 1687.22C2040.78 1687.95 2041.21 1688.57 2042.25 1688.69C2043.14 1688.77 2044.04 1688.77 2044.93 1688.69C2046.47 1688.53 2048 1688.26 2049.5 1687.87C2051.71 1687.25 2053.42 1686.6 2053.42 1686.71Z" fill="#263238"/>
  <path d="M2052.33 1687.37C2051.47 1686.76 2050.86 1685.85 2050.63 1684.81C2050.29 1683.72 2050.21 1682.57 2050.39 1681.44C2050.46 1680.7 2050.72 1679.98 2051.14 1679.36C2051.56 1678.75 2052.13 1678.25 2052.8 1677.91C2053.77 1677.6 2056.01 1679.58 2056.17 1680.32C2056.32 1681.05 2055.05 1680.66 2054.97 1681.28C2054.84 1682.38 2054.58 1683.47 2054.19 1684.5C2053.91 1685.5 2053.38 1686.41 2052.64 1687.14C2052.64 1687.14 2053.11 1686.09 2053.65 1684.35C2053.93 1683.32 2054.12 1682.27 2054.23 1681.21C2054.23 1680.12 2054.23 1678.45 2052.99 1678.73C2051.75 1679 2051.4 1680.51 2051.13 1681.59C2050.89 1682.6 2050.89 1683.65 2051.13 1684.66C2051.45 1685.6 2051.85 1686.5 2052.33 1687.37V1687.37Z" fill="#263238"/>
  <path d="M2117.27 1652.91C2117.27 1652.91 2115.41 1653.57 2112.77 1655.15C2109.32 1657.22 2106.52 1660.2 2104.67 1663.76C2102.87 1667.36 2102.11 1671.39 2102.46 1675.39C2102.69 1678.49 2103.43 1680.28 2103.27 1680.35C2103.02 1679.97 2102.83 1679.55 2102.69 1679.11C2102.31 1677.93 2102.03 1676.71 2101.88 1675.47C2101.32 1671.34 2102.04 1667.14 2103.93 1663.43C2105.82 1659.72 2108.79 1656.67 2112.46 1654.69C2113.56 1654.08 2114.71 1653.59 2115.91 1653.22C2116.35 1653.05 2116.8 1652.94 2117.27 1652.91V1652.91Z" fill="#263238"/>
  <path d="M2092.88 1678.26C2087.42 1682.06 2081.31 1684.85 2074.86 1686.48C2074.86 1686.25 2078.93 1684.7 2083.89 1682.6C2088.85 1680.51 2092.77 1678.07 2092.88 1678.26Z" fill="#263238"/>
  <path d="M2104.94 1672.72C2105.13 1672.72 2104.94 1673.69 2104.94 1674.81C2104.94 1675.93 2104.94 1676.86 2104.94 1676.94C2104.94 1677.02 2104.16 1676.09 2104.16 1674.81C2104.16 1673.53 2104.75 1672.6 2104.94 1672.72Z" fill="#263238"/>
  <path d="M2106.92 1664.96C2107.11 1664.96 2106.92 1665.85 2106.68 1666.79C2106.45 1667.72 2105.87 1668.41 2105.68 1668.34C2105.48 1668.26 2105.68 1667.44 2105.91 1666.51C2106.14 1665.58 2106.68 1664.89 2106.92 1664.96Z" fill="#263238"/>
  <path d="M2112.27 1659.26C2112.27 1659.5 2111.49 1659.85 2110.72 1660.58C2109.94 1661.32 2109.51 1662.09 2109.32 1662.02C2109.13 1661.94 2109.32 1660.85 2110.17 1659.96C2111.03 1659.07 2112.23 1659.26 2112.27 1659.26Z" fill="#263238"/>
  <path d="M2116.34 1656.09C2116.34 1656.09 2116.34 1656.71 2115.87 1657.13C2115.41 1657.56 2114.98 1657.79 2114.83 1657.64C2114.67 1657.48 2114.83 1657.02 2115.29 1656.59C2115.76 1656.16 2116.18 1655.93 2116.34 1656.09Z" fill="#263238"/>
  <path d="M2040.08 867.004L2028.76 728.603L2086.91 729.65C2086.91 729.65 2089.59 709.219 2081.02 664.481C2075.75 637.033 2057.49 620.208 2036.98 610.206V609.818L2035.2 609.353C2018.31 601.774 2000.28 597.07 1981.85 595.436L1910.33 596.25C1910.33 596.25 1855.7 589.271 1825.58 628.388C1813.95 643.391 1777.86 746.087 1777.86 746.087L1863.73 787.414L1855.7 730.464C1855.7 730.464 1857.33 771.752 1862.6 784.739C1865.51 792.027 1874.23 814.668 1874.23 814.668L1873.11 882.977L2040.08 867.004Z" fill="#0d6efd"/>
  <path d="M2000.65 708.521L1990.03 753.725H2090.17L2083.58 677.895L2000.65 708.521Z" fill="#0d6efd"/>
  <path d="M2090.17 753.725C2085.79 752.919 2081.36 752.478 2076.91 752.407C2068.69 751.941 2057.53 751.515 2044.81 751.592C2032.09 751.67 2020.89 752.213 2012.67 752.833C2008.23 752.988 2003.8 753.533 1999.45 754.461C2003.89 754.815 2008.35 754.815 2012.79 754.461C2020.97 754.19 2032.17 753.88 2044.81 753.841C2057.45 753.802 2068.65 753.841 2076.87 754.035C2081.31 754.283 2085.75 754.18 2090.17 753.725V753.725Z" fill="#263238"/>
  <path d="M1996.31 677.546C1995.83 681.404 1995.73 685.298 1996 689.176C1996 696.271 1996.31 706.04 1996.74 716.856C1997.17 727.673 1997.67 737.481 1998.13 744.537C1998.15 748.445 1998.57 752.342 1999.37 756.167C1999.85 752.309 1999.95 748.414 1999.69 744.537C1999.69 737.442 1999.37 727.634 1998.95 716.818C1998.52 706.001 1998.02 696.232 1997.55 689.137C1997.54 685.241 1997.12 681.357 1996.31 677.546Z" fill="#263238"/>
  <g opacity="0.3">
    <path d="M1905.21 716.701C1905.21 716.701 1927.46 881.736 1990.03 877.355C1990.03 877.355 2018.22 877.045 2027.25 858.32V850.954L1905.21 716.701Z" fill="black"/>
  </g>
  <g opacity="0.3">
    <path d="M1996.31 687.277L1984.33 768.185L1992.09 782.374L2004.88 754.616L1999.45 754.461L1996.31 687.277Z" fill="black"/>
  </g>
  <path d="M1873.88 814.745C1873.14 813.537 1872.57 812.233 1872.18 810.869C1871.21 808.349 1869.93 804.666 1868.3 800.052C1864.42 788.031 1861.22 775.8 1858.73 763.417C1856.24 751.026 1854.66 738.471 1854 725.851C1853.76 721.005 1853.69 717.089 1853.76 714.22C1853.66 712.819 1853.75 711.41 1854.03 710.033C1854.34 710.033 1854.58 716.004 1855.39 725.54C1856.48 738.046 1858.26 750.484 1860.7 762.796C1863.57 777.218 1867.02 790.128 1869.66 799.393C1870.9 803.696 1871.94 807.379 1872.8 810.403C1873.33 811.803 1873.69 813.26 1873.88 814.745V814.745Z" fill="#263238"/>
  <path d="M1899.16 862.158C1898.62 862.158 1897.07 858.786 1895.71 854.405C1894.54 851.72 1894.02 848.798 1894.2 845.876C1895.91 848.245 1897.08 850.956 1897.65 853.823C1898.76 856.456 1899.28 859.303 1899.16 862.158V862.158Z" fill="#263238"/>
  <path d="M1907.8 861.538C1904.87 853.761 1904.75 845.205 1907.46 837.347C1907.76 841.373 1907.76 845.416 1907.46 849.443C1907.88 853.46 1908 857.503 1907.8 861.538V861.538Z" fill="#263238"/>
  <path d="M1865.47 789.314C1865.2 789.779 1845.23 780.319 1820.85 768.146C1796.46 755.973 1776.89 745.661 1777.12 745.157C1777.35 744.653 1797.36 754.151 1821.74 766.324C1846.13 778.497 1865.7 788.81 1865.47 789.314Z" fill="#263238"/>
  <path d="M1900.67 609.625C1901.1 590.008 1901.21 569.384 1901.21 569.384C1901.21 569.384 1876.05 564.538 1871.67 531.43C1867.49 499.873 1879.19 425.787 1879.19 425.787C1915.95 411.909 1954.13 424.508 1979.29 454.282L1973.05 613.501C1972.31 631.994 1955.84 646.105 1936.07 645.175C1916.06 644.206 1900.25 628.311 1900.67 609.625Z" fill="#B78876"/>
  <path d="M1877.26 484.986C1877.22 486.073 1877.6 487.132 1878.32 487.946C1879.05 488.76 1880.05 489.268 1881.13 489.367C1881.68 489.42 1882.24 489.36 1882.76 489.192C1883.29 489.023 1883.78 488.749 1884.2 488.387C1884.61 488.024 1884.95 487.58 1885.19 487.082C1885.43 486.584 1885.57 486.042 1885.59 485.49C1885.62 484.407 1885.24 483.353 1884.52 482.545C1883.8 481.737 1882.79 481.237 1881.71 481.148C1881.16 481.064 1880.6 481.101 1880.06 481.255C1879.52 481.41 1879.03 481.678 1878.6 482.043C1878.18 482.407 1877.84 482.859 1877.61 483.367C1877.38 483.875 1877.26 484.427 1877.26 484.986V484.986Z" fill="#263238"/>
  <path d="M1875.71 479.442C1876.21 479.985 1879.58 477.698 1884.04 477.853C1888.5 478.008 1891.79 480.334 1892.34 479.791C1892.88 479.248 1892.1 478.55 1890.67 477.426C1888.73 476.02 1886.4 475.248 1884 475.216C1881.64 475.126 1879.31 475.807 1877.37 477.155C1875.94 478.202 1875.43 479.171 1875.71 479.442Z" fill="#263238"/>
  <path d="M1923.43 487.855C1923.38 488.944 1923.76 490.008 1924.49 490.824C1925.21 491.641 1926.22 492.146 1927.31 492.236C1927.86 492.32 1928.43 492.282 1928.97 492.126C1929.51 491.969 1930.01 491.697 1930.43 491.328C1930.85 490.959 1931.19 490.503 1931.42 489.99C1931.65 489.477 1931.77 488.921 1931.76 488.359C1931.81 487.273 1931.43 486.214 1930.7 485.404C1929.98 484.594 1928.97 484.096 1927.89 484.017C1927.33 483.933 1926.77 483.969 1926.23 484.124C1925.7 484.278 1925.2 484.547 1924.78 484.912C1924.35 485.276 1924.01 485.728 1923.78 486.236C1923.55 486.744 1923.43 487.296 1923.43 487.855V487.855Z" fill="#263238"/>
  <path d="M1923.12 482.311C1923.62 482.892 1926.99 480.605 1931.45 480.721C1935.91 480.838 1939.21 483.203 1939.79 482.66C1940.37 482.117 1939.52 481.419 1938.08 480.334C1936.17 478.891 1933.85 478.102 1931.45 478.085C1929.08 478.014 1926.75 478.693 1924.79 480.024C1923.39 481.07 1922.89 482.04 1923.12 482.311Z" fill="#263238"/>
  <path d="M1905.75 515.613C1903.37 514.794 1900.89 514.286 1898.38 514.101C1897.22 514.101 1896.14 513.674 1895.98 512.899C1895.89 511.687 1896.19 510.477 1896.83 509.448L1900.48 500.726C1903.87 493.312 1906.66 485.637 1908.81 477.775C1904.84 484.898 1901.45 492.327 1898.66 499.989C1897.45 503.052 1896.25 505.998 1895.13 508.789C1894.38 510.174 1894.13 511.778 1894.43 513.325C1894.58 513.746 1894.83 514.125 1895.15 514.434C1895.48 514.744 1895.86 514.974 1896.29 515.109C1896.93 515.295 1897.6 515.399 1898.27 515.419C1900.74 515.8 1903.26 515.865 1905.75 515.613V515.613Z" fill="#263238"/>
  <path d="M1901.21 569.384C1916.72 570.004 1932.1 566.314 1945.64 558.722C1945.64 558.722 1934.36 581.091 1901.45 577.176L1901.21 569.384Z" fill="#A36957"/>
  <path d="M1937.7 469.091C1936.76 470.526 1933.28 469.905 1929.4 469.091C1925.52 468.277 1922.11 467.618 1921.65 465.951C1921.18 464.284 1925.25 462.074 1930.45 463.121C1935.64 464.168 1938.63 467.851 1937.7 469.091Z" fill="#263238"/>
  <path d="M1892.45 462.501C1892.1 464.168 1888.38 464.788 1884.12 464.982C1879.85 465.176 1876.09 464.982 1875.59 463.276C1875.08 461.57 1878.69 459.167 1883.85 458.934C1889 458.701 1892.8 460.911 1892.45 462.501Z" fill="#263238"/>
  <path d="M1905.83 526.506C1905.34 526.39 1904.82 526.442 1904.37 526.653C1903.91 526.863 1903.54 527.221 1903.31 527.669C1903.09 528.065 1902.97 528.511 1902.98 528.964C1902.98 529.416 1903.11 529.86 1903.34 530.25C1903.56 530.641 1903.89 530.965 1904.29 531.19C1904.68 531.415 1905.12 531.533 1905.58 531.533C1906.03 531.533 1906.47 531.415 1906.87 531.19C1907.26 530.965 1907.59 530.641 1907.82 530.25C1908.05 529.86 1908.17 529.416 1908.17 528.964C1908.18 528.511 1908.06 528.065 1907.84 527.669C1907.57 527.149 1907.12 526.738 1906.58 526.506C1906.03 526.273 1905.43 526.232 1904.86 526.39" fill="#A36957"/>
  <path d="M1906.87 526.972C1906.87 526.778 1906.14 525.653 1904.16 526.08C1903.57 526.234 1903.03 526.541 1902.59 526.969C1902.16 527.398 1901.84 527.934 1901.68 528.522C1901.47 529.265 1901.49 530.052 1901.73 530.784C1901.97 531.516 1902.43 532.159 1903.04 532.632C1903.68 533.073 1904.45 533.31 1905.23 533.31C1906.01 533.31 1906.77 533.073 1907.42 532.632C1907.93 532.284 1908.34 531.797 1908.59 531.227C1908.83 530.657 1908.91 530.028 1908.81 529.414C1908.43 527.359 1906.91 527.049 1906.84 527.32C1906.76 527.592 1907.38 528.29 1907.26 529.491C1907.24 529.788 1907.14 530.074 1906.98 530.325C1906.81 530.575 1906.59 530.781 1906.33 530.926C1906.03 531.099 1905.69 531.191 1905.34 531.191C1905 531.191 1904.65 531.099 1904.35 530.926C1904.08 530.696 1903.88 530.401 1903.76 530.068C1903.63 529.735 1903.6 529.376 1903.66 529.026C1903.7 528.72 1903.82 528.429 1904 528.179C1904.18 527.929 1904.43 527.728 1904.7 527.592C1905.79 526.933 1906.76 527.243 1906.87 526.972Z" fill="#263238"/>
  <path d="M1964.25 493.166C1960.37 502.238 1950.76 509.255 1952.08 519.063C1952.93 525.382 1957 531.275 1956.23 537.633C1955.22 545.386 1946.96 551.124 1945.76 559.071C1944.32 568.802 1953.82 576.362 1957.58 585.433C1963.13 598.692 1956.07 613.579 1955.88 628.078C1956.11 639.086 1960.32 649.638 1967.73 657.779C1975.14 665.919 1985.26 671.097 1996.2 672.351C2005.03 673.088 2015 670.413 2019.46 662.814C2023.33 656.534 2022.48 648.547 2024.73 641.608C2028.14 631.218 2038.03 623.62 2040.24 612.92C2044.11 593.536 2020.46 577.253 2022.02 557.404C2022.67 548.914 2027.91 541.548 2030.12 533.329C2031.52 527.928 2031.63 522.27 2030.43 516.819C2029.23 511.368 2026.76 506.278 2023.22 501.966C2017.36 495.027 2008.91 490.336 2003.83 482.892C1998.21 474.325 1998.02 463.508 1996.08 453.39C1993.48 441.091 1987.8 429.653 1979.57 420.145C1971.35 410.637 1960.85 403.369 1949.06 399.02C1937.26 394.672 1924.56 393.384 1912.13 395.279C1899.7 397.174 1887.96 402.188 1877.99 409.854C1877.99 409.854 1872.37 435.402 1898.62 439.705C1924.86 444.008 1937 439.046 1939.94 449.552C1939.25 453.88 1939.59 458.311 1940.94 462.482C1942.29 466.653 1944.6 470.446 1947.7 473.549C1958.4 485.102 1968.59 482.621 1964.25 493.166Z" fill="#263238"/>
  <path d="M2005.93 670.374C2005.12 670.401 2004.31 670.323 2003.52 670.141C2001.25 669.738 1999.02 669.128 1996.85 668.319C1988.85 665.25 1981.83 660.064 1976.54 653.316C1972.83 648.659 1969.92 643.419 1967.93 637.809C1965.67 631.42 1964.48 624.699 1964.41 617.921C1964.33 610.45 1965.26 603.002 1967.2 595.784C1968.25 591.973 1969.55 588.231 1971.07 584.581C1972.67 580.947 1974.09 577.234 1975.3 573.454C1976.37 569.73 1976.37 565.781 1975.3 562.056C1974.17 558.39 1972.7 554.834 1970.92 551.434C1969.12 548.062 1967.61 544.548 1966.38 540.928C1965.19 537.345 1964.91 533.52 1965.57 529.802C1967.12 522.513 1971.54 517.086 1974.18 511.542C1976.69 506.41 1977.89 500.736 1977.66 495.027C1977.31 486.672 1974.28 478.653 1969.02 472.154C1966.98 469.877 1964.79 467.74 1962.47 465.757C1965.19 467.284 1967.61 469.279 1969.64 471.65C1975.29 478.139 1978.61 486.322 1979.1 494.911C1979.42 500.868 1978.25 506.812 1975.69 512.201C1973.01 517.939 1968.71 523.405 1967.39 530.073C1966.07 536.741 1969.21 543.758 1972.66 550.504C1974.55 554.001 1976.08 557.676 1977.24 561.475C1978.38 565.531 1978.38 569.825 1977.24 573.881C1975.95 577.792 1974.46 581.635 1972.78 585.395C1971.26 588.966 1969.96 592.63 1968.9 596.366C1966.98 603.401 1966.03 610.666 1966.07 617.96C1965.95 630.381 1969.96 642.49 1977.47 652.386C1982.49 659.05 1989.18 664.277 1996.85 667.544C2002.63 669.792 2005.97 670.141 2005.93 670.374Z" fill="#455A64"/>
  <path d="M2002.05 474.751C2000.16 475.24 1998.22 475.526 1996.27 475.604C1990.95 476.173 1985.58 476.03 1980.3 475.178C1976.3 474.585 1972.45 473.199 1968.99 471.103C1965.53 469.006 1962.52 466.239 1960.14 462.966C1957.93 458.824 1956.16 454.457 1954.87 449.94C1953.21 445.427 1950.1 441.595 1946.03 439.046C1937.54 433.657 1927.58 432.998 1918.89 431.951C1910.88 431.552 1903.11 429.124 1896.29 424.896C1891.73 421.872 1888.43 417.278 1887.03 411.986C1886.69 410.552 1886.6 409.07 1886.75 407.605C1886.75 406.597 1886.99 406.093 1887.06 406.093C1887.11 408.013 1887.36 409.924 1887.8 411.792C1889.41 416.74 1892.7 420.967 1897.11 423.733C1903.79 427.636 1911.35 429.82 1919.09 430.091C1927.77 431.099 1938.08 431.603 1947.15 437.34C1951.59 440.128 1954.98 444.316 1956.77 449.242C1957.98 453.645 1959.66 457.907 1961.77 461.958C1966.29 468.152 1973.05 472.328 1980.61 473.588C1985.72 474.538 1990.93 474.89 1996.12 474.635C1998.1 474.524 2000.08 474.563 2002.05 474.751V474.751Z" fill="#455A64"/>
  <path d="M1992.44 443.194C1990.97 443.683 1989.44 443.906 1987.9 443.853C1980.67 443.902 1973.71 441.119 1968.52 436.1C1966.14 433.722 1964.12 431.02 1962.51 428.075C1959.02 422.182 1955.64 414.932 1948.39 411.909C1941.41 409.565 1933.97 408.914 1926.69 410.009C1920.54 410.872 1914.3 410.872 1908.15 410.009C1903.88 409.416 1899.85 407.644 1896.52 404.892C1895.66 404.142 1894.91 403.282 1894.28 402.333C1893.81 401.661 1893.62 401.312 1893.69 401.286C1893.69 401.286 1894.78 402.527 1897.03 404.271C1900.34 406.629 1904.19 408.122 1908.23 408.613C1914.27 409.294 1920.37 409.19 1926.37 408.303C1933.98 407.061 1941.77 407.727 1949.05 410.241C1952.8 411.924 1956 414.607 1958.32 417.995C1960.36 421.017 1962.24 424.149 1963.94 427.377C1965.47 430.195 1967.36 432.801 1969.56 435.13C1971.51 437.1 1973.74 438.761 1976.19 440.054C1979.8 441.937 1983.76 443.033 1987.82 443.272C1990.81 443.233 1992.4 443 1992.44 443.194Z" fill="#455A64"/>
  <path d="M2017.48 662C2017.29 662 2018.53 659.441 2019.96 654.634C2021.9 647.885 2022.77 640.873 2022.52 633.854C2022.24 623.466 2019.4 613.307 2014.26 604.275C2011.43 599.196 2007.13 594.66 2003.6 589.078C2001.73 586.234 2000.42 583.064 1999.72 579.735C1999.11 576.23 1999.41 572.627 2000.58 569.267C2002.75 562.56 2006.62 556.939 2007.48 550.775C2008.33 544.611 2005.38 539.145 2002.44 533.988C2000.92 531.479 1999.53 528.891 1998.29 526.235C1997.16 523.659 1996.41 520.928 1996.08 518.132C1995.71 513.206 1995.87 508.255 1996.54 503.362C1997.78 496.445 1997.14 489.321 1994.68 482.737C1993.59 480.431 1992.03 478.373 1990.11 476.69C1990.11 476.69 1990.3 476.69 1990.57 476.922C1991.03 477.15 1991.45 477.451 1991.82 477.814C1993.33 479.077 1994.56 480.65 1995.42 482.427C1998.22 489.067 1999.1 496.364 1997.94 503.478C1997.41 508.281 1997.34 513.124 1997.75 517.939C1998.7 523.355 2000.85 528.492 2004.03 532.98C2005.68 535.6 2007.09 538.364 2008.25 541.238C2009.47 544.34 2009.87 547.705 2009.42 551.008C2008.49 557.792 2004.49 563.53 2002.48 569.849C2001.42 572.898 2001.14 576.162 2001.66 579.347C2002.34 582.427 2003.57 585.357 2005.31 587.992C2008.6 593.381 2013.06 597.994 2015.89 603.305C2021.08 612.642 2023.86 623.132 2023.95 633.816C2024.08 640.967 2022.97 648.087 2020.7 654.867C2020.08 656.702 2019.33 658.489 2018.45 660.217C2018.21 660.854 2017.89 661.455 2017.48 662V662Z" fill="#455A64"/>
  <path d="M1859.58 1384.36C1859.58 1384.36 1833.45 1136.87 1831.94 1045.41C1830.42 953.961 1873.07 863.709 1873.07 863.709L2040.08 856.77C2040.08 856.77 2073.11 949.541 2073.69 988.58C2074.86 1064.33 2053.57 1139.12 2056.01 1199.21L2061.6 1384.52" fill="#263238"/>
  <path d="M2067.22 1080.07C2066.35 1080.83 2065.43 1081.53 2064.47 1082.17L2062.95 1083.21L2061.33 1084.8C2059.89 1086.04 2058.59 1087.43 2057.45 1088.95C2052.06 1095.54 2048.14 1107.37 2044.38 1122.06C2042.46 1130.21 2039.63 1138.12 2035.93 1145.63C2034.81 1147.69 2033.51 1149.65 2032.06 1151.48C2031.36 1152.41 2030.7 1153.42 2029.89 1154.31L2027.33 1156.87C2023.66 1160.3 2019.41 1163.03 2014.77 1164.94C2005.42 1169.04 1994.84 1170.98 1985.22 1175.83C1975.37 1181.13 1967.76 1189.8 1963.79 1200.25C1959.06 1210.76 1956.03 1221.77 1952.16 1232.08C1948.28 1242.39 1943.05 1252.24 1934.71 1258.52C1926.74 1264.06 1917.28 1267.05 1907.57 1267.09C1898.58 1267.63 1890.24 1267.36 1882.76 1268.48C1876.03 1269.18 1869.59 1271.61 1864.07 1275.54C1860.05 1278.69 1857.03 1282.95 1855.39 1287.79C1854.35 1290.85 1854.12 1294.12 1854.73 1297.29C1855.2 1299.46 1855.78 1300.51 1855.66 1300.55C1855.04 1299.57 1854.59 1298.5 1854.34 1297.37C1853.53 1294.13 1853.63 1290.73 1854.65 1287.56C1856.19 1282.47 1859.24 1277.97 1863.38 1274.65C1869.03 1270.38 1875.72 1267.71 1882.76 1266.89C1890.51 1265.65 1898.77 1265.81 1907.65 1265.23C1917.07 1265.17 1926.25 1262.25 1933.97 1256.85C1941.81 1250.01 1947.59 1241.12 1950.68 1231.19C1954.56 1220.99 1957.39 1209.94 1962.31 1199.24C1966.48 1188.36 1974.44 1179.35 1984.72 1173.85C1994.72 1168.89 2005.31 1166.99 2014.42 1163.04C2018.88 1161.19 2022.97 1158.56 2026.51 1155.28L2028.95 1152.84C2029.73 1151.99 2030.39 1151.02 2031.09 1150.13C2032.45 1148.36 2033.66 1146.48 2034.69 1144.5C2038.41 1137.09 2041.28 1129.29 2043.26 1121.24C2047.14 1106.59 2051.36 1094.61 2057.06 1087.98C2058.2 1086.47 2059.5 1085.09 2060.94 1083.87C2061.56 1083.33 2062.1 1082.79 2062.64 1082.36L2064.23 1081.35C2065.2 1080.87 2066.2 1080.44 2067.22 1080.07V1080.07Z" fill="#FAFAFA"/>
  <path d="M2068.23 965.552C2068.4 966.641 2068.48 967.744 2068.46 968.848C2068.45 972.048 2068.06 975.236 2067.3 978.346C2063.96 989.686 2057.4 999.814 2048.42 1007.5C2042.49 1012.95 2035.99 1017.75 2029.03 1021.8C2021.55 1026.22 2013.29 1030.45 2004.8 1035.26C1995.88 1040.04 1987.58 1045.88 1980.07 1052.66C1972.36 1060.31 1966.02 1069.21 1961.3 1078.99C1956.55 1088.9 1951.12 1098.47 1945.06 1107.64C1941.98 1111.91 1938.42 1115.81 1934.44 1119.27C1930.52 1122.6 1926.21 1125.45 1921.61 1127.76C1913.28 1131.85 1904.6 1135.18 1895.67 1137.72C1887.37 1140.28 1879.62 1142.57 1872.88 1145.47C1866.75 1147.91 1860.93 1151.03 1855.51 1154.78C1851.43 1157.61 1847.76 1160.99 1844.61 1164.82C1841.98 1168.14 1839.77 1171.79 1838.06 1175.67C1838.34 1174.6 1838.7 1173.55 1839.15 1172.53C1840.42 1169.61 1842.05 1166.84 1843.99 1164.31C1847.09 1160.32 1850.74 1156.79 1854.85 1153.85C1860.29 1149.97 1866.16 1146.72 1872.33 1144.16C1879.8 1141.11 1887.42 1138.46 1895.17 1136.21C1903.97 1133.61 1912.53 1130.27 1920.75 1126.21C1925.12 1123.93 1929.21 1121.17 1932.97 1117.99C1936.79 1114.58 1940.22 1110.76 1943.2 1106.59C1949.18 1097.47 1954.55 1087.96 1959.29 1078.13C1964.15 1068.14 1970.71 1059.06 1978.67 1051.31C1986.32 1044.43 1994.78 1038.51 2003.87 1033.71C2012.4 1028.94 2020.66 1024.79 2028.14 1020.41C2035.08 1016.49 2041.58 1011.83 2047.52 1006.53C2056.43 999.075 2063.04 989.249 2066.6 978.191C2067.59 974.049 2068.14 969.811 2068.23 965.552V965.552Z" fill="#FAFAFA"/>
  <path d="M1832.79 1058.36C1832.64 1058.12 1832.52 1057.86 1832.44 1057.59C1832.15 1056.84 1831.9 1056.08 1831.7 1055.3C1831.04 1052.22 1831.17 1049.01 1832.09 1046C1834.26 1038.24 1842.83 1028.28 1856.63 1023.36C1863.53 1020.99 1871.32 1019.48 1879.47 1017.46C1886.23 1016.34 1892.62 1013.62 1898.12 1009.53C1903.61 1005.43 1908.05 1000.09 1911.06 993.93C1913.27 989.412 1915.19 984.764 1916.84 980.013C1919.87 969.693 1923.99 959.726 1929.13 950.278C1935.02 940.991 1943.95 934.042 1954.4 930.622C1963.91 927.538 1973.61 925.077 1983.44 923.257C1992.21 921.572 2000.71 918.676 2008.68 914.65C2015.43 910.792 2021.25 905.498 2025.74 899.143C2032.36 889.967 2036.13 879.046 2036.59 867.741C2036.61 863.592 2036.34 859.447 2035.78 855.335C2036.95 859.363 2037.49 863.548 2037.37 867.741C2037.22 879.291 2033.57 890.524 2026.9 899.957C2022.36 906.522 2016.41 911.992 2009.49 915.968C2001.41 920.144 1992.79 923.159 1983.87 924.924C1974.13 926.772 1964.52 929.245 1955.1 932.328C1945.07 935.616 1936.49 942.29 1930.83 951.208C1925.78 960.527 1921.71 970.351 1918.7 980.517C1917.02 985.354 1915.04 990.081 1912.77 994.667C1910.47 999.073 1907.55 1003.12 1904.08 1006.69C1897.27 1012.89 1888.89 1017.12 1879.85 1018.9C1871.63 1020.99 1863.88 1022.31 1857.1 1024.56C1843.64 1029.13 1835.12 1038.55 1832.83 1046.07C1831.89 1048.97 1831.64 1052.05 1832.09 1055.07C1832.42 1056.14 1832.65 1057.25 1832.79 1058.36V1058.36Z" fill="#FAFAFA"/>
  <path d="M2053.88 1267.71C2054.04 1268.51 2054.13 1269.33 2054.15 1270.15C2054.23 1272.5 2053.98 1274.85 2053.42 1277.13C2050.98 1285.54 2045.83 1292.9 2038.76 1298.06C2034.05 1301.82 2028.83 1304.9 2023.26 1307.21C2017.32 1309.73 2010.77 1311.75 2003.87 1313.88C1996.71 1315.97 1989.7 1318.57 1982.9 1321.64C1975.83 1325.01 1969.5 1329.74 1964.25 1335.55C1958.59 1341.45 1953.71 1347.92 1948.28 1353.66C1943.09 1359.21 1937.06 1363.92 1930.41 1367.61C1919.09 1373.79 1906.43 1377.09 1893.54 1377.23C1884.9 1377.32 1876.32 1375.89 1868.18 1373C1865.98 1372.24 1863.82 1371.32 1861.75 1370.25C1860.99 1369.94 1860.28 1369.53 1859.62 1369.05C1860.4 1369.26 1861.16 1369.53 1861.9 1369.86C1864.03 1370.77 1866.21 1371.57 1868.42 1372.27C1876.54 1374.81 1885.03 1376 1893.54 1375.79C1906.15 1375.47 1918.49 1372.1 1929.51 1365.99C1935.96 1362.34 1941.8 1357.72 1946.84 1352.3C1952.16 1346.64 1957 1340.2 1962.78 1334.16C1968.33 1328.13 1975.03 1323.25 1982.47 1319.81C1989.37 1316.73 1996.49 1314.14 2003.76 1312.06C2010.58 1309.97 2017.09 1308.18 2023.14 1305.62C2028.55 1303.41 2033.63 1300.48 2038.26 1296.9C2045.21 1291.99 2050.39 1284.98 2053.03 1276.9C2053.6 1273.87 2053.89 1270.79 2053.88 1267.71V1267.71Z" fill="#FAFAFA"/>
  <path d="M2034.85 753.88L2002.51 754.655C2001.27 761.175 1998.8 767.398 1995.23 772.992C1968.09 726.083 1947.27 663.279 1942.08 638.041C1942.85 635.522 1943.74 632.73 1944.87 629.629C1945.67 624.918 1945.53 620.094 1944.44 615.44C1943.51 609.818 1941.96 602.259 1941.49 598.77C1940.06 588.07 1938.32 586.403 1934.59 587.604C1929.55 589.272 1936.69 617.572 1932.54 618.192C1930.29 618.502 1927.58 608.81 1926.8 600.863C1926.03 592.916 1922.38 568.414 1919.78 566.786C1915.91 564.382 1912.53 568.182 1913.54 576.09C1914.55 583.999 1915.75 608.035 1911.57 608.384C1907.38 608.733 1903.81 568.104 1903.81 568.104C1903.81 568.104 1904.47 559.265 1899.59 559.459C1890.82 559.847 1897.69 602.646 1898.42 606.717C1898.97 609.508 1894.55 610.051 1894 606.988C1893.46 603.926 1891.45 566.398 1882.37 566.709C1875.47 566.709 1887.68 601.949 1883.81 610.09C1879.93 618.231 1877.29 582.487 1870.74 582.952C1868.3 583.146 1866.48 583.611 1870.98 603.809C1875.28 619.857 1880.46 635.659 1886.48 651.145C1896.87 707.165 1942.46 886.388 2013.91 853.591C2053.92 835.215 2070.13 753.88 2070.13 753.88H2034.85Z" fill="#B78876"/>
  <path d="M1897.03 609.431C1897.33 609.508 1897.65 609.508 1897.96 609.431C1898.43 609.288 1898.83 608.983 1899.09 608.571C1899.35 608.159 1899.46 607.666 1899.39 607.182C1899.39 604.779 1898.93 601.289 1898.38 596.754C1897.48 591.287 1896.88 585.773 1896.6 580.239C1896.6 576.982 1896.6 573.493 1896.79 569.81C1896.85 567.937 1897.05 566.072 1897.38 564.227C1897.69 562.483 1898.85 560.351 1900.21 560.7H1900.44C1901.8 560.7 1902.88 561.708 1903.31 563.336C1903.79 565.023 1903.97 566.781 1903.85 568.531V568.531C1904.65 579.388 1906.03 590.194 1908 600.902C1908.31 602.336 1908.62 603.809 1909.08 605.283C1909.29 606.036 1909.55 606.775 1909.86 607.492C1910.06 607.892 1910.28 608.28 1910.52 608.655C1910.69 608.939 1910.93 609.177 1911.21 609.353C1911.5 609.528 1911.82 609.634 1912.15 609.663C1912.71 609.601 1913.25 609.373 1913.68 609.007C1914.12 608.641 1914.43 608.155 1914.59 607.609C1914.92 606.85 1915.17 606.057 1915.33 605.244C1915.63 603.681 1915.83 602.102 1915.95 600.514C1916.3 594.054 1916.21 587.578 1915.67 581.13C1915.18 577.911 1915.05 574.647 1915.29 571.4C1915.43 569.997 1916.11 568.704 1917.19 567.794C1917.44 567.646 1917.71 567.553 1918 567.519C1918.29 567.486 1918.58 567.513 1918.85 567.6C1919.18 567.679 1919.5 567.81 1919.78 567.988C1919.98 568.135 1920.13 568.338 1920.21 568.569C1921.43 571.713 1922.33 574.974 1922.89 578.3C1923.58 581.712 1924.17 585.24 1924.71 588.767C1925.25 592.295 1925.75 595.862 1926.18 599.467C1926.51 603.188 1927.11 606.88 1927.96 610.516C1928.42 612.375 1929.01 614.202 1929.71 615.983C1930.1 616.979 1930.65 617.908 1931.34 618.735C1931.6 619.079 1931.95 619.341 1932.36 619.492C1932.76 619.643 1933.2 619.676 1933.62 619.588C1934.02 619.458 1934.37 619.23 1934.65 618.924C1934.93 618.619 1935.12 618.246 1935.21 617.843C1935.67 615.862 1935.82 613.821 1935.64 611.796C1935.64 609.857 1935.41 607.919 1935.21 606.058C1934.94 602.801 1934.63 599.584 1934.52 596.405C1934.42 594.843 1934.42 593.276 1934.52 591.714C1934.59 591.022 1934.76 590.344 1935.02 589.698C1935.1 589.485 1935.22 589.288 1935.37 589.116V589.116H1935.87C1938.43 588.07 1939.28 591.636 1939.98 594.505C1940.68 597.374 1940.95 600.63 1941.57 603.693C1942.58 609.78 1943.9 615.866 1944.56 621.681C1945.01 624.466 1944.9 627.312 1944.25 630.055C1943.32 632.847 1942.39 635.599 1941.49 638.352V638.623V638.856C1946.04 657.901 1951.82 676.628 1958.82 694.914C1964.95 711.468 1971.11 725.928 1976.5 737.559C1981.89 749.189 1986.78 758.299 1990.11 764.425L1993.99 771.364C1994.41 772.191 1994.91 772.971 1995.5 773.69C1995.17 772.829 1994.77 771.999 1994.3 771.209L1990.42 764.115C1987.24 757.873 1982.67 748.607 1977.39 736.977C1972.12 725.347 1966.15 710.886 1960.18 694.332C1953.35 676.074 1947.68 657.402 1943.2 638.429V638.972C1944.09 636.258 1944.98 633.506 1945.91 630.753C1946.72 627.732 1946.88 624.574 1946.38 621.488C1945.68 615.401 1944.4 609.508 1943.39 603.383C1942.81 600.359 1942.42 597.258 1941.8 594.079C1941.76 592.446 1941.49 590.827 1940.99 589.271C1940.55 588.326 1939.8 587.56 1938.86 587.1C1937.86 586.775 1936.79 586.775 1935.8 587.1H1935.18C1934.85 587.206 1934.54 587.377 1934.28 587.604C1933.85 587.97 1933.52 588.436 1933.31 588.961C1932.96 589.8 1932.74 590.69 1932.66 591.598C1932.54 593.276 1932.54 594.959 1932.66 596.637C1932.66 599.894 1933.12 603.15 1933.39 606.407C1933.39 608.306 1933.7 610.284 1933.78 612.028C1933.93 613.777 1933.84 615.538 1933.51 617.262C1933.51 617.65 1933.2 617.572 1933.51 617.766L1933.28 617.533C1932.78 616.9 1932.39 616.194 1932.11 615.44C1931.44 613.763 1930.88 612.04 1930.45 610.284C1929.59 606.753 1929.01 603.163 1928.7 599.545C1928.29 595.901 1927.78 592.295 1927.19 588.729C1926.65 585.162 1926.03 581.673 1925.33 578.184C1924.74 574.633 1923.76 571.16 1922.38 567.833C1922.12 567.277 1921.7 566.807 1921.18 566.476C1920.73 566.214 1920.25 566.006 1919.75 565.856C1919.19 565.711 1918.62 565.677 1918.05 565.757C1917.49 565.837 1916.94 566.028 1916.45 566.321C1915.65 566.918 1914.98 567.674 1914.49 568.541C1914 569.409 1913.69 570.368 1913.58 571.361C1913.33 573.122 1913.33 574.91 1913.58 576.672C1913.58 578.339 1913.97 579.967 1914.09 581.595C1914.62 587.939 1914.74 594.311 1914.43 600.669C1914.34 602.18 1914.15 603.682 1913.85 605.166C1913.74 605.859 1913.55 606.536 1913.27 607.182C1913.17 607.438 1913.03 607.674 1912.84 607.88C1912.84 608.229 1912.57 607.88 1912.61 608.345C1912.61 607.958 1912.61 608.345 1912.61 607.841C1912.44 607.58 1912.29 607.308 1912.15 607.027C1911.88 606.407 1911.64 605.709 1911.41 605.05C1910.98 603.654 1910.67 602.22 1910.36 600.824C1908.34 590.209 1906.88 579.494 1905.98 568.725V568.725C1906.1 566.775 1905.88 564.821 1905.32 562.948C1905.07 561.971 1904.54 561.085 1903.81 560.389C1903.43 560.023 1902.98 559.738 1902.49 559.551C1902 559.364 1901.47 559.28 1900.94 559.304H1901.18C1900.52 559.208 1899.85 559.308 1899.25 559.59C1898.65 559.873 1898.15 560.326 1897.8 560.893C1897.23 561.818 1896.83 562.845 1896.64 563.917C1896.31 565.839 1896.13 567.783 1896.1 569.733C1896.1 573.609 1896.1 576.982 1896.1 580.277C1896.46 585.847 1897.18 591.388 1898.23 596.87C1898.89 601.367 1899.39 604.856 1899.63 607.221C1899.7 607.635 1899.63 608.062 1899.42 608.43C1899.22 608.797 1898.89 609.082 1898.5 609.237C1897.34 609.353 1896.99 609.392 1897.03 609.431Z" fill="#A36957"/>
  <path d="M1644.53 807.263C1636.97 807.102 1629.41 807.976 1622.09 809.861C1602.04 815.133 1567.5 836.068 1566.07 861.926H1591.19C1591.19 861.926 1577.12 891.855 1581.22 889.063C1591.96 881.852 1613.29 860.181 1613.29 860.181L1644.53 807.263Z" fill="#B78876"/>
  <path d="M1986.97 356.664C1986.39 356.664 1984.14 335.962 1981.89 310.143C1979.64 284.323 1978.25 263.621 1978.79 263.621C1979.33 263.621 1981.62 284.323 1983.87 310.143C1986.12 335.962 1987.51 356.664 1986.97 356.664Z" fill="#263238"/>
  <path d="M2097.11 265.211C2097.54 265.521 2080.59 290.139 2059.23 320.184C2037.87 350.229 2020.15 374.459 2019.69 373.994C2019.22 373.528 2036.2 349.066 2057.57 319.021C2078.93 288.976 2096.64 264.901 2097.11 265.211Z" fill="#263238"/>
  <path d="M2142.85 376.785C2142.85 377.328 2123.16 381.863 2098.66 386.903C2074.16 391.943 2054.15 395.587 2054.04 395.044C2053.92 394.502 2073.69 389.966 2098.23 384.926C2122.77 379.886 2142.58 376.242 2142.85 376.785Z" fill="#263238"/>
  <path d="M824.476 909.261L687.238 1614.06L669.405 1706.33L1584.33 1701.91C1625.42 1701.72 1661.86 1665.23 1675 1611.04L1837.29 945.664C1847.33 904.532 1825.31 861.732 1794.14 861.771L867.896 862.74C847.737 862.701 829.671 881.775 824.476 909.261Z" fill="#0d6efd"/>
  <g opacity="0.5">
    <path d="M824.476 909.261L687.238 1614.06L669.405 1706.33L1584.33 1701.91C1625.42 1701.72 1661.86 1665.23 1675 1611.04L1837.29 945.664C1847.33 904.532 1825.31 861.732 1794.14 861.771L867.896 862.74C847.737 862.701 829.671 881.775 824.476 909.261Z" fill="black"/>
  </g>
  <path d="M1496.67 1566.22L1399.75 785.398C1395.88 753.415 1370.33 729.534 1340.2 729.65L1127.76 730.309C1119.86 730.398 1112.07 732.094 1104.85 735.293C1097.63 738.492 1091.14 743.128 1085.77 748.917L984.975 856.188L394.153 859.367C358.06 859.561 330.302 893.754 335.071 932.134L425.051 1653.8C428.928 1685.74 454.476 1709.59 484.521 1709.55L1514.39 1707.49C1629.06 1709.86 1640.04 1676.01 1640.04 1676.01C1508.38 1705.13 1496.67 1566.42 1496.67 1566.22Z" fill="#0d6efd"/>
  <g opacity="0.5">
    <path d="M1052.59 1410.06L1017.85 1447.36L750.352 1206.69L785.088 1169.39L1052.59 1410.06Z" fill="white"/>
    <path d="M1003.31 1161.14L1041.69 1195.68L799.665 1455.62L761.246 1421.07L1003.31 1161.14Z" fill="white"/>
  </g>
  <path d="M1643.72 402.333C1642.46 401.804 1641.39 400.929 1640.61 399.81C1639.83 398.691 1639.39 397.374 1639.34 396.014L1637.79 360.037C1637.73 358.919 1637.94 357.804 1638.39 356.78C1638.84 355.755 1639.52 354.85 1640.38 354.135C1641.25 353.421 1642.26 352.916 1643.35 352.662C1644.44 352.408 1645.58 352.411 1646.66 352.671C1649.67 353.319 1652.77 353.347 1655.78 352.754C1658.8 352.16 1661.66 350.958 1664.19 349.221C1666.52 347.745 1668.52 345.807 1670.08 343.527C1671.63 341.247 1672.7 338.672 1673.22 335.962C1673.57 333.218 1673.37 330.432 1672.62 327.768C1671.88 325.105 1670.6 322.618 1668.88 320.455C1667.06 317.995 1664.78 315.917 1662.16 314.34C1659.54 312.763 1656.63 311.719 1653.6 311.267C1647.5 310.928 1641.47 312.657 1636.47 316.175C1631.48 319.693 1627.82 324.793 1626.08 330.651C1625.5 332.426 1624.26 333.909 1622.61 334.791C1620.97 335.674 1619.05 335.887 1617.25 335.387C1615.45 334.888 1613.91 333.713 1612.96 332.109C1612 330.504 1611.7 328.594 1612.12 326.774C1614.76 317.561 1620.49 309.537 1628.35 304.051C1636.21 298.565 1645.71 295.952 1655.27 296.652C1660.25 297.314 1665.04 298.97 1669.36 301.521C1673.68 304.072 1677.45 307.465 1680.43 311.5C1683.34 315.239 1685.46 319.523 1686.68 324.098C1687.9 328.672 1688.18 333.445 1687.53 338.133C1686.64 342.815 1684.81 347.266 1682.15 351.213C1679.48 355.16 1676.03 358.52 1672.02 361.084C1666.2 365 1659.41 367.215 1652.4 367.481L1653.6 395.238C1653.65 396.458 1653.39 397.669 1652.84 398.76C1652.29 399.85 1651.48 400.785 1650.47 401.477C1649.47 402.169 1648.3 402.596 1647.09 402.718C1645.87 402.841 1644.65 402.655 1643.52 402.178L1643.72 402.333Z" fill="#0d6efd"/>
  <path d="M1654.34 417.065C1654.42 418.235 1654.15 419.404 1653.57 420.423C1652.99 421.441 1652.12 422.264 1651.07 422.787C1650.02 423.31 1648.83 423.51 1647.67 423.361C1646.51 423.212 1645.41 422.721 1644.53 421.95C1643.64 421.179 1643.01 420.163 1642.7 419.03C1642.39 417.897 1642.43 416.699 1642.8 415.587C1643.18 414.474 1643.87 413.498 1644.8 412.781C1645.73 412.064 1646.85 411.639 1648.02 411.56C1648.8 411.502 1649.58 411.598 1650.32 411.844C1651.06 412.09 1651.74 412.481 1652.33 412.993C1652.92 413.505 1653.4 414.128 1653.74 414.827C1654.09 415.526 1654.29 416.287 1654.34 417.065Z" fill="#0d6efd"/>
  <path d="M1519.16 351.586C1519.32 350.819 1519.44 350.042 1519.51 349.26C1519.51 347.554 1519.93 345.383 1520.24 342.32C1520.62 338.56 1521.26 334.83 1522.14 331.155C1522.65 328.984 1522.92 326.58 1523.69 324.138C1524.47 321.696 1525.24 319.059 1526.1 316.384C1530.58 303.131 1537.13 290.664 1545.48 279.439C1556.43 264.903 1570.31 252.831 1586.23 244.005C1595.28 238.898 1604.93 234.914 1614.95 232.142C1625.77 229.275 1636.91 227.815 1648.1 227.8C1653.99 227.705 1659.89 228.016 1665.74 228.73C1668.72 229.04 1671.67 229.816 1674.65 230.32C1677.67 230.837 1680.65 231.562 1683.57 232.491C1695.79 235.906 1707.41 241.175 1718.04 248.114C1741.65 263.432 1759.64 286.022 1769.29 312.469C1774.48 326.636 1777.11 341.615 1777.04 356.703C1777.2 372.247 1774.45 387.683 1768.94 402.216L1767.19 406.636L1766.96 407.218L1767.19 407.799C1776.92 430.168 1786.58 452.15 1795.69 473.433L1797.32 471.572L1739.16 449.281L1738.47 449.009L1737.89 449.552C1722.5 464.457 1703.67 475.325 1683.07 481.187C1665.46 486.033 1647.03 487.091 1628.99 484.291C1610.95 481.491 1593.7 474.897 1578.39 464.943C1565.86 456.721 1554.81 446.431 1545.71 434.51C1532.54 417.11 1524 396.646 1520.9 375.04C1520.44 371.163 1520.05 367.907 1519.7 364.961C1519.35 362.014 1519.7 359.611 1519.51 357.556C1519.31 355.501 1519.51 354.144 1519.51 353.02C1519.7 352.991 1519.87 352.889 1520 352.736C1520.12 352.584 1520.18 352.39 1520.16 352.195C1520.15 352 1520.06 351.818 1519.92 351.685C1519.77 351.552 1519.59 351.478 1519.39 351.478C1519.19 351.478 1519.01 351.552 1518.86 351.685C1518.72 351.818 1518.63 352 1518.62 352.195C1518.6 352.39 1518.66 352.584 1518.78 352.736C1518.9 352.889 1519.08 352.991 1519.27 353.02C1519.27 354.144 1519.27 355.656 1519.27 357.556C1519.27 359.456 1519.27 362.092 1519.27 365.038C1519.27 367.984 1519.93 371.357 1520.32 375.195C1521.6 384.52 1523.82 393.691 1526.95 402.565C1531.39 414.285 1537.36 425.366 1544.71 435.518C1553.83 447.651 1564.97 458.139 1577.62 466.532C1593.11 476.735 1610.6 483.525 1628.92 486.453C1647.24 489.38 1665.98 488.378 1683.88 483.513C1704.73 477.591 1723.8 466.619 1739.4 451.568L1738.12 451.839L1796.27 474.247L1799.18 475.371L1797.9 472.386C1788.67 451.103 1779.13 429.16 1769.44 406.752V407.877L1771.23 403.341C1776.88 388.491 1779.7 372.709 1779.52 356.819C1779.64 341.411 1777.02 326.103 1771.77 311.616C1761.92 284.642 1743.53 261.623 1719.39 246.06C1708.5 238.958 1696.58 233.596 1684.04 230.165C1681.07 229.226 1678.04 228.513 1674.97 228.033C1671.94 227.49 1668.96 226.714 1665.93 226.443C1660 225.707 1654.03 225.37 1648.06 225.435C1636.69 225.483 1625.38 227.021 1614.41 230.01C1604.25 232.894 1594.48 236.98 1585.3 242.183C1569.22 251.226 1555.25 263.581 1544.32 278.431C1535.99 289.842 1529.54 302.511 1525.2 315.958C1524.39 318.749 1523.62 321.424 1522.92 323.712C1522.3 326.049 1521.81 328.417 1521.44 330.806C1520.61 334.506 1520.07 338.265 1519.82 342.049C1519.58 345.034 1519.43 347.321 1519.31 349.027C1519.15 349.869 1519.1 350.73 1519.16 351.586Z" fill="#263238"/>
</svg>
