<svg width="480" height="422" viewBox="0 0 480 422" fill="none"
  xmlns="http://www.w3.org/2000/svg">
  <path d="M157.606 373.011C141.023 363.436 115.43 362.234 96.5838 369.405L70.9304 335.177L51.539 346.398L66.325 366.143L32.1475 357.609L12.7257 368.809L76.758 384.787C71.8192 394.341 75.8793 405.108 88.9484 412.652C107.906 423.6 138.659 423.6 157.627 412.652C176.594 401.704 176.574 383.959 157.606 373.011Z" fill="#E0E0E0"/>
  <path d="M480 305.797L200.944 144.706L0 260.702L279.056 421.813L480 305.797Z" fill="#E0E0E0"/>
  <path d="M280.429 397.22L470.688 287.375L199.571 130.849L9.31196 240.694L280.429 397.22Z" fill="#7749F8"/>
  <path opacity="0.6" d="M280.429 397.22L470.688 287.375L199.571 130.849L9.31196 240.694L280.429 397.22Z" fill="white"/>
  <path d="M470.688 287.375V303.858L280.429 413.703V397.22L470.688 287.375Z" fill="#7749F8"/>
  <path opacity="0.15" d="M470.688 287.375V303.858L280.429 413.703V397.22L470.688 287.375Z" fill="black"/>
  <path d="M280.429 413.703L9.31196 257.167V240.694L280.429 397.22V413.703Z" fill="#7749F8"/>
  <path d="M104.441 290.122L280.429 188.519L275.672 185.772L99.6844 287.375L104.441 290.122Z" fill="white"/>
  <path d="M113.955 191.266L366.045 336.803L361.288 339.55L109.198 194.013L113.955 191.266Z" fill="white"/>
  <path d="M275.804 224.141L272.723 222.363L267.895 225.151L270.976 226.928L275.804 224.141ZM254.463 219.202C253.998 218.909 253.917 218.586 254.21 218.192L251.271 216.495C249.918 217.394 249.251 218.253 249.322 219.06C249.393 219.868 250.14 220.727 251.615 221.656L252.817 222.353L254.231 223.11L257.755 221.091C257.119 220.757 256.564 220.444 256.089 220.171L254.463 219.202ZM263.381 228.484L264.552 229.15L265.875 229.877L269.441 227.857L265.593 225.635C265.201 225.412 264.858 225.114 264.583 224.757C264.432 224.597 264.337 224.392 264.314 224.173C264.29 223.954 264.338 223.734 264.451 223.545L265.34 221.878C265.784 221.098 265.948 220.189 265.805 219.303C265.636 218.781 265.363 218.298 265.002 217.885C264.641 217.471 264.199 217.136 263.704 216.899C263.381 216.687 263.078 216.505 262.805 216.354C262.532 216.202 262.209 216.01 261.795 215.808C260.421 215.02 258.883 214.56 257.301 214.465C255.706 214.478 254.139 214.891 252.746 215.667L255.675 217.364C256.315 217.148 257.015 217.191 257.624 217.485L258.927 218.212C259.371 218.475 259.775 218.727 260.139 218.97C260.458 219.183 260.738 219.45 260.967 219.757C261.093 219.93 261.162 220.139 261.162 220.353C261.162 220.567 261.093 220.776 260.967 220.949L260.199 222.393C259.924 222.825 259.744 223.31 259.671 223.817C259.598 224.324 259.633 224.841 259.775 225.332C260.197 226.355 260.966 227.195 261.947 227.706C262.522 227.989 262.977 228.261 263.381 228.484ZM289.943 221.474L261.401 237.947L266.158 240.694L294.7 224.211L289.943 221.474Z" fill="white"/>
  <path d="M173.251 283.396L154.587 272.619L151.698 274.286L151.304 276.649L152.627 277.306L154.031 276.498L169.615 285.416L173.251 283.396ZM190.057 279.184L161.515 295.617L166.272 298.364L194.814 281.881L190.057 279.184Z" fill="white"/>
  <path d="M213.195 21.8127C213.195 17.0558 218.417 13.7329 224.305 13.1977C231.264 12.5412 236.202 15.6418 236.364 21.1158C240.919 19.2474 245.706 20.4493 245.353 25.4486C246.535 24.0852 250.958 24.1256 252.554 24.4993C253.42 24.7413 254.223 25.1682 254.909 25.7505C255.594 26.3329 256.145 27.0568 256.523 27.8726C256.905 28.6665 257.049 29.5539 256.937 30.4278C259.593 29.5592 265.623 29.034 267.128 31.4378C269.814 35.7605 259.048 35.9019 256.927 34.5889C256.463 37.9622 244.939 38.5177 242.141 35.407C239.96 37.5986 236.829 38.0834 233.455 38.2854C227.749 38.6288 224.255 36.6896 219.801 34.4172C214.963 38.5177 206.59 38.5985 202.237 33.9021C201.126 34.9121 198.066 35.2757 195.612 34.6899C193.996 34.3061 193.592 33.6193 193.592 33.6193C192.642 34.0273 191.65 34.3255 190.632 34.5081C187.471 35.1747 181.543 34.5081 184.058 31.6297C184.896 30.6197 187.976 30.044 189.279 30.3369C190.663 27.6302 196.197 25.0547 199.379 27.307C199.5 24.0246 202.5 21.4491 206.731 20.8028C208.176 20.621 211.579 20.4291 213.195 21.8127Z" fill="#EBEBEB"/>
  <path d="M295.246 61.2724C295.246 57.0608 299.871 54.1319 305.093 53.637C311.254 53.0512 315.627 55.7983 315.778 60.6563C319.818 59 324.05 60.0604 323.727 64.4841C324.737 63.2822 328.696 63.3125 330.11 63.6559C330.88 63.8747 331.592 64.2592 332.198 64.7827C332.803 65.3061 333.287 65.9557 333.614 66.6859C333.951 67.3891 334.078 68.1748 333.978 68.9482C336.331 68.1806 341.664 67.7059 343.007 69.8673C345.381 73.6951 335.937 73.8163 333.968 72.6548C333.564 75.6847 323.353 76.1291 320.838 73.382C318.909 75.3211 316.142 75.7554 313.142 75.9271C308.092 76.2301 305.002 74.5232 301.023 72.5033C296.74 76.1392 289.337 76.2099 285.479 72.0488C284.469 72.978 281.783 73.2709 279.601 72.7457C278.177 72.4124 277.844 71.7963 277.844 71.7963C277.005 72.1587 276.127 72.4231 275.228 72.5841C272.43 73.18 267.219 72.5841 269.4 70.0289C270.148 69.1704 272.875 68.6351 274.026 68.8977C275.248 66.494 280.157 64.2215 282.964 66.2516C283.075 63.3428 285.732 61.0603 289.479 60.4846C290.802 60.2523 293.822 60.0806 295.246 61.2724Z" fill="#EBEBEB"/>
  <path d="M413.037 43.0738C420.911 41.7957 426.257 34.3771 424.979 26.5037C423.701 18.6303 416.282 13.2837 408.409 14.5617C400.536 15.8397 395.189 23.2584 396.467 31.1318C397.745 39.0052 405.164 44.3518 413.037 43.0738Z" fill="#FFBDA7"/>
  <path d="M131.044 28.8017L111.319 17.4092H111.249L111.107 17.3284C101.543 11.9049 88.3929 12.7432 73.8695 21.1259C44.6206 37.9723 20.9266 79.0176 20.9266 112.781C20.9266 129.547 26.7845 141.363 36.258 146.938L36.4095 147.019H36.4802L56.1545 158.452L59.5177 149.595C64.6572 148.275 69.5841 146.234 74.1522 143.535C103.441 126.658 127.085 85.6127 127.085 51.8493C127.142 46.5859 126.463 41.3403 125.065 36.2654L131.044 28.8017Z" fill="#7749F8"/>
  <path opacity="0.4" d="M131.044 28.8017L111.319 17.4092H111.249L111.107 17.3284C101.543 11.9049 88.3929 12.7432 73.8695 21.1259C44.6206 37.9723 20.9266 79.0176 20.9266 112.781C20.9266 129.547 26.7845 141.363 36.258 146.938L36.4095 147.019H36.4802L56.1545 158.452L59.5177 149.595C64.6572 148.275 69.5841 146.234 74.1522 143.535C103.441 126.658 127.085 85.6127 127.085 51.8493C127.142 46.5859 126.463 41.3403 125.065 36.2654L131.044 28.8017Z" fill="white"/>
  <path opacity="0.4" d="M21.3912 104.53C21.0921 107.27 20.937 110.024 20.9266 112.781C20.9266 129.547 26.7845 141.363 36.258 146.938L36.4095 147.019H36.4802L56.1545 158.452L59.5177 149.595C60.6186 149.322 61.7296 148.999 62.8607 148.585L67.8601 131.334L21.3912 104.53Z" fill="#7749F8"/>
  <path d="M131.225 115.348C151.897 79.5432 151.898 40.8434 131.228 28.9095C110.558 16.9755 77.0435 36.3264 56.3717 72.1311C35.6998 107.936 35.6986 146.635 56.3689 158.569C77.0391 170.503 110.553 151.152 131.225 115.348Z" fill="#7749F8"/>
  <path opacity="0.6" d="M131.225 115.348C151.897 79.5432 151.898 40.8434 131.228 28.9095C110.558 16.9755 77.0435 36.3264 56.3717 72.1311C35.6998 107.936 35.6986 146.635 56.3689 158.569C77.0391 170.503 110.553 151.152 131.225 115.348Z" fill="white"/>
  <path d="M133.922 43.2444C127.398 31.9125 113.945 30.5995 97.9674 39.8206C71.5263 55.1419 49.1958 93.7632 49.1958 124.295C49.1958 132.294 50.731 139.182 53.6397 144.211C60.2045 155.584 73.6574 156.866 89.6351 147.635C116.076 132.375 138.407 93.7026 138.407 63.1711C138.407 55.1721 136.872 48.2841 133.963 43.2545L133.922 43.2444Z" fill="#7749F8"/>
  <path d="M134.69 43.6685C127.257 31.8014 112.854 29.9733 96.1697 38.7904C68.5671 53.3744 46.2265 92.0564 47.3981 123.254C47.7111 131.435 49.6099 138.535 52.9125 143.787C60.3459 155.665 74.7481 157.493 91.4329 148.675C119.035 134.091 141.366 95.4095 140.194 64.2114C139.891 56.0306 137.983 48.9305 134.69 43.6685Z" fill="#7749F8"/>
  <path opacity="0.4" d="M134.69 43.6685C127.257 31.8014 112.854 29.9733 96.1697 38.7904C68.5671 53.3744 46.2265 92.0564 47.3981 123.254C47.7111 131.435 49.6099 138.535 52.9125 143.787C60.3459 155.665 74.7481 157.493 91.4329 148.675C119.035 134.091 141.366 95.4095 140.194 64.2114C139.891 56.0306 137.983 48.9305 134.69 43.6685Z" fill="white"/>
  <path d="M86.0497 145.656C75.4248 151.261 65.7392 152.544 58.1745 149.696C56.0897 148.052 54.3088 146.055 52.9125 143.797C49.6099 138.545 47.7112 131.445 47.3981 123.265C46.2265 92.0665 68.6075 53.3845 96.1697 38.8005C106.795 33.185 116.48 31.9024 124.045 34.7606C126.135 36.3975 127.92 38.3909 129.317 40.6487C132.61 45.9107 134.508 53.0108 134.821 61.1815C135.993 92.3897 113.662 131.072 86.0497 145.656Z" fill="#FAFAFA"/>
  <path opacity="0.3" d="M93.9376 93.7329L64.7393 91.713C71.8428 77.836 80.6329 67.3996 91.1097 60.4038L93.9376 93.7329Z" fill="#7749F8"/>
  <path d="M90.5542 46.4763C90.2243 46.7029 89.952 47.0037 89.759 47.3544C89.5661 47.7052 89.458 48.0962 89.4432 48.4962V54.2329C89.4432 55.0004 89.9482 55.3236 90.5643 54.9701C90.8931 54.7423 91.1646 54.4413 91.3574 54.0908C91.5502 53.7403 91.659 53.3499 91.6753 52.9502V47.2136C91.6753 46.446 91.1703 46.1127 90.5542 46.4763Z" fill="#7749F8"/>
  <path d="M128.59 68.4331C128.562 68.8417 128.438 69.2379 128.227 69.5891C128.017 69.9403 127.725 70.2364 127.378 70.453L122.419 73.3214C121.752 73.7051 121.217 73.4325 121.227 72.7154C121.254 72.3077 121.376 71.912 121.585 71.5609C121.794 71.2098 122.083 70.9132 122.429 70.6954L127.398 67.8271C128.055 67.4534 128.59 67.716 128.59 68.4331Z" fill="#7749F8"/>
  <path d="M51.1046 114.73C51.1295 114.322 51.2516 113.926 51.4606 113.575C51.6697 113.223 51.9597 112.927 52.3065 112.71L57.2655 109.842C57.9321 109.458 58.4674 109.731 58.4674 110.438C58.4382 110.846 58.3132 111.242 58.1027 111.593C57.8921 111.944 57.6018 112.24 57.2554 112.458L52.2964 115.326C51.6601 115.74 51.1046 115.468 51.1046 114.73Z" fill="#7749F8"/>
  <path d="M89.1604 136.717C89.4906 136.49 89.7636 136.189 89.9581 135.839C90.1526 135.489 90.2633 135.098 90.2815 134.697V128.971C90.2815 128.203 89.7866 127.87 89.1705 128.234C88.8393 128.46 88.5654 128.76 88.3708 129.111C88.1762 129.462 88.0661 129.853 88.0495 130.254V135.94C88.0495 136.748 88.5444 137.071 89.1604 136.717Z" fill="#7749F8"/>
  <path d="M92.8065 95.8034L64.7393 91.7635H95.0082L92.8065 95.8034Z" fill="#7749F8"/>
  <path d="M93.8871 60.9492C93.8871 60.9492 96.4828 85.0674 97.2907 90.6525C97.377 90.9821 97.4178 91.3219 97.4119 91.6625C97.3441 92.917 96.9813 94.1379 96.3531 95.2259C95.7248 96.3139 94.8488 97.2384 93.7962 97.9243C93.4325 98.1882 93.0051 98.3507 92.5578 98.3951C92.1106 98.4394 91.6596 98.3641 91.2511 98.1768C90.9178 97.9849 89.6452 97.2375 89.312 97.0557C88.9362 96.8 88.637 96.4468 88.4467 96.034C88.2563 95.6213 88.1818 95.1645 88.2313 94.7126C87.9081 88.9356 90.0492 61.2017 90.0492 61.2017L91.9278 59.8483L93.8871 60.9492Z" fill="#37474F"/>
  <path d="M97.4119 91.6423C97.3441 92.8968 96.9813 94.1177 96.3531 95.2057C95.7248 96.2937 94.8488 97.2182 93.7962 97.9041C91.7763 99.0555 90.1906 98.1263 90.1906 95.8135C89.8573 90.0465 91.9985 62.3127 91.9985 62.3127L93.8871 60.9492C93.8871 60.9492 97.4018 89.3295 97.4119 91.6423Z" fill="#455A64"/>
  <path d="M95.4324 92.7836C95.4031 93.3522 95.2396 93.9058 94.9552 94.3991C94.6709 94.8924 94.2737 95.3113 93.7962 95.6216C92.8974 96.1367 92.1702 95.7125 92.1702 94.6722C92.2007 94.1064 92.3637 93.5557 92.6462 93.0644C92.9286 92.5732 93.3226 92.1553 93.7962 91.8443C94.7052 91.3292 95.4324 91.7433 95.4324 92.7836Z" fill="#263238"/>
  <path d="M123.01 90.5821L117.194 91.2818L117.252 91.7631L123.068 91.0634L123.01 90.5821Z" fill="#37474F"/>
  <path d="M103.687 115.26L103.241 115.451L105.543 120.837L105.989 120.647L103.687 115.26Z" fill="#37474F"/>
  <path d="M74.3944 62.5136L73.9486 62.7042L76.2506 68.0907L76.6964 67.9002L74.3944 62.5136Z" fill="#37474F"/>
  <path d="M62.6836 91.6123L56.8679 92.313L56.9258 92.7943L62.7416 92.0936L62.6836 91.6123Z" fill="#37474F"/>
  <path d="M126.902 50.9729L121.686 56.8227L122.048 57.1454L127.264 51.2955L126.902 50.9729Z" fill="#37474F"/>
  <path d="M105.57 38.6358L103.14 46.0813L103.601 46.2316L106.03 38.786L105.57 38.6358Z" fill="#37474F"/>
  <path d="M75.6455 136.597L73.1833 144.037L73.6435 144.19L76.1057 136.749L75.6455 136.597Z" fill="#37474F"/>
  <path d="M57.6347 126.087L52.418 131.936L52.7798 132.258L57.9965 126.409L57.6347 126.087Z" fill="#37474F"/>
  <path d="M89.3725 14.3591C89.3457 14.0484 89.2385 13.75 89.0614 13.4932C88.8843 13.2364 88.6435 13.0302 88.3626 12.8947C87.5786 12.5027 86.7141 12.2986 85.8376 12.2986C84.9611 12.2986 84.0967 12.5027 83.3127 12.8947C83.0318 13.0302 82.791 13.2364 82.6139 13.4932C82.4368 13.75 82.3296 14.0484 82.3027 14.3591V28.1453C82.3279 28.4578 82.4343 28.7583 82.6115 29.0169C82.7887 29.2756 83.0304 29.4834 83.3127 29.6198C84.0967 30.0118 84.9611 30.2159 85.8376 30.2159C86.7141 30.2159 87.5786 30.0118 88.3626 29.6198C88.6449 29.4834 88.8866 29.2756 89.0638 29.0169C89.241 28.7583 89.3474 28.4578 89.3725 28.1453V14.3591Z" fill="#455A64"/>
  <path d="M83.2319 15.8337C82.9265 15.7278 82.6617 15.5294 82.4743 15.266C82.2868 15.0026 82.1861 14.6874 82.1861 14.3642C82.1861 14.0409 82.2868 13.7257 82.4743 13.4624C82.6617 13.199 82.9265 13.0006 83.2319 12.8947C84.0159 12.5027 84.8803 12.2986 85.7568 12.2986C86.6333 12.2986 87.4978 12.5027 88.2818 12.8947C88.5872 13.0006 88.852 13.199 89.0394 13.4624C89.2268 13.7257 89.3275 14.0409 89.3275 14.3642C89.3275 14.6874 89.2268 15.0026 89.0394 15.266C88.852 15.5294 88.5872 15.7278 88.2818 15.8337C87.4978 16.2257 86.6333 16.4298 85.7568 16.4298C84.8803 16.4298 84.0159 16.2257 83.2319 15.8337Z" fill="#37474F"/>
  <path d="M96.0485 5.92584C96.0485 4.41088 95.0385 2.89592 93.0185 1.73445C90.7677 0.594186 88.28 0 85.7568 0C83.2337 0 80.746 0.594186 78.4951 1.73445C76.4752 2.89592 75.4652 4.41088 75.4652 5.92584V18.5C75.4652 20.015 76.4752 21.5299 78.4951 22.6914C80.7445 23.8364 83.2328 24.4332 85.7568 24.4332C88.2809 24.4332 90.7691 23.8364 93.0185 22.6914C95.0385 21.54 96.0485 20.015 96.0485 18.5V5.92584Z" fill="#7749F8"/>
  <path opacity="0.3" d="M78.5254 10.1172C76.5055 8.96586 75.4955 7.44081 75.4955 5.92585C75.4955 4.41089 76.5055 2.89592 78.5254 1.73445C80.7745 0.594283 83.2605 0.000114441 85.7821 0.000114441C88.3036 0.000114441 90.7897 0.594283 93.0387 1.73445C95.0587 2.89592 96.0687 4.41089 96.0687 5.92585C96.0687 7.44081 95.0587 8.95576 93.0387 10.1172C90.7897 11.2574 88.3036 11.8516 85.7821 11.8516C83.2605 11.8516 80.7745 11.2574 78.5254 10.1172Z" fill="white"/>
  <path opacity="0.2" d="M78.9698 10.3394V22.9136C79.2526 23.055 79.5556 23.1964 79.8687 23.3176V10.7535C79.5592 10.6381 79.2587 10.4997 78.9698 10.3394ZM82.1209 11.4504V24.0347C82.4037 24.0347 82.7067 24.1458 83.0097 24.1761V11.612C82.71 11.5795 82.4129 11.5255 82.1209 11.4504ZM76.4651 8.42048V20.9643C76.7334 21.2968 77.0345 21.6013 77.364 21.8733V9.30925C77.027 9.04556 76.725 8.74013 76.4651 8.40028V8.42048ZM91.6147 10.8242V23.3782C91.9379 23.2469 92.2308 23.1055 92.5136 22.9641V10.4C92.2147 10.5584 91.904 10.6935 91.5844 10.804L91.6147 10.8242ZM94.1194 9.42035V21.9642C94.4433 21.6972 94.744 21.4033 95.0183 21.0855V8.55177C94.7472 8.87413 94.4347 9.15938 94.0891 9.40015L94.1194 9.42035ZM88.4737 11.6322V24.1963L89.3624 24.0549V11.4706C89.0292 11.5413 88.7464 11.5918 88.4737 11.6322ZM85.363 11.8241V24.4084H86.2618V11.8241C85.9536 11.8672 85.6409 11.8672 85.3327 11.8241H85.363Z" fill="black"/>
  <path d="M48.3575 44.8603C48.0977 44.6785 47.794 44.5696 47.4779 44.5447C47.1618 44.5199 46.8448 44.58 46.5598 44.7189C45.7453 45.0619 45.0229 45.5917 44.451 46.2654C43.879 46.9391 43.4736 47.7379 43.2673 48.5972C43.1799 48.9017 43.175 49.224 43.2531 49.531C43.3311 49.838 43.4894 50.1187 43.7117 50.3445L54.2255 59.2625C54.4843 59.4459 54.7876 59.5567 55.1037 59.5833C55.4198 59.6099 55.7373 59.5515 56.0232 59.414C56.8377 59.071 57.5601 58.5412 58.132 57.8675C58.704 57.1938 59.1094 56.3951 59.3157 55.5357C59.4019 55.2295 59.4062 54.9061 59.3282 54.5977C59.2502 54.2893 59.0927 54.0068 58.8714 53.7784C58.6795 53.6269 48.5494 45.0421 48.3575 44.8603Z" fill="#455A64"/>
  <path d="M45.5094 50.496C45.2313 50.6602 44.9089 50.7338 44.5871 50.7065C44.2652 50.6792 43.9598 50.5524 43.7134 50.3436C43.4669 50.1349 43.2915 49.8546 43.2115 49.5416C43.1316 49.2287 43.1511 48.8986 43.2673 48.5972C43.4736 47.7379 43.879 46.9391 44.451 46.2654C45.0229 45.5917 45.7453 45.0619 46.5598 44.7189C46.8448 44.58 47.1618 44.5199 47.4779 44.5447C47.794 44.5696 48.0977 44.6785 48.3575 44.8603C48.5797 45.0882 48.7379 45.3707 48.8159 45.6793C48.8939 45.9878 48.8891 46.3115 48.8019 46.6177C48.5956 47.477 48.1901 48.2758 47.6182 48.9495C47.0462 49.6232 46.3239 50.1529 45.5094 50.496Z" fill="#37474F"/>
  <path d="M47.6606 39.861C47.1591 39.509 46.5726 39.2973 45.9619 39.2475C45.3512 39.1978 44.7382 39.312 44.1863 39.5782C42.6136 40.2383 41.2187 41.26 40.1149 42.5603C39.0111 43.8607 38.2295 45.403 37.8336 47.0621C37.6588 47.6503 37.6454 48.2747 37.7946 48.8699C37.9439 49.4651 38.2503 50.0093 38.682 50.4455L45.166 55.9498C45.6663 56.3048 46.253 56.5183 46.8644 56.5681C47.4757 56.6179 48.0892 56.502 48.6403 56.2326C50.2139 55.5739 51.6096 54.5526 52.7136 53.252C53.8176 51.9515 54.5986 50.4084 54.9931 48.7487C55.1644 48.1594 55.1751 47.535 55.0242 46.9402C54.8733 46.3453 54.5661 45.8016 54.1346 45.3653L47.6606 39.861Z" fill="#7749F8"/>
  <path opacity="0.3" d="M42.1563 50.7283C41.618 51.0264 41.0017 51.1536 40.3894 51.0929C39.777 51.0322 39.1977 50.7865 38.7284 50.3885C38.2591 49.9905 37.9221 49.459 37.7623 48.8648C37.6025 48.2706 37.6273 47.6418 37.8336 47.0621C38.2295 45.403 39.0111 43.8607 40.1149 42.5603C41.2187 41.26 42.6136 40.2383 44.1863 39.5782C44.7246 39.28 45.3409 39.1528 45.9533 39.2135C46.5656 39.2742 47.145 39.5199 47.6142 39.9179C48.0835 40.3159 48.4205 40.8474 48.5803 41.4416C48.7402 42.0358 48.7153 42.6646 48.509 43.2444C48.1146 44.9041 47.3336 46.4471 46.2296 47.7477C45.1256 49.0482 43.7299 50.0695 42.1563 50.7283Z" fill="white"/>
  <path opacity="0.2" d="M42.4694 50.597L48.9433 56.1518C49.1453 56.0609 49.3574 55.97 49.5493 55.869L43.0754 50.3748C42.8788 50.4628 42.6763 50.5371 42.4694 50.597ZM44.4186 49.4658L50.9027 54.9702L51.3673 54.5763L44.8933 49.082C44.742 49.2182 44.5835 49.3463 44.4186 49.4658ZM40.3787 51.0414L46.8628 56.5356C47.1502 56.5449 47.4379 56.5246 47.7212 56.475L41.2372 50.9808C40.9512 51.0359 40.6595 51.0562 40.3686 51.0414H40.3787ZM48.2363 44.2947L54.7204 49.7991C54.7911 49.5769 54.8416 49.3648 54.9022 49.1527L48.4181 43.6584C48.3682 43.8745 48.3041 44.0871 48.2262 44.2947H48.2363ZM48.61 42.3859L55.084 47.8902C55.0904 47.6062 55.0701 47.3221 55.0234 47.0419L48.5595 41.5577C48.6087 41.8309 48.6223 42.1092 48.5999 42.3859H48.61ZM47.287 46.2743L53.771 51.7786C53.8821 51.6069 53.9831 51.4251 54.0841 51.2535L47.5899 45.7491C47.489 45.9309 47.388 46.1026 47.2769 46.2743H47.287ZM46.0548 47.971L52.5489 53.4754L52.9327 53.0108L46.4487 47.5065C46.3371 47.677 46.2048 47.8331 46.0548 47.971Z" fill="black"/>
  <path d="M118.636 21.6246L124.829 25.1999L127.717 20.1968L121.524 16.6215L118.636 21.6246Z" fill="#455A64"/>
  <path d="M119.498 15.4441L129.81 21.3979C130.317 21.6907 130.966 21.5169 131.258 21.0097L134.455 15.4731C134.748 14.9659 134.574 14.3173 134.067 14.0245L123.755 8.07069C123.247 7.77784 122.599 7.95163 122.306 8.45884L119.109 13.9955C118.817 14.5027 118.99 15.1513 119.498 15.4441Z" fill="#7749F8"/>
  <path opacity="0.2" d="M130.48 11.959L126.223 19.3324L126.747 19.6354L131.005 12.262L130.48 11.959Z" fill="black"/>
  <path opacity="0.2" d="M134.286 14.1975L130.074 21.4996C129.982 21.4812 129.893 21.447 129.812 21.3986L129.529 21.237L133.781 13.8642L134.064 14.0258C134.142 14.0774 134.216 14.1348 134.286 14.1975Z" fill="black"/>
  <path opacity="0.2" d="M132.546 12.4264L128.289 19.8337L128.816 20.1367L133.073 12.7294L132.546 12.4264Z" fill="black"/>
  <path opacity="0.2" d="M119.237 15.2176L123.429 7.95589C123.546 7.97818 123.658 8.01911 123.762 8.07709L123.984 8.20838L119.783 15.5711L119.551 15.4398C119.429 15.3927 119.322 15.3164 119.237 15.2176Z" fill="black"/>
  <path opacity="0.2" d="M128.593 10.8596L124.335 18.2323L124.859 18.5354L129.118 11.1627L128.593 10.8596Z" fill="black"/>
  <path opacity="0.2" d="M124.926 8.75181L120.669 16.1252L121.194 16.4282L125.451 9.0548L124.926 8.75181Z" fill="black"/>
  <path opacity="0.2" d="M126.774 9.8078L122.516 17.1805L123.04 17.4835L127.299 10.1109L126.774 9.8078Z" fill="black"/>
  <path d="M32.1475 348.65L12.7156 359.841L81.0908 376.909L100.533 365.709L32.1475 348.65Z" fill="#37474F"/>
  <path d="M109.774 357.599L100.068 351.993L72.8898 367.688V376.657L82.5956 382.262L109.774 366.567V357.599Z" fill="#7749F8"/>
  <path opacity="0.3" d="M72.8898 367.688L82.5956 373.294V382.262L72.8898 376.657V367.688Z" fill="black"/>
  <path opacity="0.3" d="M82.5956 373.294L72.8898 367.688L100.068 351.993L109.774 357.599L82.5956 373.294Z" fill="white"/>
  <path d="M78.7173 366.567L98.129 355.356L100.533 356.75L81.0908 367.941L78.7173 366.567Z" fill="#7749F8"/>
  <path opacity="0.3" d="M78.7173 366.567L98.129 355.356L100.533 356.75L81.0908 367.941L78.7173 366.567Z" fill="black"/>
  <path opacity="0.3" d="M98.129 355.356V358.124L100.533 356.75L98.129 355.356Z" fill="black"/>
  <path d="M165.413 381.363C163.282 377.768 159.737 374.394 154.768 371.526C137.377 361.426 109.168 361.426 91.7763 371.526C86.8072 374.394 83.2622 377.768 81.1312 381.363H78.7274V390.453C79.0506 396.786 83.3834 403.057 91.746 407.885C109.138 417.924 137.346 417.924 154.738 407.885C163.111 403.057 167.464 396.775 167.787 390.453V381.363H165.413Z" fill="#7749F8"/>
  <path opacity="0.25" d="M165.413 381.363C163.282 377.768 159.737 374.394 154.768 371.526C137.377 361.426 109.168 361.426 91.7763 371.526C86.8072 374.394 83.2622 377.768 81.1312 381.363H78.7274V390.453C79.0506 396.786 83.3834 403.057 91.746 407.885C109.138 417.924 137.346 417.924 154.738 407.885C163.111 403.057 167.464 396.775 167.787 390.453V381.363H165.413Z" fill="black"/>
  <path opacity="0.1" d="M123.277 364.022C111.875 364.022 100.472 366.527 91.7763 371.556C86.8072 374.425 83.2622 377.798 81.1312 381.394H78.7274V390.483C79.0506 396.816 83.3834 403.088 91.746 407.915C100.442 412.965 111.844 415.45 123.247 415.45L123.277 364.022Z" fill="black"/>
  <path opacity="0.1" d="M98.9471 368.234C96.4686 369.156 94.0702 370.281 91.7763 371.597C86.8072 374.465 83.2622 377.838 81.1312 381.434H78.7274V390.524C79.0506 396.856 83.3834 403.128 91.746 407.956C94.0402 409.268 96.4385 410.39 98.9168 411.309L98.9471 368.234Z" fill="black"/>
  <g opacity="0.5">
    <path d="M147.598 368.234C150.076 369.156 152.474 370.281 154.768 371.597C159.737 374.465 163.282 377.838 165.413 381.434H167.817V390.524C167.494 396.856 163.141 403.128 154.768 407.956C152.474 409.268 150.076 410.39 147.598 411.309V368.234Z" fill="#7749F8"/>
  </g>
  <path d="M143.083 391.564C154.021 385.949 154.021 376.849 143.083 371.233C132.145 365.618 114.4 365.618 103.462 371.233C92.5237 376.849 92.5237 385.949 103.462 391.564C114.4 397.179 132.145 397.179 143.083 391.564Z" fill="#7749F8"/>
  <path opacity="0.2" d="M143.083 391.564C154.021 385.949 154.021 376.849 143.083 371.233C132.145 365.618 114.4 365.618 103.462 371.233C92.5237 376.849 92.5237 385.949 103.462 391.564C114.4 397.179 132.145 397.179 143.083 391.564Z" fill="black"/>
  <path d="M143.083 375.041C132.145 369.425 114.4 369.425 103.462 375.041C98.937 377.364 96.2909 380.283 95.5031 383.302C96.2909 386.332 98.937 389.241 103.462 391.564C114.4 397.179 132.145 397.179 143.083 391.564C147.608 389.241 150.254 386.322 151.042 383.302C150.254 380.283 147.608 377.323 143.083 375.041Z" fill="#7749F8"/>
  <path opacity="0.1" d="M143.083 375.041C132.145 369.425 114.4 369.425 103.462 375.041C98.937 377.364 96.2909 380.283 95.5031 383.302C96.2909 386.332 98.937 389.241 103.462 391.564C114.4 397.179 132.145 397.179 143.083 391.564C147.608 389.241 150.254 386.322 151.042 383.302C150.254 380.283 147.608 377.323 143.083 375.041Z" fill="white"/>
  <path d="M142.881 387.736L113.248 370.627L104.35 375.768V380.485L110.612 384.1L112.976 382.727L136.357 396.23L142.881 392.463V387.736Z" fill="#7749F8"/>
  <path opacity="0.3" d="M113.248 370.627L142.881 387.736L136.357 391.463L112.976 377.97L110.612 379.343L104.35 375.738L113.248 370.627Z" fill="white"/>
  <path opacity="0.1" d="M104.35 375.768L110.612 379.374V384.1L104.35 380.485V375.768Z" fill="black"/>
  <path opacity="0.3" d="M112.976 382.727V378.01L110.612 379.374V384.1L112.976 382.727Z" fill="black"/>
  <path opacity="0.1" d="M136.357 391.503V396.23L112.976 382.727V378.01L136.357 391.503Z" fill="black"/>
  <path opacity="0.3" d="M142.881 387.736L136.357 391.503V396.23L142.881 392.463V387.736Z" fill="black"/>
  <path d="M154.768 363.184C137.377 353.135 109.168 353.135 91.7763 363.184C74.3845 373.233 74.3845 389.514 91.7763 399.543C109.168 409.572 137.377 409.582 154.768 399.543C172.16 389.504 172.17 373.283 154.768 363.184ZM143.79 392.897C138.275 395.725 130.994 397.28 123.267 397.28C115.541 397.28 108.259 395.725 102.765 392.897C96.9272 389.867 93.675 385.827 93.675 381.373C93.675 376.919 96.8868 372.829 102.765 369.829C108.259 367.012 115.551 365.466 123.267 365.466C130.983 365.466 138.275 367.012 143.79 369.829C149.607 372.859 152.819 376.899 152.819 381.373C152.819 385.848 149.607 389.938 143.79 392.927V392.897Z" fill="#7749F8"/>
  <path opacity="0.2" d="M154.768 363.184C137.377 353.135 109.168 353.135 91.7763 363.184C74.3845 373.233 74.3845 389.514 91.7763 399.543C109.168 409.572 137.377 409.582 154.768 399.543C172.16 389.504 172.17 373.283 154.768 363.184ZM143.79 392.897C138.275 395.725 130.994 397.28 123.267 397.28C115.541 397.28 108.259 395.725 102.765 392.897C96.9272 389.867 93.675 385.827 93.675 381.373C93.675 376.919 96.8868 372.829 102.765 369.829C108.259 367.012 115.551 365.466 123.267 365.466C130.983 365.466 138.275 367.012 143.79 369.829C149.607 372.859 152.819 376.899 152.819 381.373C152.819 385.848 149.607 389.938 143.79 392.927V392.897Z" fill="black"/>
  <path d="M143.79 369.86C138.275 367.042 130.994 365.497 123.267 365.497C115.541 365.497 108.259 367.042 102.765 369.86C96.9272 372.89 93.675 376.93 93.675 381.404C93.675 385.878 96.8868 389.938 102.765 392.927C108.259 395.755 115.551 397.311 123.267 397.311C130.983 397.311 138.275 395.755 143.79 392.927C149.607 389.898 152.819 385.858 152.819 381.404C152.819 376.95 149.607 372.859 143.79 369.86ZM143.083 391.564C132.135 397.179 114.4 397.179 103.462 391.564C92.5237 385.949 92.5237 376.839 103.462 371.233C114.4 365.628 132.135 365.608 143.083 371.233C154.031 376.859 154.021 385.949 143.083 391.564Z" fill="#7749F8"/>
  <path opacity="0.4" d="M143.79 369.86C138.275 367.042 130.994 365.497 123.267 365.497C115.541 365.497 108.259 367.042 102.765 369.86C96.9272 372.89 93.675 376.93 93.675 381.404C93.675 385.878 96.8868 389.938 102.765 392.927C108.259 395.755 115.551 397.311 123.267 397.311C130.983 397.311 138.275 395.755 143.79 392.927C149.607 389.898 152.819 385.858 152.819 381.404C152.819 376.95 149.607 372.859 143.79 369.86ZM143.083 391.564C132.135 397.179 114.4 397.179 103.462 391.564C92.5237 385.949 92.5237 376.839 103.462 371.233C114.4 365.628 132.135 365.608 143.083 371.233C154.031 376.859 154.021 385.949 143.083 391.564Z" fill="black"/>
  <path d="M153.799 364.891C145.719 360.204 134.831 357.619 123.267 357.619C111.703 357.619 100.866 360.204 92.7459 364.891C84.959 369.395 80.6262 375.243 80.6262 381.404C80.6262 387.565 84.9186 393.412 92.7459 397.907C100.826 402.593 111.703 405.178 123.267 405.178C134.831 405.178 145.679 402.593 153.799 397.907C161.586 393.412 165.918 387.544 165.918 381.404C165.918 375.263 161.586 369.395 153.799 364.891ZM143.79 392.927C138.275 395.755 130.994 397.311 123.267 397.311C115.541 397.311 108.269 395.755 102.765 392.927C96.9272 389.898 93.675 385.858 93.675 381.404C93.675 376.95 96.8868 372.859 102.765 369.87C108.269 367.042 115.551 365.486 123.267 365.486C130.983 365.486 138.275 367.042 143.79 369.87C149.607 372.9 152.819 376.94 152.819 381.404C152.819 385.868 149.607 389.938 143.79 392.927Z" fill="#7749F8"/>
  <path opacity="0.3" d="M153.799 364.891C145.719 360.204 134.831 357.619 123.267 357.619C111.703 357.619 100.866 360.204 92.7459 364.891C84.959 369.395 80.6262 375.243 80.6262 381.404C80.6262 387.565 84.9186 393.412 92.7459 397.907C100.826 402.593 111.703 405.178 123.267 405.178C134.831 405.178 145.679 402.593 153.799 397.907C161.586 393.412 165.918 387.544 165.918 381.404C165.918 375.263 161.586 369.395 153.799 364.891ZM143.79 392.927C138.275 395.755 130.994 397.311 123.267 397.311C115.541 397.311 108.269 395.755 102.765 392.927C96.9272 389.898 93.675 385.858 93.675 381.404C93.675 376.95 96.8868 372.859 102.765 369.87C108.269 367.042 115.551 365.486 123.267 365.486C130.983 365.486 138.275 367.042 143.79 369.87C149.607 372.9 152.819 376.94 152.819 381.404C152.819 385.868 149.607 389.938 143.79 392.927Z" fill="white"/>
  <path d="M167.544 378.545C167.544 378.545 169.403 390.766 154.021 399.129C138.639 407.491 119.833 407.037 119.833 407.037C132.357 407.592 145.194 405.108 154.768 399.583C164.727 393.836 168.989 386.05 167.544 378.545ZM92.7459 364.891C84.959 369.395 80.6262 375.243 80.6262 381.404C80.6262 381.404 81.0504 372.778 93.0489 365.486C104.845 358.326 123.227 357.619 123.227 357.619C111.703 357.619 100.866 360.204 92.7459 364.891Z" fill="#F5F5F5"/>
  <path d="M100.533 356.75L70.9304 317.24L51.5389 328.461L81.0908 367.941L100.533 356.75Z" fill="#455A64"/>
  <path d="M157.98 244.441L148.062 250.137C147.887 250.241 147.694 250.308 147.493 250.336C147.292 250.364 147.087 250.352 146.891 250.3C146.694 250.249 146.51 250.158 146.349 250.035C146.188 249.912 146.053 249.758 145.951 249.582L134.932 230.453C134.832 230.277 134.767 230.084 134.741 229.883C134.715 229.682 134.73 229.478 134.783 229.283C134.837 229.088 134.928 228.905 135.053 228.745C135.177 228.585 135.332 228.452 135.508 228.352L145.406 222.696C145.582 222.595 145.777 222.53 145.978 222.504C146.18 222.479 146.385 222.493 146.581 222.546C146.777 222.6 146.96 222.691 147.121 222.816C147.282 222.941 147.416 223.096 147.517 223.272L158.525 242.33C158.732 242.683 158.791 243.103 158.688 243.498C158.586 243.894 158.332 244.233 157.98 244.441Z" fill="#7749F8"/>
  <path d="M159.667 243.472L149.789 249.168C149.434 249.373 149.012 249.428 148.617 249.322C148.221 249.216 147.883 248.957 147.678 248.602L136.639 229.483C136.434 229.129 136.379 228.707 136.485 228.311C136.591 227.915 136.85 227.578 137.205 227.373L147.113 221.727C147.289 221.626 147.484 221.561 147.685 221.535C147.887 221.509 148.091 221.523 148.288 221.577C148.484 221.63 148.667 221.722 148.828 221.846C148.988 221.971 149.123 222.126 149.224 222.303L160.232 241.361C160.437 241.716 160.493 242.137 160.387 242.533C160.281 242.929 160.022 243.267 159.667 243.472Z" fill="#FAFAFA"/>
  <path d="M147.88 221.909C148.085 221.909 148.286 221.964 148.463 222.067C148.641 222.17 148.788 222.317 148.89 222.494L159.899 241.553C160.051 241.819 160.091 242.135 160.01 242.431C159.93 242.728 159.738 242.981 159.475 243.138L149.597 248.835C149.423 248.938 149.224 248.994 149.022 248.996C148.817 248.995 148.616 248.941 148.438 248.838C148.261 248.735 148.114 248.588 148.012 248.41L136.952 229.292C136.801 229.025 136.761 228.709 136.841 228.413C136.88 228.267 136.947 228.13 137.039 228.01C137.13 227.891 137.245 227.791 137.377 227.716L147.284 222.06C147.46 221.96 147.658 221.907 147.86 221.909M147.86 221.525C147.591 221.522 147.326 221.592 147.093 221.727L137.185 227.373C136.83 227.578 136.571 227.915 136.465 228.311C136.359 228.707 136.414 229.129 136.619 229.483L147.658 248.602C147.795 248.837 147.991 249.033 148.227 249.169C148.462 249.306 148.729 249.378 149.001 249.38C149.272 249.379 149.537 249.306 149.769 249.168L159.647 243.472C160.001 243.267 160.26 242.929 160.366 242.533C160.473 242.137 160.417 241.716 160.212 241.361L149.203 222.303C149.069 222.065 148.873 221.868 148.637 221.731C148.401 221.595 148.133 221.523 147.86 221.525Z" fill="#E0E0E0"/>
  <path d="M158.162 240.795L148.698 224.403C148.493 224.048 148.156 223.789 147.76 223.683C147.364 223.577 146.942 223.633 146.588 223.838L139.356 227.958C139.18 228.058 139.025 228.192 138.901 228.352C138.777 228.512 138.686 228.695 138.633 228.89C138.58 229.086 138.567 229.29 138.594 229.49C138.621 229.691 138.688 229.885 138.791 230.059L148.284 246.491C148.489 246.846 148.827 247.105 149.223 247.211C149.618 247.317 150.04 247.262 150.395 247.057L157.596 242.906C157.951 242.701 158.21 242.364 158.316 241.968C158.422 241.572 158.367 241.15 158.162 240.795Z" fill="#7749F8"/>
  <path opacity="0.2" d="M158.162 240.795L148.698 224.403C148.493 224.048 148.156 223.789 147.76 223.683C147.364 223.577 146.942 223.633 146.588 223.838L139.356 227.958C139.18 228.058 139.025 228.192 138.901 228.352C138.777 228.512 138.686 228.695 138.633 228.89C138.58 229.086 138.567 229.29 138.594 229.49C138.621 229.691 138.688 229.885 138.791 230.059L148.284 246.491C148.489 246.846 148.827 247.105 149.223 247.211C149.618 247.317 150.04 247.262 150.395 247.057L157.596 242.906C157.951 242.701 158.21 242.364 158.316 241.968C158.422 241.572 158.367 241.15 158.162 240.795Z" fill="black"/>
  <path d="M145.032 249.057L137.962 236.725C137.724 236.318 137.335 236.021 136.88 235.899C136.424 235.776 135.939 235.837 135.528 236.068L129.711 239.432C129.526 239.495 129.365 239.615 129.251 239.774C129.137 239.934 129.075 240.125 129.075 240.32C129.075 240.516 129.137 240.707 129.251 240.867C129.365 241.026 129.526 241.146 129.711 241.209L144.426 249.703C145.204 250.198 145.497 249.905 145.032 249.057Z" fill="#7749F8"/>
  <path opacity="0.2" d="M145.032 249.057L137.962 236.725C137.724 236.318 137.335 236.021 136.88 235.899C136.424 235.776 135.939 235.837 135.528 236.068L129.711 239.432C129.526 239.495 129.365 239.615 129.251 239.774C129.137 239.934 129.075 240.125 129.075 240.32C129.075 240.516 129.137 240.707 129.251 240.867C129.365 241.026 129.526 241.146 129.711 241.209L144.426 249.703C145.204 250.198 145.497 249.905 145.032 249.057Z" fill="black"/>
  <path d="M143.406 255.712L74.3845 215.859V208.617L80.6565 204.992L149.688 244.845V252.087L143.406 255.712Z" fill="#455A64"/>
  <path d="M143.406 255.712V248.471L74.3845 208.617V215.859L143.406 255.712Z" fill="#37474F"/>
  <path d="M149.688 244.845L143.406 248.471V255.712L149.688 252.087V244.845Z" fill="#263238"/>
  <path d="M103.462 234.836L93.5841 240.533C93.2315 240.725 92.8178 240.774 92.43 240.669C92.0421 240.563 91.7101 240.312 91.5036 239.967L80.3939 220.848C80.2928 220.672 80.2276 220.477 80.2018 220.276C80.1761 220.074 80.1903 219.869 80.2438 219.673C80.2973 219.477 80.3889 219.294 80.5134 219.133C80.638 218.972 80.793 218.838 80.9696 218.737L90.8673 213.092C91.2222 212.887 91.644 212.831 92.0399 212.937C92.4357 213.043 92.7732 213.302 92.9781 213.657L103.987 232.725C104.193 233.076 104.253 233.493 104.155 233.888C104.056 234.282 103.808 234.623 103.462 234.836Z" fill="#7749F8"/>
  <path d="M105.148 233.907L95.2708 239.613C94.9159 239.818 94.4941 239.874 94.0982 239.768C93.7024 239.662 93.3649 239.403 93.1599 239.048L82.1209 219.869C82.0197 219.694 81.954 219.5 81.9277 219.3C81.9013 219.099 81.9148 218.896 81.9674 218.701C82.0199 218.505 82.1105 218.323 82.2339 218.162C82.3573 218.002 82.5111 217.868 82.6865 217.768L92.5944 212.122C92.9493 211.917 93.3711 211.862 93.7669 211.968C94.1628 212.074 94.5003 212.333 94.7052 212.688L105.714 231.746C105.823 231.924 105.896 232.122 105.927 232.328C105.957 232.535 105.946 232.745 105.893 232.947C105.84 233.149 105.747 233.339 105.619 233.504C105.491 233.668 105.331 233.806 105.148 233.907Z" fill="#FAFAFA"/>
  <path d="M93.3619 212.304C93.5656 212.305 93.7656 212.358 93.9426 212.459C94.1196 212.56 94.2675 212.705 94.3719 212.879L105.381 231.948C105.531 232.213 105.571 232.528 105.492 232.823C105.412 233.117 105.22 233.369 104.956 233.523L95.0789 239.23C94.9038 239.33 94.7051 239.383 94.5032 239.381C94.2995 239.38 94.0995 239.327 93.9225 239.226C93.7456 239.125 93.5977 238.98 93.4932 238.805L82.4138 219.677C82.3385 219.546 82.2899 219.403 82.2708 219.254C82.2517 219.104 82.2626 218.953 82.3027 218.808C82.3408 218.661 82.4077 218.522 82.4996 218.401C82.5915 218.28 82.7065 218.178 82.838 218.101L92.7459 212.455C92.921 212.355 93.1196 212.302 93.3215 212.304M93.3215 211.91C93.0513 211.911 92.7863 211.984 92.554 212.122L82.6865 217.748C82.5111 217.848 82.3573 217.982 82.2339 218.142C82.1105 218.302 82.0199 218.485 81.9674 218.68C81.9148 218.876 81.9013 219.079 81.9277 219.28C81.954 219.48 82.0197 219.673 82.1209 219.848L93.1599 238.957C93.2966 239.192 93.4928 239.386 93.7286 239.521C93.9644 239.656 94.2316 239.726 94.5032 239.725C94.7725 239.727 95.0376 239.657 95.2708 239.523L105.148 233.816C105.503 233.611 105.762 233.274 105.868 232.878C105.974 232.482 105.919 232.06 105.714 231.705L94.7052 212.698C94.569 212.462 94.3732 212.266 94.1375 212.129C93.9018 211.993 93.6343 211.921 93.3619 211.92L93.3215 211.91Z" fill="#E0E0E0"/>
  <path d="M103.623 231.18L94.1598 214.798C93.9528 214.446 93.6161 214.188 93.2217 214.081C92.8272 213.973 92.4063 214.024 92.049 214.223L84.8176 218.343C84.6412 218.443 84.4864 218.577 84.3622 218.737C84.238 218.897 84.1469 219.08 84.0943 219.275C84.0416 219.471 84.0285 219.675 84.0555 219.876C84.0826 220.076 84.1494 220.27 84.252 220.444L93.7255 236.937C93.9304 237.292 94.268 237.551 94.6638 237.657C95.0597 237.763 95.4815 237.708 95.8364 237.503L103.037 233.342C103.222 233.242 103.384 233.106 103.514 232.942C103.644 232.778 103.739 232.589 103.794 232.386C103.849 232.184 103.862 231.973 103.832 231.766C103.803 231.558 103.732 231.359 103.623 231.18Z" fill="#7749F8"/>
  <path opacity="0.2" d="M103.623 231.18L94.1598 214.798C93.9528 214.446 93.6161 214.188 93.2217 214.081C92.8272 213.973 92.4063 214.024 92.049 214.223L84.8176 218.343C84.6412 218.443 84.4864 218.577 84.3622 218.737C84.238 218.897 84.1469 219.08 84.0943 219.275C84.0416 219.471 84.0285 219.675 84.0555 219.876C84.0826 220.076 84.1494 220.27 84.252 220.444L93.7255 236.937C93.9304 237.292 94.268 237.551 94.6638 237.657C95.0597 237.763 95.4815 237.708 95.8364 237.503L103.037 233.342C103.222 233.242 103.384 233.106 103.514 232.942C103.644 232.778 103.739 232.589 103.794 232.386C103.849 232.184 103.862 231.973 103.832 231.766C103.803 231.558 103.732 231.359 103.623 231.18Z" fill="black"/>
  <path d="M90.4936 239.442L83.4238 227.11C83.3067 226.907 83.1508 226.73 82.965 226.588C82.7792 226.446 82.5671 226.341 82.341 226.281C82.1149 226.221 81.8791 226.207 81.6472 226.238C81.4153 226.269 81.1919 226.346 80.9898 226.464L75.1218 229.867C74.9364 229.931 74.7755 230.05 74.6616 230.21C74.5476 230.369 74.4864 230.56 74.4864 230.756C74.4864 230.952 74.5476 231.143 74.6616 231.302C74.7755 231.462 74.9364 231.581 75.1218 231.645L89.8371 240.139C90.6855 240.583 90.9784 240.3 90.4936 239.442Z" fill="#7749F8"/>
  <path opacity="0.2" d="M90.4936 239.442L83.4238 227.11C83.3067 226.907 83.1508 226.73 82.965 226.588C82.7792 226.446 82.5671 226.341 82.341 226.281C82.1149 226.221 81.8791 226.207 81.6472 226.238C81.4153 226.269 81.1919 226.346 80.9898 226.464L75.1218 229.867C74.9364 229.931 74.7755 230.05 74.6616 230.21C74.5476 230.369 74.4864 230.56 74.4864 230.756C74.4864 230.952 74.5476 231.143 74.6616 231.302C74.7755 231.462 74.9364 231.581 75.1218 231.645L89.8371 240.139C90.6855 240.583 90.9784 240.3 90.4936 239.442Z" fill="black"/>
  <path d="M254.624 188.64L244.757 194.346C244.402 194.551 243.98 194.607 243.584 194.501C243.189 194.395 242.851 194.136 242.646 193.781L231.607 174.652C231.505 174.477 231.438 174.284 231.411 174.083C231.384 173.883 231.397 173.679 231.449 173.483C231.502 173.287 231.593 173.104 231.717 172.944C231.841 172.784 231.996 172.651 232.173 172.551L242.07 166.895C242.429 166.694 242.852 166.641 243.249 166.749C243.646 166.856 243.984 167.116 244.191 167.471L255.19 186.529C255.293 186.705 255.36 186.899 255.387 187.1C255.414 187.302 255.401 187.507 255.348 187.703C255.296 187.899 255.205 188.083 255.08 188.244C254.956 188.405 254.801 188.54 254.624 188.64Z" fill="#7749F8"/>
  <path d="M256.311 187.671L246.434 193.367C246.259 193.471 246.066 193.539 245.865 193.566C245.664 193.594 245.459 193.581 245.263 193.529C245.067 193.476 244.884 193.384 244.724 193.259C244.564 193.134 244.431 192.979 244.333 192.801L233.284 173.682C233.183 173.507 233.118 173.313 233.092 173.112C233.067 172.911 233.081 172.708 233.134 172.512C233.188 172.317 233.28 172.134 233.404 171.975C233.528 171.815 233.683 171.681 233.859 171.582L243.757 165.926C243.933 165.825 244.128 165.76 244.33 165.734C244.531 165.708 244.736 165.722 244.932 165.776C245.128 165.829 245.312 165.921 245.472 166.045C245.633 166.17 245.767 166.325 245.868 166.502L256.877 185.56C257.082 185.915 257.137 186.336 257.031 186.732C256.925 187.128 256.666 187.466 256.311 187.671Z" fill="#FAFAFA"/>
  <path d="M244.525 166.108C244.73 166.107 244.931 166.162 245.109 166.264C245.286 166.367 245.433 166.515 245.535 166.693L256.543 185.752C256.695 186.018 256.735 186.334 256.654 186.63C256.62 186.779 256.555 186.919 256.463 187.041C256.37 187.163 256.253 187.264 256.119 187.337L246.242 193.034C246.111 193.112 245.966 193.164 245.815 193.185C245.664 193.206 245.511 193.197 245.363 193.157C245.216 193.117 245.079 193.049 244.959 192.954C244.839 192.86 244.739 192.743 244.666 192.609L233.617 173.491C233.465 173.224 233.425 172.908 233.506 172.612C233.546 172.465 233.615 172.328 233.708 172.208C233.802 172.089 233.919 171.989 234.051 171.915L243.949 166.259C244.124 166.159 244.323 166.106 244.525 166.108ZM244.525 165.724C244.255 165.721 243.99 165.791 243.757 165.926L233.859 171.582C233.683 171.681 233.528 171.815 233.404 171.975C233.28 172.134 233.188 172.317 233.134 172.512C233.081 172.708 233.067 172.911 233.092 173.112C233.118 173.313 233.183 173.507 233.284 173.682L244.333 192.801C244.467 193.037 244.66 193.233 244.895 193.37C245.129 193.506 245.395 193.579 245.666 193.579C245.936 193.578 246.201 193.505 246.434 193.367L256.311 187.671C256.666 187.466 256.925 187.128 257.031 186.732C257.137 186.336 257.082 185.915 256.877 185.56L245.868 166.502C245.733 166.264 245.538 166.067 245.302 165.93C245.066 165.794 244.797 165.722 244.525 165.724Z" fill="#E0E0E0"/>
  <path d="M254.766 184.994L245.312 168.612C245.107 168.255 244.769 167.994 244.371 167.886C243.973 167.778 243.549 167.832 243.191 168.037L235.93 172.157C235.754 172.258 235.601 172.392 235.477 172.552C235.354 172.712 235.263 172.895 235.211 173.09C235.158 173.285 235.145 173.489 235.171 173.69C235.197 173.89 235.263 174.083 235.364 174.258L244.858 190.69C244.958 190.867 245.093 191.022 245.254 191.146C245.415 191.271 245.599 191.362 245.795 191.414C245.992 191.467 246.196 191.48 246.398 191.453C246.599 191.426 246.793 191.359 246.969 191.256L254.17 187.105C254.348 187.006 254.505 186.873 254.632 186.713C254.758 186.553 254.852 186.37 254.907 186.174C254.963 185.977 254.979 185.772 254.954 185.57C254.93 185.367 254.866 185.172 254.766 184.994Z" fill="#7749F8"/>
  <path opacity="0.2" d="M254.766 184.994L245.312 168.612C245.107 168.255 244.769 167.994 244.371 167.886C243.973 167.778 243.549 167.832 243.191 168.037L235.93 172.157C235.754 172.258 235.601 172.392 235.477 172.552C235.354 172.712 235.263 172.895 235.211 173.09C235.158 173.285 235.145 173.489 235.171 173.69C235.197 173.89 235.263 174.083 235.364 174.258L244.858 190.69C244.958 190.867 245.093 191.022 245.254 191.146C245.415 191.271 245.599 191.362 245.795 191.414C245.992 191.467 246.196 191.48 246.398 191.453C246.599 191.426 246.793 191.359 246.969 191.256L254.17 187.105C254.348 187.006 254.505 186.873 254.632 186.713C254.758 186.553 254.852 186.37 254.907 186.174C254.963 185.977 254.979 185.772 254.954 185.57C254.93 185.367 254.866 185.172 254.766 184.994Z" fill="black"/>
  <path d="M241.656 193.256L234.587 180.924C234.47 180.722 234.315 180.544 234.131 180.402C233.946 180.26 233.734 180.156 233.509 180.096C233.284 180.036 233.049 180.021 232.818 180.052C232.587 180.083 232.364 180.16 232.163 180.278L226.345 183.631C225.487 184.126 225.487 184.923 226.345 185.408L240.98 193.902C241.858 194.397 242.141 194.104 241.656 193.256Z" fill="#7749F8"/>
  <path opacity="0.2" d="M241.656 193.256L234.587 180.924C234.47 180.722 234.315 180.544 234.131 180.402C233.946 180.26 233.734 180.156 233.509 180.096C233.284 180.036 233.049 180.021 232.818 180.052C232.587 180.083 232.364 180.16 232.163 180.278L226.345 183.631C225.487 184.126 225.487 184.923 226.345 185.408L240.98 193.902C241.858 194.397 242.141 194.104 241.656 193.256Z" fill="black"/>
  <path d="M240.061 199.911L171.029 160.058V152.816L177.311 149.191L246.333 189.044V196.286L240.061 199.911Z" fill="#455A64"/>
  <path d="M240.061 199.911V192.67L171.029 152.816V160.058L240.061 199.911Z" fill="#37474F"/>
  <path d="M246.332 189.044L240.061 192.67V199.911L246.332 196.286V189.044Z" fill="#263238"/>
  <path d="M200.106 179.035L190.239 184.732C189.884 184.936 189.462 184.992 189.066 184.886C188.67 184.78 188.333 184.521 188.128 184.166L177.089 165.047C176.986 164.872 176.919 164.678 176.892 164.476C176.865 164.275 176.878 164.07 176.93 163.874C176.983 163.677 177.074 163.493 177.198 163.332C177.323 163.171 177.478 163.037 177.654 162.936L187.552 157.291C187.91 157.086 188.334 157.032 188.732 157.14C189.129 157.248 189.468 157.509 189.673 157.866L200.672 176.924C200.774 177.1 200.841 177.294 200.869 177.495C200.896 177.697 200.883 177.902 200.83 178.098C200.777 178.294 200.686 178.478 200.562 178.639C200.438 178.8 200.283 178.935 200.106 179.035Z" fill="#7749F8"/>
  <path d="M201.793 178.066L191.915 183.762C191.56 183.964 191.139 184.018 190.744 183.912C190.349 183.806 190.011 183.549 189.804 183.196L178.765 164.078C178.664 163.901 178.599 163.707 178.573 163.505C178.547 163.304 178.562 163.099 178.615 162.903C178.669 162.707 178.76 162.523 178.885 162.362C179.009 162.202 179.164 162.067 179.341 161.967L189.239 156.321C189.594 156.116 190.015 156.061 190.411 156.167C190.807 156.273 191.145 156.532 191.35 156.887L202.358 175.955C202.56 176.31 202.615 176.731 202.509 177.126C202.403 177.521 202.146 177.859 201.793 178.066Z" fill="#FAFAFA"/>
  <path d="M190.006 156.503C190.21 156.503 190.411 156.556 190.588 156.657C190.765 156.757 190.913 156.903 191.016 157.078L202.025 176.147C202.102 176.278 202.153 176.423 202.173 176.573C202.194 176.724 202.184 176.877 202.144 177.024C202.105 177.171 202.036 177.308 201.943 177.428C201.85 177.548 201.733 177.648 201.601 177.722L191.723 183.408C191.548 183.509 191.35 183.561 191.148 183.56C190.943 183.562 190.742 183.51 190.565 183.409C190.387 183.308 190.24 183.161 190.138 182.984L179.089 163.855C179.013 163.725 178.965 163.581 178.946 163.432C178.926 163.283 178.937 163.132 178.977 162.987C179.017 162.839 179.086 162.7 179.179 162.579C179.273 162.457 179.39 162.356 179.523 162.28L189.421 156.634C189.596 156.534 189.794 156.481 189.996 156.483M189.996 156.089C189.726 156.09 189.461 156.163 189.229 156.301L179.331 161.947C179.154 162.047 178.999 162.182 178.875 162.342C178.75 162.503 178.659 162.686 178.605 162.883C178.552 163.079 178.537 163.283 178.563 163.485C178.589 163.687 178.654 163.881 178.755 164.057L189.794 183.176C189.931 183.411 190.127 183.607 190.363 183.743C190.598 183.88 190.865 183.952 191.137 183.954C191.408 183.953 191.673 183.88 191.905 183.742L201.783 178.046C202.135 177.839 202.393 177.501 202.499 177.106C202.604 176.711 202.55 176.29 202.348 175.935L191.339 156.866C191.203 156.63 191.008 156.434 190.772 156.298C190.536 156.162 190.269 156.089 189.996 156.089Z" fill="#E0E0E0"/>
  <path d="M200.247 175.389L190.784 158.997C190.579 158.643 190.242 158.384 189.846 158.277C189.45 158.171 189.028 158.227 188.673 158.432L181.442 162.542C181.087 162.747 180.828 163.085 180.722 163.481C180.616 163.877 180.671 164.298 180.876 164.653L190.37 181.086C190.577 181.438 190.914 181.696 191.309 181.801C191.704 181.907 192.125 181.853 192.481 181.651L199.682 177.5C200.035 177.293 200.292 176.956 200.398 176.561C200.504 176.166 200.45 175.745 200.247 175.389Z" fill="#7749F8"/>
  <path opacity="0.2" d="M200.247 175.389L190.784 158.997C190.579 158.643 190.242 158.384 189.846 158.277C189.45 158.171 189.028 158.227 188.673 158.432L181.442 162.542C181.087 162.747 180.828 163.085 180.722 163.481C180.616 163.877 180.671 164.298 180.876 164.653L190.37 181.086C190.577 181.438 190.914 181.696 191.309 181.801C191.704 181.907 192.125 181.853 192.481 181.651L199.682 177.5C200.035 177.293 200.292 176.956 200.398 176.561C200.504 176.166 200.45 175.745 200.247 175.389Z" fill="black"/>
  <path d="M187.138 183.641L180.018 171.289C179.783 170.881 179.396 170.582 178.941 170.459C178.487 170.336 178.002 170.398 177.594 170.632L171.776 173.996C170.918 174.48 170.918 175.278 171.776 175.773L186.441 184.297C187.34 184.792 187.623 184.499 187.138 183.641Z" fill="#7749F8"/>
  <path opacity="0.2" d="M187.138 183.641L180.018 171.289C179.783 170.881 179.396 170.582 178.941 170.459C178.487 170.336 178.002 170.398 177.594 170.632L171.776 173.996C170.918 174.48 170.918 175.278 171.776 175.773L186.441 184.297C187.34 184.792 187.623 184.499 187.138 183.641Z" fill="black"/>
  <path opacity="0.3" d="M300.679 265.61C304.224 267.63 307.931 269.287 311.577 271.084C321.768 276.126 331.457 282.125 340.513 289.001C349.956 296.172 358.591 303.838 370.014 307.251C380.598 310.403 391.506 309.504 399.657 305.625C402.444 304.302 406.009 302.101 407.847 299.626C409.504 297.394 409.474 293.698 405.312 290.122C401.151 286.547 394.203 283.244 389.254 281.123C367.911 271.939 347.598 260.523 328.655 247.067C317.738 239.3 299.558 228.857 287.883 240.846C286.566 242.213 285.623 243.896 285.146 245.734C284.592 248.14 284.892 250.665 285.994 252.874C288.438 257.601 292.993 260.793 297.457 263.681C298.548 264.358 299.558 265.004 300.679 265.61Z" fill="#7749F8"/>
  <path d="M311.294 252.652C310.506 253.773 309.143 254.612 306.497 254.46C302.799 254.21 299.337 252.555 296.821 249.834C294.205 247.097 294.114 244.017 294.751 240.906C295.492 237.98 296.602 235.16 298.053 232.513C299.063 230.493 299.063 227.736 299.063 224.828C299.063 221.919 299.417 217.818 301.487 216.455C303.558 215.091 307.103 214.213 309.426 215.879L304.083 246.764L311.476 252.47" fill="#37474F"/>
  <path d="M296.013 240.522C296.72 238.078 298.508 234.21 299.326 231.786C300.144 229.362 299.609 221.484 301.81 218.091C304.012 214.697 308.587 215.223 310.274 216.283C311.961 217.344 313.183 219.586 314.93 221.272C316.677 222.959 316.859 223.454 316.576 225.019V225.262C316.576 225.262 316.011 227.544 314.97 231.099C313.93 234.655 310.759 238.785 311.345 241.775C311.93 244.764 313.89 246.199 313.092 250.491C312.294 254.783 303.558 253.42 299.74 250.44C295.922 247.461 295.064 243.754 296.013 240.522Z" fill="#455A64"/>
  <path d="M296.013 240.522C296.72 238.078 298.508 234.21 299.326 231.786C300.144 229.362 299.609 221.484 301.81 218.091C304.012 214.697 308.587 215.223 310.274 216.283C311.961 217.344 313.183 219.586 314.93 221.272C316.677 222.959 316.859 223.454 316.576 225.019V225.262C316.576 225.262 316.011 227.544 314.97 231.099C313.93 234.655 310.759 238.785 311.345 241.775C311.93 244.764 313.89 246.199 313.092 250.491C312.294 254.783 303.558 253.42 299.74 250.44C295.922 247.461 295.064 243.754 296.013 240.522Z" fill="#455A64"/>
  <path d="M300.81 228.645C301.517 225.757 300.75 222.353 302.669 219.869C304.194 217.909 307.83 216.687 310.981 216.839C312.324 218 313.435 219.869 314.93 221.293L315.475 221.828C312.647 221.427 309.762 221.819 307.143 222.959C302.649 227.797 301.083 235.139 300.911 241.603C300.72 242.391 301.467 244.946 300.386 244.845C298.366 243.583 298.558 240.28 298.77 238.169C298.892 234.917 300.507 231.887 300.81 228.645Z" fill="#7749F8"/>
  <path d="M310.314 215.425C310.861 215.413 311.407 215.488 311.93 215.647C312.164 215.739 312.355 215.916 312.466 216.142C312.546 216.324 312.466 216.445 312.405 216.616C312.351 216.896 312.327 217.18 312.334 217.465C312.305 217.775 312.251 218.082 312.173 218.384C312.092 218.737 311.963 219.076 311.789 219.394C311.637 219.722 311.408 220.01 311.122 220.232C311.03 220.282 310.924 220.303 310.819 220.293C310.651 220.277 310.482 220.277 310.314 220.293C309.914 220.333 309.516 220.393 309.123 220.475C308.259 220.646 307.415 220.91 306.608 221.262C306.289 221.424 305.949 221.54 305.598 221.606C305.024 221.644 304.458 221.463 304.012 221.101C303.764 220.918 303.531 220.715 303.315 220.495L303.012 220.182C302.851 220.012 302.717 219.818 302.618 219.606C302.297 219.038 302.104 218.408 302.053 217.758C302.566 217.074 303.229 216.518 303.992 216.132C304.338 215.959 304.7 215.821 305.073 215.718C305.171 215.691 305.266 215.654 305.355 215.606C305.68 215.491 306.021 215.429 306.365 215.425C307.208 215.352 308.055 215.325 308.9 215.344C309.395 215.384 309.85 215.394 310.314 215.425Z" fill="#37474F"/>
  <path d="M298.972 245.229C301.115 247.752 304.123 249.383 307.406 249.804C307.928 249.885 308.459 249.885 308.981 249.804C309.647 249.634 310.262 249.307 310.776 248.85C311.289 248.393 311.685 247.82 311.93 247.178C312.201 246.531 312.391 245.852 312.496 245.158C313.243 246.839 313.438 248.713 313.051 250.511C312.243 254.814 303.517 253.44 299.7 250.461C295.882 247.481 295.064 243.775 296.013 240.543C296.074 240.331 296.155 240.098 296.225 239.866C296.717 241.841 297.657 243.676 298.972 245.229Z" fill="#7749F8"/>
  <path d="M307.274 218.576C311.89 216.091 313.566 216.364 321.666 212.132C329.766 207.9 338.038 199.78 349.663 199.154L358.339 158.755L387.577 166.158C386.143 172.026 382.75 182.742 378.286 196.659C373.236 212.253 369.6 213.485 367.055 214.364C355.743 218.242 332.301 223.838 325.777 225.949C319.253 228.059 316.122 228.696 313.102 232.584C311.567 233.372 310.799 232.18 308.971 230.877C308.067 230.285 307.327 229.475 306.817 228.522C306.307 227.569 306.044 226.504 306.052 225.423C305.941 222.898 305.618 220.828 307.274 218.576Z" fill="#FFA8A7"/>
  <path d="M388.315 164.128C388.315 164.128 384.467 178.561 380.235 191.66C376.003 204.759 374.003 208.163 374.003 208.163C368.08 208.498 362.164 207.378 356.773 204.901C348.572 200.861 348.34 196.518 348.34 196.518L357.228 157.19L388.315 164.128Z" fill="#37474F"/>
  <path d="M343.603 159.169L385.113 164.118C385.406 176.874 372.276 182.53 372.276 182.53C372.276 182.53 383.386 214.415 385.668 224.1C387.436 231.665 391.254 256.813 392.062 263.307C392.375 265.327 392.647 267.095 392.849 268.287C393.405 271.549 393.465 272.943 394.526 272.842C396.546 272.66 399.424 268.994 401.707 267.549C403.989 266.105 407.888 264.317 410.696 265.721C413.503 267.125 413.837 274.235 411.857 277.154C409.878 280.073 407.676 281.669 405.09 284.507C402.505 287.345 399.859 292.89 397.495 294.526C395.132 296.162 391.799 297.889 388.133 296.546C384.467 295.202 384.093 287.102 383.689 284.214C383.285 281.325 380.982 276.276 379.356 272.589L378.346 270.337C378.346 270.337 372.771 258.217 368.105 247.047C364.348 238.058 364.126 233.241 363.984 228.413C352.228 207.113 348.037 201.588 342.674 192.185C337.311 182.782 339.715 172.167 343.603 159.169Z" fill="#FFA8A7"/>
  <path d="M386.678 163.765C382.911 180.379 373.286 183.116 373.286 183.116L383.588 215.606C383.588 215.606 381.002 219.061 372.609 222.121C364.217 225.181 361.5 224.373 361.5 224.373C361.5 224.373 351.966 209.001 346.007 199.184C340.048 189.367 338.008 183.853 338.624 176.43C339.24 169.006 343.785 157.765 343.785 157.765L386.678 163.765Z" fill="#455A64"/>
  <path d="M386.79 273.811C391.042 270.276 393.799 271.791 393.799 271.791C393.799 271.791 394.809 273.478 397.495 270.266C399.181 268.383 401.206 266.835 403.464 265.701C406.848 263.913 409.423 263.833 411.079 265.327C411.079 265.327 405.434 272.63 401.505 275.154L402.727 276.629L385.305 294.344C384.297 291.553 383.676 288.638 383.457 285.678C382.982 281.447 382.174 280.174 382.174 280.174C382.174 280.174 382.548 277.336 386.79 273.811Z" fill="#455A64"/>
  <path d="M401.909 274.397C401.423 274.788 400.833 275.027 400.212 275.084C400.048 275.086 399.888 275.033 399.758 274.932C399.632 274.779 399.568 274.585 399.576 274.387C399.394 271.71 400.243 269.065 401.949 266.994C402.2 266.694 402.47 266.411 402.757 266.145L403.464 265.731C406.848 263.944 409.423 263.863 411.079 265.358C409.324 267.594 407.453 269.739 405.474 271.781L405.211 271.983C404.121 272.801 403.04 273.629 401.909 274.397Z" fill="#7749F8"/>
  <path d="M392.183 280.366C393.809 278.417 395.011 276.104 396.899 274.407C396.964 275.365 396.735 276.32 396.243 277.144C394.175 281.392 391.26 285.173 387.678 288.254C387.244 288.628 386.588 289.011 386.133 288.648C385.973 288.503 385.854 288.318 385.79 288.112C385.44 287.428 385.205 286.691 385.093 285.931C385.093 285.254 385.921 285.103 386.406 284.87C387.822 284.193 389.14 283.326 390.324 282.295C390.99 281.698 391.611 281.053 392.183 280.366Z" fill="#7749F8"/>
  <path d="M388.315 291.284L385.285 294.314C384.277 291.523 383.655 288.607 383.436 285.648V285.406C383.533 285.291 383.638 285.183 383.749 285.082C384.014 284.821 384.364 284.664 384.735 284.64C385.106 284.616 385.473 284.726 385.769 284.951C386.275 285.499 386.623 286.172 386.779 286.9C387.244 288.274 387.789 289.627 388.183 291.011C388.264 291.122 388.294 291.203 388.315 291.284Z" fill="#37474F"/>
  <path d="M413.625 268.246C413.559 267.795 413.405 267.36 413.171 266.969C412.937 266.577 412.628 266.235 412.261 265.964C412.039 265.822 411.251 265.428 411.079 265.327C409.059 264.075 405.494 266.974 402.515 269.802C399.051 273.104 395.93 279.639 393.162 284.083C390.395 288.527 386.88 290.284 385.749 292.243C385.377 292.849 385.218 293.561 385.297 294.267C385.375 294.973 385.688 295.633 386.184 296.142C386.375 296.344 387.062 296.95 387.194 297.081C387.846 297.56 388.601 297.88 389.399 298.015C390.197 298.15 391.015 298.096 391.789 297.859C395.748 297 398.576 295.667 401.747 290.91C404.919 286.153 406.595 283.679 410.362 280.578C414.13 277.477 414.534 272.034 413.625 268.246Z" fill="#37474F"/>
  <path d="M413.625 268.246C412.352 262.994 407.565 266.772 403.697 270.438C400.232 273.741 397.112 280.275 394.344 284.719C391.577 289.163 387.971 290.87 386.931 292.88C385.042 296.515 387.84 298.717 391.799 297.859C395.758 297 398.586 295.667 401.757 290.91C404.929 286.153 406.605 283.679 410.372 280.578C414.14 277.477 414.534 272.034 413.625 268.246Z" fill="#263238"/>
  <path d="M395.506 272.064C394.314 272.619 393.829 271.822 393.829 271.822C390.143 275.73 389.789 278.195 389.789 278.195C389.789 278.195 393.334 273.589 395.506 272.064Z" fill="#37474F"/>
  <path d="M399.636 115.74C405.696 117.599 407.05 120.679 412.221 127.567C419.503 137.253 421.159 139.687 421.159 139.687C425.629 135.665 429.877 131.403 433.885 126.921C435.054 125.391 435.696 123.523 435.713 121.598C435.7 120.126 435.883 118.659 436.258 117.235C436.74 115.56 437.078 113.847 437.268 112.114C437.242 112.008 437.242 111.897 437.268 111.791C437.591 111.347 438.601 111.529 438.995 111.892C439.655 112.424 440.083 113.192 440.187 114.033C440.399 115.043 439.732 118.477 440.672 117.74C441.227 117.245 441.813 115.659 442.621 113.478C443.025 112.357 443.994 108.883 444.217 107.671C444.315 106.656 444.685 105.686 445.287 104.863C445.446 104.639 445.647 104.449 445.879 104.304C446.111 104.158 446.37 104.06 446.641 104.014C446.69 103.988 446.746 103.974 446.802 103.974C446.859 103.974 446.914 103.988 446.964 104.014C447.102 104.14 447.189 104.313 447.206 104.499C447.358 105.641 447.438 106.216 447.61 107.368C448.184 107.571 448.688 107.934 449.063 108.413C449.439 108.892 449.67 109.469 449.731 110.074C449.721 110.446 449.741 110.817 449.792 111.185C449.919 111.542 450.152 111.852 450.458 112.074C451.216 112.67 451.721 112.933 451.791 113.771C451.791 114.316 451.62 114.781 451.62 115.367C451.62 115.952 451.913 116.316 451.933 116.882C451.993 118.487 450.317 122.305 449.448 123.729C448.425 125.318 447.263 126.812 445.974 128.193C444.742 129.557 443.035 131.425 441.934 132.89C440.833 134.354 439.854 135.576 439.338 136.414C436.218 141.464 431.653 148.867 425.36 154.776C422.866 157.129 418.836 156.361 414.089 152.392C410.049 149.009 401.414 139.465 396.041 133.576C394.385 124.527 391.122 113.094 399.636 115.74Z" fill="#FFA8A7"/>
  <path d="M401.565 136.233C404.848 124.891 401.646 117.568 399.647 115.7L391.334 111.539C388.305 110.761 373.246 108.509 369.458 108.034C367.034 107.751 360.187 109.903 357.197 118.699C355.177 124.628 354.167 130.759 351.471 140.384C349.522 147.352 346.239 152.109 341.654 161.724C355.157 172.117 372.074 177.086 386.668 172.652C388.063 166.551 390.293 160.672 393.294 155.18C395.597 150.817 400.465 139.98 401.565 136.233Z" fill="#7749F8"/>
  <path d="M326.373 164.219C326.1 161.906 325.908 160.179 326.171 159.533C326.686 158.452 327.646 161.825 328.282 162.623C328.754 163.323 329.477 163.815 330.302 163.997C330.817 164.138 331.807 163.845 331.887 163.3C331.887 163.189 331.887 163.098 331.797 162.997C331.17 161.358 330.687 159.669 330.352 157.947C330.042 156.507 329.543 155.115 328.868 153.806C328.014 152.077 327.744 150.117 328.1 148.221C329.686 141.817 331.71 135.531 334.16 129.405C340.583 128.88 354.986 127.042 357.803 126.82C361.712 126.517 364.419 124.426 366.661 121.83C368.903 119.235 371.034 110.468 369.448 107.963C364.237 106.853 361.975 107.832 356.147 109.105C352.491 109.903 350.218 110.448 342.007 112.397C338.977 113.114 333.402 114.336 327.868 115.912C326.03 116.437 323.828 116.922 322.818 120.962C321.775 124.786 320.939 128.663 320.313 132.577C319.788 135.687 319.748 137.111 318.98 142.202C318.828 143.212 318.566 144.706 318.243 146.514C317.919 148.322 317.233 150.746 316.758 152.523C316.238 154.34 315.876 156.199 315.677 158.078C315.546 159.735 315.778 163.896 316.556 165.31C316.829 165.805 317.273 166.037 317.566 166.522C317.729 167.029 317.918 167.528 318.132 168.016C318.576 168.734 319.142 168.744 320.081 168.936C320.462 168.989 320.815 169.162 321.091 169.43C321.305 169.732 321.491 170.054 321.646 170.39C321.975 170.901 322.441 171.309 322.992 171.566C323.542 171.823 324.154 171.92 324.757 171.844C325.434 172.794 325.767 173.278 326.423 174.218C326.469 174.297 326.53 174.367 326.603 174.422C326.676 174.478 326.759 174.518 326.848 174.541C326.905 174.547 326.963 174.54 327.017 174.521C327.071 174.502 327.12 174.471 327.161 174.43C327.602 174.096 327.896 173.603 327.979 173.056C328.153 172.037 328.045 170.989 327.666 170.026C327.221 168.966 326.514 165.431 326.373 164.219Z" fill="#FFA8A7"/>
  <path d="M381.124 106.378C382.063 101.934 377.619 97.3688 377.417 91.7231C377.245 86.35 378.326 79.3105 384.487 78.2702C387.375 73.9981 393.678 72.7154 399.111 73.8668C411.605 76.5129 413.726 86.7843 408.979 94.7833C401.646 101.217 390.052 102.116 381.124 106.378Z" fill="#263238"/>
  <path d="M392.415 117.225C393.556 114.791 394.647 112.104 394.647 112.104L383.194 99.4797L378.881 110.781C378.824 110.888 378.786 111.004 378.77 111.125C377.902 114.033 386.628 123.164 391.557 123.436C394.496 123.598 393.768 120.538 392.415 117.225Z" fill="#FFA8A7"/>
  <path d="M384.123 100.086C384.123 100.086 383.255 104.883 385.396 108.095C385.82 108.731 387.416 111.347 393.92 113.841L394.647 112.104C392.932 111.604 391.274 110.927 389.698 110.084C388.708 109.499 387.787 108.804 386.951 108.014C384.396 105.641 384.396 101.055 384.123 100.086Z" fill="#F28F8F"/>
  <path d="M408.171 84.7341C408.262 84.9563 407.221 85.542 407.08 85.6329C406.439 86.0041 405.763 86.3087 405.06 86.5419C403.648 86.9989 402.171 87.2274 400.687 87.2186C398.272 87.1663 395.876 86.7823 393.566 86.0773C393.458 86.0419 393.341 86.0419 393.233 86.0773C393.11 86.1336 393.012 86.2347 392.96 86.3601C392.643 87.0618 392.231 87.7175 391.738 88.3094C390.981 88.9345 390.065 89.3367 389.092 89.4708C389.004 89.481 388.92 89.516 388.85 89.5718C388.802 89.635 388.768 89.7071 388.749 89.7839C388.294 91.5211 388.971 93.5006 388.143 95.0964C387.996 95.4098 387.756 95.6706 387.456 95.8438C387.341 95.9057 387.214 95.9426 387.083 95.952C386.953 95.9614 386.821 95.9431 386.698 95.8982C386.575 95.8534 386.463 95.7831 386.369 95.6919C386.275 95.6007 386.202 95.4907 386.153 95.3691C385.567 94.2682 385.376 93.0159 384.901 91.8645C384.711 91.4196 384.499 90.9847 384.265 90.5616C384.022 90.0265 383.68 89.543 383.255 89.1376C382.886 88.8829 382.469 88.7067 382.029 88.6199C381.59 88.533 381.137 88.5373 380.699 88.6326C380.092 88.7822 379.53 89.0774 379.062 89.4927C378.594 89.9079 378.234 90.4307 378.013 91.0161C377.634 92.0255 377.462 93.1004 377.505 94.1776C377.549 95.2547 377.807 96.3123 378.265 97.288C378.467 97.8762 378.799 98.4114 379.236 98.8537C379.673 99.2961 380.205 99.6343 380.79 99.8433C382.558 100.389 383.245 99.5201 383.255 99.4999L384.123 100.51C384.345 102.53 384.729 105.479 386.143 107.368C387.557 109.256 389.042 110.115 392.072 111.296C395.102 112.478 400.586 113.013 402.454 112.599C404.323 112.185 407.383 111.104 408.898 100.48C410.655 87.562 408.383 85.2593 408.171 84.7341Z" fill="#FFA8A7"/>
  <path d="M396.99 95.0257C396.983 95.2119 396.937 95.3945 396.856 95.5623C396.775 95.7302 396.661 95.8796 396.52 96.0015C396.379 96.1234 396.214 96.2151 396.037 96.2709C395.859 96.3268 395.672 96.3456 395.486 96.3262C395.301 96.3069 395.122 96.2497 394.959 96.1583C394.797 96.067 394.655 95.9433 394.542 95.7949C394.43 95.6465 394.348 95.4766 394.304 95.2957C394.259 95.1148 394.253 94.9266 394.284 94.7429C394.291 94.5568 394.337 94.3741 394.418 94.2063C394.499 94.0385 394.613 93.889 394.754 93.7671C394.895 93.6453 395.059 93.5536 395.237 93.4977C395.415 93.4419 395.602 93.423 395.788 93.4424C395.973 93.4618 396.152 93.5189 396.315 93.6103C396.477 93.7017 396.619 93.8254 396.732 93.9737C396.844 94.1221 396.925 94.292 396.97 94.4729C397.014 94.6539 397.021 94.842 396.99 95.0257Z" fill="#263238"/>
  <path d="M398.909 104.631C398.881 104.836 398.792 105.029 398.655 105.185C398.517 105.341 398.337 105.453 398.137 105.508C397.936 105.562 397.724 105.557 397.527 105.491C397.329 105.426 397.156 105.305 397.027 105.142C396.898 104.979 396.82 104.781 396.802 104.574C396.785 104.367 396.828 104.16 396.928 103.977C397.027 103.795 397.178 103.645 397.361 103.548C397.545 103.45 397.753 103.409 397.96 103.429C398.101 103.445 398.238 103.489 398.362 103.558C398.487 103.628 398.596 103.721 398.684 103.832C398.772 103.944 398.838 104.072 398.876 104.209C398.915 104.346 398.926 104.489 398.909 104.631Z" fill="#AF6152"/>
  <path d="M397.364 90.9757L394.102 90.299C394.206 89.8628 394.473 89.4832 394.849 89.2388C395.225 88.9943 395.681 88.9039 396.122 88.9861C396.337 89.0298 396.541 89.1169 396.721 89.242C396.901 89.3671 397.054 89.5276 397.171 89.7138C397.287 89.9 397.364 90.1079 397.397 90.3249C397.43 90.5418 397.419 90.7633 397.364 90.9757Z" fill="#263238"/>
  <path d="M408.019 91.5009L404.686 91.8948C404.649 91.6791 404.656 91.4581 404.708 91.2453C404.759 91.0326 404.853 90.8326 404.985 90.6576C405.116 90.4826 405.282 90.3363 405.472 90.2278C405.662 90.1192 405.873 90.0507 406.09 90.0263C406.54 89.9767 406.991 90.1022 407.35 90.3769C407.71 90.6515 407.949 91.0541 408.019 91.5009Z" fill="#263238"/>
  <path d="M407.302 95.6317C407.294 95.8178 407.249 96.0005 407.168 96.1683C407.087 96.3361 406.972 96.4856 406.832 96.6075C406.691 96.7293 406.526 96.821 406.348 96.8769C406.171 96.9327 405.983 96.9516 405.798 96.9322C405.613 96.9128 405.433 96.8557 405.271 96.7643C405.109 96.6729 404.967 96.5492 404.854 96.4008C404.741 96.2525 404.66 96.0826 404.616 95.9017C404.571 95.7207 404.564 95.5326 404.595 95.3489C404.603 95.1627 404.649 94.9801 404.73 94.8123C404.81 94.6444 404.925 94.495 405.066 94.3731C405.207 94.2512 405.371 94.1595 405.549 94.1037C405.727 94.0478 405.914 94.029 406.099 94.0484C406.285 94.0677 406.464 94.1249 406.626 94.2163C406.789 94.3076 406.931 94.4313 407.043 94.5797C407.156 94.7281 407.237 94.898 407.282 95.0789C407.326 95.2598 407.333 95.448 407.302 95.6317Z" fill="#263238"/>
  <path d="M400.606 94.7328L401.04 102.146L405.767 101.035C405.227 98.4395 403.859 96.0895 401.868 94.3389C400.485 93.5209 400.606 94.7328 400.606 94.7328Z" fill="#F28F8F"/>
  <path d="M401.848 135.122C401.757 135.495 401.666 135.849 401.555 136.233C400.545 139.848 395.99 149.948 393.587 154.614C379.891 156.472 365.671 149.948 365.671 149.948L372.458 131.142C378.669 133.526 392.476 136.283 401.848 135.122Z" fill="#FAFAFA"/>
  <path opacity="0.3" d="M112.945 259.52C117.935 262.045 122.964 264.479 127.943 267.014C137.134 271.69 146.507 276.619 155.698 281.285C164.888 285.951 170.372 290.072 173.645 297.293C174.963 300.283 175.377 303.594 174.837 306.817C174.648 308.275 174.106 309.665 173.257 310.865C172.409 312.066 171.28 313.041 169.968 313.705C168.333 314.535 166.646 315.261 164.919 315.877C164.498 316.007 164.116 316.239 163.808 316.553C163.669 316.718 163.587 316.922 163.572 317.136C163.558 317.35 163.612 317.564 163.727 317.745C163.981 317.95 164.278 318.095 164.595 318.169C164.898 318.29 165.201 318.563 165.131 318.876C165.06 319.189 164.838 319.24 164.636 319.351L161.475 320.987C160.929 321.27 160.293 321.765 160.465 322.351C160.636 322.936 161.343 322.957 161.909 322.946L165.878 322.815C164.731 324.088 163.362 325.142 161.838 325.926C161.444 326.128 160.97 326.451 161.05 326.885C161.128 327.121 161.295 327.317 161.515 327.431C163.161 328.441 165.312 328.027 167.07 327.229C168.191 326.734 169.383 326.087 170.554 326.411L168.534 328.723C168.246 329.013 168.016 329.356 167.858 329.733C167.781 329.924 167.76 330.133 167.797 330.335C167.835 330.537 167.929 330.724 168.07 330.875C168.288 331.011 168.537 331.091 168.794 331.109C169.051 331.126 169.309 331.081 169.544 330.976C172.502 330.123 175.207 328.559 177.422 326.421C178.569 325.14 179.819 323.954 181.159 322.876C181.271 322.777 181.403 322.702 181.545 322.655C181.687 322.608 181.838 322.59 181.987 322.603C182.543 322.714 182.644 323.441 182.623 324.007L182.543 325.956C182.543 326.966 182.644 328.35 183.643 328.663C183.927 328.731 184.223 328.721 184.502 328.636C184.781 328.551 185.032 328.393 185.229 328.178C185.611 327.741 185.902 327.233 186.088 326.683C186.516 325.339 187.103 324.051 187.835 322.845C189.098 321.276 190.691 320.003 192.501 319.119C195.332 317.382 198.391 316.05 201.591 315.16C204.718 314.421 207.899 313.938 211.105 313.715C215.504 313.364 219.745 311.912 223.436 309.494C227.126 307.047 229.931 303.477 231.435 299.313C231.798 298.047 232.233 296.803 232.738 295.586C233.256 294.359 234.23 293.381 235.455 292.859C236.99 292.314 238.717 292.859 240.333 292.597C240.662 292.563 240.969 292.417 241.202 292.183C241.351 291.925 241.429 291.632 241.429 291.334C241.429 291.036 241.351 290.744 241.202 290.486C240.677 289.244 238.95 287.375 239.909 286.082C240.38 285.584 241.007 285.26 241.687 285.163C244.347 284.612 246.973 283.91 249.554 283.063C251.332 282.386 253.19 281.346 253.857 279.548C253.943 279.372 253.961 279.171 253.907 278.982C253.776 278.659 253.332 278.609 252.978 278.619C247.342 278.71 241.273 279.457 235.667 278.881C231.246 278.416 226.86 277.66 222.538 276.619C205.787 272.644 190.624 263.711 179.028 250.986C174.665 246.128 169.746 240.24 163.232 240.714C157.687 241.128 153.617 246.128 148.375 247.976C137.265 251.905 125.61 242.28 115.824 238.341C112.718 236.937 109.332 236.267 105.926 236.382C102.468 236.764 99.1195 237.821 96.0687 239.492C95.2123 239.939 94.4595 240.561 93.8592 241.318C93.2589 242.075 92.8245 242.95 92.5843 243.886C91.746 248.077 97.6341 251.097 100.664 252.885C104.684 255.238 108.794 257.409 112.945 259.52Z" fill="#7749F8"/>
  <path d="M113.157 244.684C112.592 245.865 111.44 246.885 108.916 247.168C105.371 247.547 101.817 246.549 98.9875 244.381C96.0687 242.209 95.4829 239.331 95.5738 236.301C95.7942 233.407 96.3813 230.553 97.321 227.807C97.9169 225.787 97.4826 223.121 96.9979 220.373C96.5131 217.626 96.1798 213.677 97.9169 212.051C99.6541 210.425 102.866 209.021 105.34 210.203V240.32L113.269 244.512" fill="#37474F"/>
  <path d="M96.705 235.695C96.9776 233.271 98.0381 229.302 98.4118 226.888C98.7855 224.474 96.9877 217.081 98.5128 213.506C100.038 209.93 104.472 209.688 106.239 210.415C108.007 211.142 109.532 213.061 111.461 214.364C113.39 215.667 113.642 216.122 113.632 217.647V217.889C113.632 217.889 113.471 220.141 113.067 223.676C112.663 227.211 110.34 231.645 111.39 234.382C112.44 237.119 114.521 238.149 114.42 242.351C114.319 246.552 105.876 246.673 101.775 244.482C97.6745 242.29 96.3313 238.957 96.705 235.695Z" fill="#455A64"/>
  <path d="M96.705 235.695C96.9776 233.271 98.0381 229.302 98.4118 226.888C98.7855 224.474 96.9877 217.081 98.5128 213.506C100.038 209.93 104.472 209.688 106.239 210.415C108.007 211.142 109.532 213.061 111.461 214.364C113.39 215.667 113.642 216.122 113.632 217.647V217.889C113.632 217.889 113.471 220.141 113.067 223.676C112.663 227.211 110.34 231.645 111.39 234.382C112.44 237.119 114.521 238.149 114.42 242.351C114.319 246.552 105.876 246.673 101.775 244.482C97.6745 242.29 96.3313 238.957 96.705 235.695Z" fill="#455A64"/>
  <path d="M99.3006 223.666C99.4925 220.818 98.2098 217.717 99.6238 215.051C100.745 212.94 103.987 211.193 106.997 210.799C108.461 211.688 109.814 213.253 111.461 214.364L112.077 214.788C109.33 214.875 106.66 215.717 104.361 217.222C100.896 222.535 100.654 229.736 101.512 235.897C101.512 236.674 102.593 238.927 101.512 239.048C99.3713 238.189 99.038 235.008 98.8966 232.988C98.5027 229.867 99.5834 226.757 99.3006 223.666Z" fill="#7749F8"/>
  <path d="M106.239 210.415C107.714 211.011 109.027 212.435 110.542 213.677C110.188 213.677 109.835 213.728 109.532 213.758C108.83 213.814 108.135 213.926 107.451 214.091C106.095 214.425 104.802 214.978 103.623 215.728C103.34 215.938 103.027 216.104 102.694 216.223C102.158 216.355 101.591 216.279 101.108 216.01C100.85 215.874 100.601 215.723 100.361 215.556L100.018 215.303C99.8373 215.165 99.6775 215.002 99.543 214.819C99.151 214.333 98.8686 213.768 98.7148 213.162C100.331 209.93 104.522 209.668 106.239 210.415Z" fill="#37474F"/>
  <path d="M100.27 239.674C102.718 241.701 105.831 242.748 109.006 242.613C109.515 242.611 110.02 242.525 110.501 242.361C111.103 242.09 111.632 241.679 112.043 241.163C112.454 240.646 112.736 240.039 112.865 239.391C113.012 238.728 113.08 238.05 113.067 237.371C114.047 238.841 114.535 240.585 114.46 242.351C114.46 246.542 105.916 246.673 101.815 244.482C97.7149 242.29 96.3313 238.907 96.7049 235.695C96.7049 235.483 96.7655 235.25 96.7958 235.018C97.586 236.813 98.7741 238.406 100.27 239.674Z" fill="#7749F8"/>
  <path d="M152.314 223.939C150.506 229.443 147.991 237.715 145.244 243.128C142.952 247.713 136.72 250.107 132.266 247.905C127.812 245.704 110.269 228.857 107.663 228.07C105.057 227.282 103.886 226.918 103.694 225.959C103.502 224.999 103.401 220.273 104.855 218.717C106.31 217.162 110.764 215.637 112.39 216.485C114.938 217.914 117.565 219.199 120.258 220.333C123.368 221.707 127.529 223.424 127.529 223.424L128.943 217.737L152.314 223.939Z" fill="#C8856A"/>
  <path d="M127.863 235.301C126.239 231.378 125.702 227.09 126.307 222.888L127.6 223.424L128.156 221.192C128.411 221.43 128.638 221.698 128.832 221.989L128.509 224.504C127.52 228.015 127.299 231.697 127.863 235.301Z" fill="#AF6152"/>
  <path d="M170.817 246.592C170.483 247.855 169.524 249.067 167.09 249.794C163.667 250.79 159.992 250.428 156.829 248.784C153.566 247.178 152.476 244.431 152.021 241.411C151.722 238.525 151.794 235.613 152.233 232.746C152.455 230.615 151.567 228.11 150.597 225.484C149.628 222.858 148.577 219.04 150.021 217.131C151.466 215.223 154.344 213.253 157 213.99L162.353 243.633L170.898 246.36" fill="#37474F"/>
  <path d="M153.031 240.664C152.87 238.23 153.213 234.15 153.142 231.695C153.072 229.241 150.011 222.303 150.88 218.515C151.749 214.728 156.051 213.698 157.95 214.091C159.848 214.485 161.666 216.111 163.797 217.061C165.929 218.01 166.252 218.394 166.514 219.899V220.141C166.514 220.141 166.757 222.383 166.989 225.938C167.221 229.494 165.716 234.261 167.231 236.765C168.746 239.27 170.978 239.916 171.675 244.057C172.372 248.198 164.03 249.834 159.556 248.41C155.081 246.986 153.243 243.896 153.031 240.664Z" fill="#455A64"/>
  <path d="M153.031 240.664C152.87 238.23 153.213 234.15 153.142 231.695C153.072 229.241 150.011 222.303 150.88 218.515C151.749 214.728 156.051 213.698 157.95 214.091C159.848 214.485 161.666 216.111 163.797 217.061C165.929 218.01 166.252 218.394 166.514 219.899V220.141C166.514 220.141 166.757 222.383 166.989 225.938C167.221 229.494 165.716 234.261 167.231 236.765C168.746 239.27 170.978 239.916 171.675 244.057C172.372 248.198 164.03 249.834 159.556 248.41C155.081 246.986 153.243 243.896 153.031 240.664Z" fill="#455A64"/>
  <path d="M153.445 228.372C153.132 225.534 151.324 222.717 152.233 219.828C152.971 217.556 155.849 215.263 158.738 214.344C160.333 214.95 161.949 216.253 163.787 217.061L164.464 217.374C161.776 217.94 159.297 219.24 157.303 221.131C154.849 226.979 155.879 234.109 157.818 240.017C157.909 240.785 159.424 242.845 158.414 243.108C156.152 242.643 155.263 239.593 154.758 237.624C153.779 234.655 154.233 231.362 153.445 228.372Z" fill="#7749F8"/>
  <path d="M157.919 214.091C159.485 214.425 161.03 215.617 162.737 216.546L161.727 216.808C161.036 216.987 160.361 217.22 159.707 217.505C158.43 218.08 157.256 218.861 156.233 219.818C155.993 220.075 155.718 220.296 155.415 220.475C154.91 220.697 154.339 220.718 153.819 220.535C153.536 220.45 153.259 220.346 152.991 220.222L152.617 220.03C152.411 219.94 152.226 219.809 152.072 219.646C151.595 219.238 151.213 218.732 150.951 218.162C152.021 214.718 156.142 213.708 157.919 214.091Z" fill="#37474F"/>
  <path d="M157.253 243.946C160.013 245.501 163.249 245.983 166.343 245.3C166.841 245.197 167.321 245.02 167.767 244.774C168.312 244.402 168.759 243.903 169.072 243.322C169.385 242.74 169.554 242.092 169.564 241.431C169.591 240.754 169.537 240.076 169.403 239.412C170.627 240.683 171.419 242.309 171.665 244.057C172.352 248.198 164.02 249.834 159.545 248.41C155.071 246.986 153.162 243.896 152.95 240.664C152.95 240.452 152.95 240.219 152.95 239.987C154.062 241.62 155.534 242.974 157.253 243.946Z" fill="#7749F8"/>
  <path d="M196.016 206.325C196.738 211.724 196.653 217.201 195.763 222.575C194.642 227.625 188.764 228.948 183.835 229.584C177.21 230.443 165.161 231.483 162.495 231.211C159.828 230.938 158.576 230.746 158.222 229.837C157.869 228.928 156.93 224.292 158.081 222.505C159.232 220.717 163.353 218.465 165.151 218.97C167.484 219.707 172.907 215.859 176.452 215.162L174.897 206.325L175.281 200.467L196.016 206.325Z" fill="#C8856A"/>
  <path d="M177.21 217.96C174.923 214.385 173.636 210.263 173.483 206.022L174.847 206.325L174.998 204.022C175.291 204.214 175.562 204.438 175.806 204.689L175.927 207.224C175.583 210.853 176.02 214.514 177.21 217.96Z" fill="#AF6152"/>
  <path d="M182.401 191.822C175.897 182.732 169.665 178.853 163.383 177.682C157.101 176.51 151.567 182.015 151.567 182.015C151.567 182.015 145.062 180.611 140.063 184.317C135.064 188.024 133.256 193.064 131.6 200.477C130.59 204.971 126.903 223.333 126.903 223.333C126.903 223.333 127.267 227.968 135.882 230.524C144.497 233.079 150.244 230.473 151.476 228.181L158.031 207.315L182.401 191.822Z" fill="#37474F"/>
  <path d="M235.182 274.306C235.214 274.267 235.254 274.236 235.299 274.215C235.345 274.193 235.395 274.183 235.445 274.185C236.248 274.216 237.038 274.404 237.768 274.74C239.328 275.303 240.96 275.643 242.616 275.75C242.885 275.751 243.151 275.798 243.404 275.892C243.53 275.942 243.638 276.028 243.716 276.139C243.793 276.251 243.835 276.382 243.838 276.518C243.822 276.631 243.773 276.736 243.697 276.821C245.171 276.821 246.656 276.75 248.12 276.902C248.534 276.902 249.039 277.104 249.07 277.508C249.1 277.912 248.817 278.043 248.565 278.205C247.26 278.899 245.8 279.247 244.323 279.215C242.848 279.324 241.365 279.197 239.929 278.841C239.166 278.632 238.438 278.312 237.768 277.891C237.081 277.462 236.487 276.899 236.021 276.235L235.91 276.023C235.643 275.549 235.41 275.056 235.213 274.548C235.171 274.475 235.16 274.388 235.182 274.306Z" fill="#AF6152"/>
  <path d="M205.56 211.688C213.135 214.334 218.518 216.889 221.124 221.787C223.729 226.686 226.072 238.351 226.85 242.795C227.21 245.817 228.171 248.736 229.678 251.38C231.092 254.006 231.698 257.803 232.839 264.247C233.981 270.69 234.637 272.609 235.869 274.165C237.101 275.72 239.707 278.205 242.323 278.205C244.939 278.205 249.898 277.488 252.362 277.245C253.473 277.134 253.968 278.447 252.241 279.558C250.514 280.669 247.645 281.275 245.09 281.578C242.535 281.881 240.465 281.669 240.141 282.446C239.904 282.97 239.782 283.538 239.782 284.113C239.782 284.688 239.904 285.256 240.141 285.779C240.747 286.88 241.828 289.435 241.515 290.89C241.202 292.344 240.172 292.203 238.778 290.95C237.384 289.698 237.768 287.607 236.293 286.577C235.384 285.941 234.395 285.426 233.506 284.749C232.617 284.073 231.738 283.679 230.87 283.073C229.821 282.271 229.048 281.162 228.658 279.901C228.082 278.225 228.193 276.366 227.497 274.74C226.244 271.771 221.578 263.984 219.75 259.651C217.922 255.319 217.467 249.552 216.72 247.936C215.973 246.32 208.499 223.807 208.499 223.807L205.56 211.688Z" fill="#C8856A"/>
  <path d="M204.045 210.678C208.711 211.91 218.407 214.97 221.497 221.242C224.588 227.514 227.274 241.876 227.274 241.876C227.274 241.876 220.821 247.37 215.427 247.158L204.085 224.03L204.045 210.678Z" fill="#7749F8"/>
  <path opacity="0.15" d="M204.045 210.678C208.711 211.91 218.407 214.97 221.497 221.242C224.588 227.514 227.274 241.876 227.274 241.876C227.274 241.876 220.821 247.37 215.427 247.158L204.085 224.03L204.045 210.678Z" fill="black"/>
  <path d="M218.286 219.949C221.891 224.676 220.81 227.807 220.497 229.201C220.226 230.544 219.785 231.847 219.184 233.079C218.831 233.422 218.488 233.735 218.488 233.735C217.993 233.251 214.448 233.008 210.711 236.614C207.681 239.523 206.61 241.977 206.317 243.037C202.652 244.378 199.176 246.188 195.975 248.42C192.491 251.016 191.663 256.298 184.209 254.4C176.755 252.501 177.139 247.33 173.483 242.017C167.908 233.937 164.616 222.353 153.738 216.243C152.819 214.819 149.698 205.961 157.96 197.72C170.08 185.6 181.189 190.125 181.189 190.125C185.492 195.518 185.744 198.205 195.329 203.456C201.177 206.638 210.499 209.728 218.286 219.949Z" fill="#7749F8"/>
  <path d="M205.015 208.436C193.632 211.051 180.715 223.07 180.715 223.07L166.918 209.718C171.987 203.518 178.977 199.182 186.784 197.397C189.295 199.854 192.179 201.9 195.329 203.456C197.995 204.901 201.389 206.345 205.015 208.436Z" fill="#FAFAFA"/>
  <path d="M204.217 250.067C204.217 250.067 200.914 246.885 199.843 246.774C198.773 246.663 195.975 248.42 195.975 248.42C195.975 248.42 193.238 242.007 200.591 238.583C207.943 235.16 211.771 238.391 211.771 238.391L204.217 250.067Z" fill="#AF6152"/>
  <path d="M201.661 243.138C198.702 239.048 196.096 239.048 195.723 233.422C195.238 226.06 197.743 221.454 202.793 221.959C204.297 217.293 212.468 215.97 217.084 217.717C221.124 219.04 226.588 221.293 230.355 218.343C230.575 219.401 230.503 220.498 230.148 221.517C229.792 222.537 229.165 223.44 228.335 224.131C229.721 224.52 231.197 224.446 232.536 223.918C232.738 226.555 230.516 228.544 229.133 230.483C230.749 235.18 227.678 239.805 223.002 240.937C215.235 244.007 209.378 240.088 201.661 243.138Z" fill="#263238"/>
  <path d="M226.153 227.655C226.254 227.878 225.234 228.504 225.143 228.595C224.507 229.001 223.83 229.339 223.123 229.605C221.727 230.1 220.262 230.373 218.78 230.413C216.37 230.43 213.968 230.121 211.64 229.494C211.528 229.458 211.408 229.458 211.297 229.494C211.178 229.553 211.085 229.654 211.034 229.776C210.744 230.501 210.353 231.181 209.873 231.796C209.136 232.445 208.234 232.875 207.267 233.039C207.182 233.051 207.102 233.086 207.034 233.14C206.986 233.201 206.954 233.274 206.944 233.352C206.54 235.099 207.267 237.058 206.489 238.674C206.354 238.991 206.125 239.26 205.833 239.442C205.719 239.507 205.592 239.547 205.462 239.56C205.331 239.573 205.199 239.559 205.075 239.518C204.95 239.477 204.835 239.411 204.738 239.323C204.641 239.235 204.563 239.127 204.51 239.008C203.998 237.844 203.657 236.613 203.5 235.351C203.401 234.803 203.18 234.284 202.853 233.833C202.526 233.382 202.101 233.01 201.611 232.746C200.735 232.348 199.753 232.245 198.813 232.453C198.212 232.619 197.661 232.93 197.207 233.358C196.753 233.785 196.41 234.317 196.208 234.907C195.859 235.927 195.717 237.006 195.792 238.082C195.866 239.157 196.155 240.207 196.642 241.169C196.946 241.788 197.371 242.34 197.891 242.792C198.411 243.245 199.017 243.589 199.672 243.805C200.147 243.966 200.657 243.988 201.144 243.868C201.631 243.748 202.073 243.491 202.419 243.128L202.591 244.229C202.863 246.3 203.338 249.178 204.823 251.016C206.307 252.854 207.802 253.672 210.882 254.763C213.963 255.854 219.437 256.207 221.295 255.773C223.154 255.339 226.729 254.177 227.355 243.441C228.062 230.453 226.375 228.181 226.153 227.655Z" fill="#C8856A"/>
  <path d="M210.832 254.682C212.868 255.199 214.954 255.497 217.053 255.571C219.124 255.642 221.326 255.753 223.012 254.622C224.699 253.491 225.578 251.481 226.173 249.521C226.714 247.491 227.093 245.421 227.305 243.33C227.314 245.454 227.08 247.572 226.608 249.643C226.356 250.695 225.976 251.712 225.477 252.672C224.98 253.657 224.244 254.501 223.335 255.127C222.399 255.724 221.324 256.072 220.215 256.137C219.151 256.207 218.083 256.187 217.023 256.076C214.904 255.908 212.819 255.439 210.832 254.682Z" fill="#AF6152"/>
  <path d="M215.872 238.684C215.841 238.948 215.735 239.196 215.564 239.399C215.394 239.602 215.168 239.751 214.914 239.827C214.66 239.902 214.389 239.902 214.136 239.825C213.882 239.749 213.656 239.599 213.487 239.395C213.317 239.192 213.211 238.943 213.182 238.679C213.153 238.416 213.202 238.15 213.322 237.914C213.443 237.678 213.63 237.482 213.861 237.352C214.091 237.221 214.355 237.161 214.619 237.179C214.8 237.196 214.976 237.248 215.137 237.333C215.298 237.417 215.441 237.533 215.557 237.672C215.674 237.812 215.761 237.973 215.815 238.147C215.869 238.321 215.888 238.503 215.872 238.684Z" fill="#263238"/>
  <path d="M217.286 248.431C217.262 248.636 217.179 248.829 217.047 248.988C216.915 249.146 216.739 249.263 216.542 249.323C216.344 249.383 216.133 249.384 215.935 249.327C215.737 249.269 215.56 249.154 215.426 248.997C215.292 248.841 215.207 248.648 215.18 248.443C215.154 248.239 215.188 248.031 215.278 247.845C215.369 247.659 215.511 247.504 215.688 247.398C215.865 247.292 216.07 247.24 216.276 247.249C216.421 247.258 216.562 247.296 216.692 247.36C216.822 247.425 216.937 247.515 217.031 247.625C217.126 247.736 217.197 247.864 217.24 248.002C217.284 248.14 217.3 248.286 217.286 248.431Z" fill="#AF6152"/>
  <path d="M215.619 235.24L212.347 234.665C212.435 234.215 212.696 233.819 213.074 233.56C213.452 233.301 213.916 233.201 214.367 233.281C214.578 233.326 214.779 233.413 214.956 233.537C215.134 233.66 215.285 233.817 215.402 233.999C215.518 234.182 215.597 234.385 215.635 234.598C215.672 234.811 215.667 235.029 215.619 235.24Z" fill="#263238"/>
  <path d="M225.911 233.544L222.598 234.028C222.555 233.815 222.555 233.595 222.6 233.381C222.645 233.168 222.733 232.966 222.859 232.788C222.985 232.611 223.146 232.46 223.332 232.347C223.518 232.234 223.726 232.16 223.941 232.13C224.388 232.067 224.842 232.179 225.209 232.443C225.576 232.706 225.827 233.1 225.911 233.544Z" fill="#263238"/>
  <path d="M225.527 238.381C225.499 238.647 225.393 238.899 225.222 239.105C225.052 239.311 224.825 239.463 224.569 239.541C224.313 239.619 224.04 239.62 223.783 239.544C223.527 239.468 223.299 239.318 223.127 239.113C222.955 238.908 222.847 238.657 222.817 238.391C222.786 238.126 222.835 237.857 222.956 237.618C223.077 237.38 223.266 237.183 223.499 237.051C223.731 236.919 223.998 236.858 224.265 236.876C224.447 236.892 224.624 236.943 224.786 237.027C224.948 237.111 225.092 237.226 225.209 237.366C225.327 237.506 225.415 237.668 225.47 237.842C225.524 238.016 225.544 238.199 225.527 238.381Z" fill="#263238"/>
  <path d="M218.821 238.503L219.477 245.885L224.164 244.633C223.548 242.057 222.108 239.752 220.063 238.068C218.659 237.291 218.821 238.503 218.821 238.503Z" fill="#AF6152"/>
  <path d="M187.128 311.453C186.451 308.574 186.926 304.565 187.269 300.535C187.613 296.505 189.35 290.213 189.744 285.84C190.063 282.454 190.063 279.045 189.744 275.659C189.572 272.831 190.612 266.953 191.148 259.429C191.683 251.905 192.006 250.238 189.774 245.057C189.39 244.168 185.007 239.502 179.482 239.826C174.432 240.118 174.018 246.067 174.018 246.067C174.89 248.719 175.466 251.459 175.735 254.238C176.21 257.944 175.867 267.095 175.735 269.196C175.665 270.549 175.554 271.862 175.392 275.185C174.794 281.483 174.912 287.83 175.745 294.102C176.028 296.606 176.897 305.06 176.634 306.807C176.372 308.554 174.614 310.17 173.16 311.322C171.92 312.442 170.542 313.399 169.059 314.17C167.878 314.584 165.282 315.563 163.858 315.998C162.434 316.432 163.545 317.604 164.212 317.583C165.333 317.495 166.445 317.31 167.534 317.028C168.479 316.699 169.458 316.478 170.453 316.371C169.601 317.067 168.634 317.607 167.595 317.967C166.12 318.573 163.797 319.593 162.161 320.351C160.525 321.108 160.242 321.24 160.343 321.664C160.444 322.088 161.353 322.734 162.727 322.32C164.1 321.906 167.09 320.886 168.787 320.209C170.484 319.533 171.302 319.472 171.14 319.775C169.969 320.712 168.711 321.534 167.383 322.229C165.888 323.088 162.565 324.603 161.586 325.259C160.606 325.916 160.919 326.572 161.535 326.905C162.002 327.124 162.513 327.231 163.028 327.219C163.543 327.207 164.049 327.075 164.504 326.835C166.502 325.932 168.439 324.9 170.302 323.744C171.1 323.158 173.675 321.351 173.029 322.653C172.382 323.956 168.07 328.229 166.969 329.602C165.868 330.976 166.898 331.622 169.059 331.026C171.221 330.43 175.998 324.966 177.836 322.886C179.674 320.805 180.917 319.533 181.876 320.765C182.835 321.997 181.512 325.29 182.452 326.825C183.391 328.36 184.734 328.239 184.997 325.815C185.291 323.421 185.861 321.069 186.694 318.805C187.529 316.445 187.679 313.896 187.128 311.453Z" fill="#C8856A"/>
  <path d="M190.582 241.815C192.811 244.564 193.867 248.08 193.521 251.602C193.006 254.632 190.764 270.973 190.764 270.973C190.764 270.973 187.996 273.943 182.482 273.438C176.968 272.933 175.14 270.812 175.14 270.812C175.14 270.812 175.594 265.095 175.463 259.641C175.331 254.187 174.453 245.421 172.665 240.745C175.129 234.655 184.27 235.129 190.582 241.815Z" fill="#7749F8"/>
  <path opacity="0.15" d="M190.582 241.815C192.811 244.564 193.867 248.08 193.521 251.602C193.006 254.632 190.764 270.973 190.764 270.973C190.764 270.973 187.996 273.943 182.482 273.438C176.968 272.933 175.14 270.812 175.14 270.812C175.14 270.812 175.594 265.095 175.463 259.641C175.331 254.187 174.453 245.421 172.665 240.745C175.129 234.655 184.27 235.129 190.582 241.815Z" fill="black"/>
</svg>
